M48
;GenerationSoftware,Autodesk,EAGLE,9.6.2*%
;CreationDate,2023-07-06T14:30:53Z*%
FMAT,2
ICI,OFF
METRIC,TZ,000.000
T5C0.300
T4C0.350
T3C1.020
T2C1.200
T1C2.500
%
G90
M71
T1
X42000Y33000
X-42000Y-33000
X42000Y-33000
X40000Y-500
X-42000Y33000
T2
X-21285Y-37500
X-25095Y-37500
X-28905Y-37500
X-32715Y-37500
X-13335Y37500
X-9525Y37500
X-5715Y37500
X-1905Y37500
X1905Y37500
X5715Y37500
X9525Y37500
X13335Y37500
T3
X41795Y-26000
X41795Y-23460
X39255Y-23460
X41795Y-20920
X39255Y-20920
X41795Y-18380
X39255Y-18380
X41795Y-15840
X39255Y-15840
X41795Y-13300
X39255Y-13300
X41795Y-10760
X39255Y-10760
X41795Y-8220
X39255Y-8220
X41795Y-5680
X39255Y-5680
X39255Y-26000
X-25745Y9320
X-23205Y9320
X-25745Y6780
X-23205Y6780
X-25745Y4240
X-23205Y4240
X-25745Y1700
X-23205Y1700
X-25745Y-840
X-23205Y-840
X-25745Y-3380
X-23205Y-3380
X-25745Y-5920
X-23205Y-5920
X-25745Y-8460
X-23205Y-8460
X-25745Y-11000
X-23205Y-11000
X-23205Y-13540
X-13970Y7620
X-11430Y7620
X-8890Y7620
X-13970Y10160
X-11430Y10160
X-8890Y10160
X-6350Y7620
X-6350Y10160
X-2540Y7620
X0Y7620
X2540Y7620
X-2540Y10160
X0Y10160
X2540Y10160
X5080Y7620
X5080Y10160
X-25745Y-13540
X41795Y-28540
X39255Y-28540
T4
X6985Y-5080
X13716Y-21971
X22225Y-5715
X22225Y-8255
X23495Y-10160
X23495Y-3810
X7620Y-10160
X12065Y-5715
X8890Y-5080
X8255Y-9525
X8890Y-8890
X3810Y-22225
X-3810Y-11430
X-5080Y-10160
X-3810Y-10160
X-2540Y-11430
X-2540Y-10160
X-1270Y-4318
X-1905Y-10795
X-3175Y-10795
X-36830Y5080
X-36830Y11430
X-36830Y17145
X-36830Y23495
X-6350Y-24130
X-5080Y-25400
X5080Y-26670
X-7620Y-4445
X-6731Y-2794
X-11176Y-1524
X1270Y-4318
X2540Y24130
X-9525Y24130
X-14605Y17780
X6350Y18415
X-6985Y24130
X-635Y26670
X13970Y-18415
X7620Y6350
X-10795Y22225
X-6350Y22225
X-2540Y22225
X3175Y22225
X-12700Y22225
X-8890Y-8890
X5080Y22225
X1905Y-6350
X-2540Y-7620
X3175Y-17780
T5
X10668Y-5969
X-33020Y-26670
X-31750Y-26670
X-33020Y-27940
X-31750Y-27940
X-30480Y-26670
X-29210Y-26670
X-30480Y-34290
X-30480Y-35560
X-31750Y-34290
X11684Y-25019
X10033Y-22352
X14732Y-27051
X6477Y-21590
X-3175Y-25527
X-6350Y-25400
X-27940Y-26670
X9017Y-22352
M30