G04 EAGLE Gerber RS-274X export*
G75*
%MOMM*%
%FSLAX34Y34*%
%LPD*%
%INCopper Layer 15*%
%IPPOS*%
%AMOC8*
5,1,8,0,0,1.08239X$1,22.5*%
G01*
%ADD10C,1.800000*%
%ADD11C,1.530000*%
%ADD12C,0.756400*%
%ADD13C,0.706400*%

G36*
X438120Y-424069D02*
X438120Y-424069D01*
X438178Y-424071D01*
X438260Y-424049D01*
X438344Y-424037D01*
X438397Y-424014D01*
X438453Y-423999D01*
X438526Y-423956D01*
X438603Y-423921D01*
X438648Y-423883D01*
X438698Y-423854D01*
X438756Y-423792D01*
X438820Y-423738D01*
X438852Y-423689D01*
X438892Y-423646D01*
X438931Y-423571D01*
X438978Y-423501D01*
X438995Y-423445D01*
X439022Y-423393D01*
X439033Y-423325D01*
X439063Y-423230D01*
X439066Y-423130D01*
X439077Y-423062D01*
X439077Y-345421D01*
X439073Y-345392D01*
X439076Y-345363D01*
X439053Y-345252D01*
X439037Y-345139D01*
X439025Y-345113D01*
X439020Y-345084D01*
X438968Y-344983D01*
X438921Y-344880D01*
X438902Y-344858D01*
X438889Y-344832D01*
X438811Y-344750D01*
X438738Y-344663D01*
X438713Y-344647D01*
X438693Y-344625D01*
X438595Y-344568D01*
X438501Y-344505D01*
X438473Y-344496D01*
X438448Y-344482D01*
X438338Y-344454D01*
X438230Y-344420D01*
X438200Y-344419D01*
X438172Y-344412D01*
X438059Y-344415D01*
X437946Y-344412D01*
X437917Y-344420D01*
X437888Y-344421D01*
X437780Y-344456D01*
X437671Y-344484D01*
X437645Y-344499D01*
X437617Y-344508D01*
X437554Y-344554D01*
X437426Y-344629D01*
X437383Y-344675D01*
X437344Y-344703D01*
X432836Y-349211D01*
X424507Y-352661D01*
X415493Y-352661D01*
X407164Y-349211D01*
X400789Y-342836D01*
X397339Y-334507D01*
X397339Y-325493D01*
X400789Y-317164D01*
X407164Y-310789D01*
X415493Y-307339D01*
X424507Y-307339D01*
X432836Y-310789D01*
X437344Y-315297D01*
X437368Y-315315D01*
X437387Y-315337D01*
X437481Y-315400D01*
X437571Y-315468D01*
X437599Y-315478D01*
X437623Y-315495D01*
X437731Y-315529D01*
X437837Y-315569D01*
X437866Y-315572D01*
X437894Y-315580D01*
X438008Y-315583D01*
X438120Y-315593D01*
X438149Y-315587D01*
X438178Y-315588D01*
X438288Y-315559D01*
X438399Y-315537D01*
X438425Y-315523D01*
X438453Y-315516D01*
X438551Y-315458D01*
X438651Y-315406D01*
X438673Y-315386D01*
X438698Y-315371D01*
X438775Y-315288D01*
X438857Y-315210D01*
X438872Y-315185D01*
X438892Y-315163D01*
X438944Y-315062D01*
X439001Y-314965D01*
X439008Y-314936D01*
X439022Y-314910D01*
X439035Y-314833D01*
X439071Y-314689D01*
X439069Y-314627D01*
X439077Y-314579D01*
X439077Y26670D01*
X439069Y26728D01*
X439071Y26786D01*
X439049Y26868D01*
X439037Y26952D01*
X439014Y27005D01*
X438999Y27061D01*
X438956Y27134D01*
X438921Y27211D01*
X438883Y27256D01*
X438854Y27306D01*
X438792Y27364D01*
X438738Y27428D01*
X438689Y27460D01*
X438646Y27500D01*
X438571Y27539D01*
X438501Y27586D01*
X438445Y27603D01*
X438393Y27630D01*
X438325Y27641D01*
X438230Y27671D01*
X438130Y27674D01*
X438062Y27685D01*
X59690Y27685D01*
X59632Y27677D01*
X59574Y27679D01*
X59492Y27657D01*
X59409Y27645D01*
X59355Y27622D01*
X59299Y27607D01*
X59226Y27564D01*
X59149Y27529D01*
X59104Y27491D01*
X59054Y27462D01*
X58996Y27400D01*
X58932Y27346D01*
X58900Y27297D01*
X58860Y27254D01*
X58821Y27179D01*
X58775Y27109D01*
X58757Y27053D01*
X58730Y27001D01*
X58719Y26933D01*
X58689Y26838D01*
X58686Y26738D01*
X58675Y26670D01*
X58675Y-177800D01*
X58683Y-177858D01*
X58681Y-177916D01*
X58703Y-177998D01*
X58715Y-178082D01*
X58739Y-178135D01*
X58753Y-178191D01*
X58796Y-178264D01*
X58831Y-178341D01*
X58869Y-178386D01*
X58899Y-178436D01*
X58960Y-178494D01*
X59015Y-178558D01*
X59063Y-178590D01*
X59106Y-178630D01*
X59181Y-178669D01*
X59251Y-178716D01*
X59307Y-178733D01*
X59359Y-178760D01*
X59427Y-178771D01*
X59522Y-178801D01*
X59622Y-178804D01*
X59690Y-178815D01*
X103125Y-178815D01*
X103125Y-215777D01*
X103125Y-215778D01*
X103125Y-215780D01*
X103145Y-215919D01*
X103165Y-216058D01*
X103165Y-216060D01*
X103165Y-216061D01*
X103222Y-216187D01*
X103281Y-216318D01*
X103282Y-216319D01*
X103283Y-216320D01*
X103374Y-216427D01*
X103465Y-216535D01*
X103466Y-216535D01*
X103467Y-216537D01*
X103480Y-216545D01*
X103701Y-216692D01*
X103730Y-216701D01*
X103751Y-216715D01*
X104633Y-217080D01*
X106770Y-219217D01*
X107927Y-222009D01*
X107927Y-225031D01*
X106770Y-227823D01*
X104633Y-229960D01*
X103751Y-230325D01*
X103750Y-230326D01*
X103749Y-230327D01*
X103631Y-230397D01*
X103507Y-230470D01*
X103506Y-230471D01*
X103504Y-230472D01*
X103407Y-230576D01*
X103311Y-230677D01*
X103311Y-230678D01*
X103310Y-230679D01*
X103245Y-230805D01*
X103181Y-230929D01*
X103181Y-230931D01*
X103180Y-230932D01*
X103178Y-230947D01*
X103126Y-231208D01*
X103129Y-231239D01*
X103125Y-231263D01*
X103125Y-305055D01*
X-205995Y-305055D01*
X-205995Y287020D01*
X-206003Y287078D01*
X-206001Y287136D01*
X-206023Y287218D01*
X-206035Y287302D01*
X-206059Y287355D01*
X-206073Y287411D01*
X-206116Y287484D01*
X-206151Y287561D01*
X-206189Y287606D01*
X-206219Y287656D01*
X-206280Y287714D01*
X-206335Y287778D01*
X-206383Y287810D01*
X-206426Y287850D01*
X-206501Y287889D01*
X-206571Y287936D01*
X-206627Y287953D01*
X-206679Y287980D01*
X-206747Y287991D01*
X-206842Y288021D01*
X-206942Y288024D01*
X-207010Y288035D01*
X-438062Y288035D01*
X-438120Y288027D01*
X-438178Y288029D01*
X-438260Y288007D01*
X-438344Y287995D01*
X-438397Y287972D01*
X-438453Y287957D01*
X-438526Y287914D01*
X-438603Y287879D01*
X-438648Y287841D01*
X-438698Y287812D01*
X-438756Y287750D01*
X-438820Y287696D01*
X-438852Y287647D01*
X-438892Y287604D01*
X-438931Y287529D01*
X-438978Y287459D01*
X-438995Y287403D01*
X-439022Y287351D01*
X-439033Y287283D01*
X-439063Y287188D01*
X-439066Y287088D01*
X-439077Y287020D01*
X-439077Y-314579D01*
X-439073Y-314608D01*
X-439076Y-314637D01*
X-439053Y-314748D01*
X-439037Y-314861D01*
X-439025Y-314887D01*
X-439020Y-314916D01*
X-438968Y-315017D01*
X-438921Y-315120D01*
X-438902Y-315142D01*
X-438889Y-315168D01*
X-438811Y-315250D01*
X-438738Y-315337D01*
X-438713Y-315353D01*
X-438693Y-315375D01*
X-438595Y-315432D01*
X-438501Y-315495D01*
X-438473Y-315504D01*
X-438448Y-315518D01*
X-438338Y-315546D01*
X-438230Y-315580D01*
X-438200Y-315581D01*
X-438172Y-315588D01*
X-438059Y-315585D01*
X-437946Y-315588D01*
X-437917Y-315580D01*
X-437888Y-315579D01*
X-437780Y-315544D01*
X-437671Y-315516D01*
X-437645Y-315501D01*
X-437617Y-315492D01*
X-437554Y-315446D01*
X-437426Y-315371D01*
X-437383Y-315325D01*
X-437344Y-315297D01*
X-432836Y-310789D01*
X-424507Y-307339D01*
X-415493Y-307339D01*
X-407164Y-310789D01*
X-400789Y-317164D01*
X-397339Y-325493D01*
X-397339Y-330200D01*
X-397331Y-330258D01*
X-397333Y-330316D01*
X-397311Y-330398D01*
X-397299Y-330482D01*
X-397276Y-330535D01*
X-397261Y-330591D01*
X-397218Y-330664D01*
X-397183Y-330741D01*
X-397145Y-330786D01*
X-397116Y-330836D01*
X-397054Y-330894D01*
X-397000Y-330958D01*
X-396951Y-330990D01*
X-396908Y-331030D01*
X-396833Y-331069D01*
X-396763Y-331116D01*
X-396707Y-331133D01*
X-396655Y-331160D01*
X-396587Y-331171D01*
X-396492Y-331201D01*
X-396392Y-331204D01*
X-396324Y-331215D01*
X-163575Y-331215D01*
X-163575Y-423062D01*
X-163567Y-423120D01*
X-163569Y-423178D01*
X-163547Y-423260D01*
X-163535Y-423344D01*
X-163512Y-423397D01*
X-163497Y-423453D01*
X-163454Y-423526D01*
X-163419Y-423603D01*
X-163381Y-423648D01*
X-163352Y-423698D01*
X-163290Y-423756D01*
X-163236Y-423820D01*
X-163187Y-423852D01*
X-163144Y-423892D01*
X-163069Y-423931D01*
X-162999Y-423978D01*
X-162943Y-423995D01*
X-162891Y-424022D01*
X-162823Y-424033D01*
X-162728Y-424063D01*
X-162628Y-424066D01*
X-162560Y-424077D01*
X438062Y-424077D01*
X438120Y-424069D01*
G37*
G36*
X43996Y-268220D02*
X43996Y-268220D01*
X44022Y-268222D01*
X44169Y-268200D01*
X44316Y-268183D01*
X44341Y-268175D01*
X44367Y-268171D01*
X44505Y-268116D01*
X44644Y-268066D01*
X44666Y-268052D01*
X44691Y-268042D01*
X44812Y-267957D01*
X44937Y-267877D01*
X44955Y-267858D01*
X44977Y-267843D01*
X45076Y-267733D01*
X45179Y-267626D01*
X45193Y-267604D01*
X45210Y-267584D01*
X45282Y-267454D01*
X45358Y-267327D01*
X45366Y-267302D01*
X45379Y-267279D01*
X45419Y-267136D01*
X45464Y-266995D01*
X45466Y-266969D01*
X45474Y-266944D01*
X45493Y-266700D01*
X45493Y-265644D01*
X46301Y-263694D01*
X47794Y-262201D01*
X49744Y-261393D01*
X51856Y-261393D01*
X53806Y-262201D01*
X55299Y-263694D01*
X56107Y-265644D01*
X56107Y-266700D01*
X56110Y-266726D01*
X56108Y-266752D01*
X56130Y-266899D01*
X56147Y-267046D01*
X56155Y-267071D01*
X56159Y-267097D01*
X56214Y-267235D01*
X56264Y-267374D01*
X56278Y-267396D01*
X56288Y-267421D01*
X56373Y-267542D01*
X56453Y-267667D01*
X56472Y-267685D01*
X56487Y-267707D01*
X56597Y-267806D01*
X56704Y-267909D01*
X56726Y-267923D01*
X56746Y-267940D01*
X56876Y-268012D01*
X57003Y-268088D01*
X57028Y-268096D01*
X57051Y-268109D01*
X57194Y-268149D01*
X57335Y-268194D01*
X57361Y-268196D01*
X57386Y-268204D01*
X57630Y-268223D01*
X82550Y-268223D01*
X82576Y-268220D01*
X82602Y-268222D01*
X82749Y-268200D01*
X82896Y-268183D01*
X82921Y-268175D01*
X82947Y-268171D01*
X83085Y-268116D01*
X83224Y-268066D01*
X83246Y-268052D01*
X83271Y-268042D01*
X83392Y-267957D01*
X83517Y-267877D01*
X83535Y-267858D01*
X83557Y-267843D01*
X83656Y-267733D01*
X83759Y-267626D01*
X83773Y-267604D01*
X83790Y-267584D01*
X83862Y-267454D01*
X83938Y-267327D01*
X83946Y-267302D01*
X83959Y-267279D01*
X83999Y-267136D01*
X84044Y-266995D01*
X84046Y-266969D01*
X84054Y-266944D01*
X84073Y-266700D01*
X84073Y-234950D01*
X84070Y-234924D01*
X84072Y-234898D01*
X84050Y-234751D01*
X84033Y-234604D01*
X84025Y-234579D01*
X84021Y-234553D01*
X83966Y-234415D01*
X83916Y-234276D01*
X83902Y-234254D01*
X83892Y-234229D01*
X83807Y-234108D01*
X83727Y-233983D01*
X83708Y-233965D01*
X83693Y-233943D01*
X83583Y-233844D01*
X83476Y-233741D01*
X83454Y-233727D01*
X83434Y-233710D01*
X83304Y-233638D01*
X83177Y-233562D01*
X83152Y-233554D01*
X83129Y-233541D01*
X82986Y-233501D01*
X82845Y-233456D01*
X82819Y-233454D01*
X82794Y-233446D01*
X82550Y-233427D01*
X52323Y-233427D01*
X52323Y55627D01*
X73683Y55627D01*
X73733Y55633D01*
X73783Y55630D01*
X73905Y55652D01*
X74029Y55667D01*
X74076Y55684D01*
X74126Y55693D01*
X74240Y55742D01*
X74357Y55784D01*
X74399Y55811D01*
X74445Y55832D01*
X74545Y55906D01*
X74650Y55973D01*
X74685Y56009D01*
X74725Y56039D01*
X74806Y56134D01*
X74892Y56224D01*
X74918Y56267D01*
X74950Y56305D01*
X75007Y56416D01*
X75071Y56523D01*
X75086Y56571D01*
X75109Y56616D01*
X75139Y56737D01*
X75177Y56855D01*
X75181Y56905D01*
X75193Y56954D01*
X75195Y57078D01*
X75205Y57202D01*
X75198Y57252D01*
X75198Y57302D01*
X75172Y57424D01*
X75153Y57547D01*
X75135Y57594D01*
X75124Y57643D01*
X75071Y57755D01*
X75025Y57871D01*
X74996Y57912D01*
X74974Y57958D01*
X74897Y58055D01*
X74826Y58157D01*
X74788Y58191D01*
X74757Y58230D01*
X74659Y58307D01*
X74567Y58390D01*
X74523Y58415D01*
X74483Y58446D01*
X74266Y58557D01*
X73194Y59001D01*
X71701Y60494D01*
X70893Y62444D01*
X70893Y64556D01*
X71701Y66506D01*
X73194Y67999D01*
X75144Y68807D01*
X77256Y68807D01*
X79206Y67999D01*
X80699Y66506D01*
X81507Y64556D01*
X81507Y62444D01*
X80699Y60494D01*
X79206Y59001D01*
X78134Y58557D01*
X78090Y58533D01*
X78043Y58516D01*
X77939Y58449D01*
X77830Y58388D01*
X77792Y58354D01*
X77750Y58327D01*
X77664Y58237D01*
X77572Y58154D01*
X77543Y58113D01*
X77508Y58076D01*
X77444Y57969D01*
X77373Y57867D01*
X77355Y57820D01*
X77329Y57777D01*
X77291Y57659D01*
X77246Y57543D01*
X77238Y57493D01*
X77223Y57445D01*
X77213Y57321D01*
X77195Y57198D01*
X77199Y57148D01*
X77195Y57098D01*
X77213Y56975D01*
X77224Y56851D01*
X77239Y56803D01*
X77247Y56753D01*
X77293Y56637D01*
X77331Y56519D01*
X77357Y56476D01*
X77375Y56429D01*
X77446Y56327D01*
X77510Y56221D01*
X77546Y56184D01*
X77574Y56143D01*
X77667Y56060D01*
X77753Y55971D01*
X77796Y55943D01*
X77833Y55910D01*
X77942Y55850D01*
X78047Y55782D01*
X78094Y55766D01*
X78138Y55741D01*
X78258Y55707D01*
X78375Y55666D01*
X78425Y55660D01*
X78474Y55646D01*
X78717Y55627D01*
X437554Y55627D01*
X437580Y55630D01*
X437606Y55628D01*
X437753Y55650D01*
X437900Y55667D01*
X437925Y55675D01*
X437951Y55679D01*
X438089Y55734D01*
X438228Y55784D01*
X438250Y55798D01*
X438275Y55808D01*
X438396Y55893D01*
X438521Y55973D01*
X438539Y55992D01*
X438561Y56007D01*
X438660Y56117D01*
X438763Y56224D01*
X438777Y56246D01*
X438794Y56266D01*
X438866Y56396D01*
X438942Y56523D01*
X438950Y56548D01*
X438963Y56571D01*
X439003Y56714D01*
X439048Y56855D01*
X439050Y56881D01*
X439058Y56906D01*
X439077Y57150D01*
X439077Y313353D01*
X439066Y313453D01*
X439064Y313553D01*
X439046Y313625D01*
X439037Y313699D01*
X439004Y313793D01*
X438979Y313891D01*
X438945Y313957D01*
X438920Y314027D01*
X438865Y314111D01*
X438819Y314201D01*
X438771Y314257D01*
X438731Y314320D01*
X438659Y314390D01*
X438594Y314466D01*
X438534Y314510D01*
X438480Y314562D01*
X438394Y314614D01*
X438313Y314673D01*
X438245Y314703D01*
X438181Y314741D01*
X438085Y314771D01*
X437993Y314811D01*
X437920Y314824D01*
X437849Y314847D01*
X437749Y314855D01*
X437650Y314873D01*
X437576Y314869D01*
X437502Y314875D01*
X437402Y314860D01*
X437302Y314855D01*
X437231Y314834D01*
X437157Y314823D01*
X437064Y314786D01*
X436967Y314758D01*
X436902Y314722D01*
X436833Y314695D01*
X436751Y314637D01*
X436663Y314588D01*
X436587Y314523D01*
X436547Y314496D01*
X436523Y314469D01*
X436477Y314430D01*
X432836Y310789D01*
X424508Y307339D01*
X415492Y307339D01*
X407164Y310789D01*
X400789Y317164D01*
X397339Y325492D01*
X397339Y334508D01*
X400789Y342836D01*
X407164Y349211D01*
X415492Y352661D01*
X424508Y352661D01*
X432836Y349211D01*
X436477Y345570D01*
X436555Y345508D01*
X436628Y345438D01*
X436692Y345400D01*
X436750Y345354D01*
X436841Y345311D01*
X436927Y345259D01*
X436998Y345236D01*
X437065Y345205D01*
X437163Y345184D01*
X437259Y345153D01*
X437333Y345147D01*
X437406Y345131D01*
X437506Y345133D01*
X437606Y345125D01*
X437680Y345136D01*
X437754Y345137D01*
X437851Y345162D01*
X437951Y345177D01*
X438020Y345204D01*
X438092Y345222D01*
X438182Y345268D01*
X438275Y345305D01*
X438336Y345348D01*
X438402Y345382D01*
X438479Y345447D01*
X438561Y345504D01*
X438611Y345559D01*
X438667Y345608D01*
X438727Y345689D01*
X438794Y345763D01*
X438830Y345828D01*
X438875Y345888D01*
X438914Y345980D01*
X438963Y346068D01*
X438983Y346140D01*
X439013Y346208D01*
X439030Y346307D01*
X439058Y346404D01*
X439066Y346504D01*
X439074Y346551D01*
X439072Y346587D01*
X439077Y346647D01*
X439077Y382554D01*
X439074Y382580D01*
X439076Y382606D01*
X439054Y382753D01*
X439037Y382900D01*
X439029Y382925D01*
X439025Y382951D01*
X438970Y383089D01*
X438920Y383228D01*
X438906Y383250D01*
X438896Y383275D01*
X438811Y383396D01*
X438731Y383521D01*
X438712Y383539D01*
X438697Y383561D01*
X438587Y383660D01*
X438480Y383763D01*
X438458Y383777D01*
X438438Y383794D01*
X438308Y383866D01*
X438181Y383942D01*
X438156Y383950D01*
X438133Y383963D01*
X437990Y384003D01*
X437849Y384048D01*
X437823Y384050D01*
X437798Y384058D01*
X437554Y384077D01*
X387827Y384077D01*
X383813Y385740D01*
X380740Y388813D01*
X379077Y392827D01*
X379077Y412554D01*
X379074Y412580D01*
X379076Y412606D01*
X379054Y412753D01*
X379037Y412900D01*
X379029Y412925D01*
X379025Y412951D01*
X378970Y413089D01*
X378920Y413228D01*
X378906Y413250D01*
X378896Y413275D01*
X378811Y413396D01*
X378731Y413521D01*
X378712Y413539D01*
X378697Y413561D01*
X378587Y413660D01*
X378480Y413763D01*
X378458Y413777D01*
X378438Y413794D01*
X378308Y413866D01*
X378181Y413942D01*
X378156Y413950D01*
X378133Y413963D01*
X377990Y414003D01*
X377849Y414048D01*
X377823Y414050D01*
X377798Y414058D01*
X377554Y414077D01*
X-184150Y414077D01*
X-184176Y414074D01*
X-184202Y414076D01*
X-184349Y414054D01*
X-184496Y414037D01*
X-184521Y414029D01*
X-184547Y414025D01*
X-184685Y413970D01*
X-184824Y413920D01*
X-184846Y413906D01*
X-184871Y413896D01*
X-184992Y413811D01*
X-185117Y413731D01*
X-185135Y413712D01*
X-185157Y413697D01*
X-185256Y413587D01*
X-185359Y413480D01*
X-185373Y413458D01*
X-185390Y413438D01*
X-185462Y413308D01*
X-185538Y413181D01*
X-185546Y413156D01*
X-185559Y413133D01*
X-185599Y412990D01*
X-185644Y412849D01*
X-185646Y412823D01*
X-185654Y412798D01*
X-185673Y412554D01*
X-185673Y31750D01*
X-185670Y31724D01*
X-185672Y31698D01*
X-185650Y31551D01*
X-185633Y31404D01*
X-185625Y31379D01*
X-185621Y31353D01*
X-185566Y31215D01*
X-185516Y31076D01*
X-185502Y31054D01*
X-185492Y31029D01*
X-185407Y30908D01*
X-185327Y30783D01*
X-185308Y30765D01*
X-185293Y30743D01*
X-185183Y30644D01*
X-185076Y30541D01*
X-185054Y30527D01*
X-185034Y30510D01*
X-184904Y30438D01*
X-184777Y30362D01*
X-184752Y30354D01*
X-184729Y30341D01*
X-184586Y30301D01*
X-184445Y30256D01*
X-184419Y30254D01*
X-184394Y30246D01*
X-184150Y30227D01*
X-166623Y30227D01*
X-166623Y-203200D01*
X-166620Y-203226D01*
X-166622Y-203252D01*
X-166600Y-203399D01*
X-166583Y-203546D01*
X-166575Y-203571D01*
X-166571Y-203597D01*
X-166516Y-203735D01*
X-166466Y-203874D01*
X-166452Y-203896D01*
X-166442Y-203921D01*
X-166357Y-204042D01*
X-166277Y-204167D01*
X-166258Y-204185D01*
X-166243Y-204207D01*
X-166133Y-204306D01*
X-166026Y-204409D01*
X-166004Y-204423D01*
X-165984Y-204440D01*
X-165854Y-204512D01*
X-165727Y-204588D01*
X-165702Y-204596D01*
X-165679Y-204609D01*
X-165536Y-204649D01*
X-165395Y-204694D01*
X-165369Y-204696D01*
X-165344Y-204704D01*
X-165100Y-204723D01*
X-77723Y-204723D01*
X-77723Y-266700D01*
X-77720Y-266726D01*
X-77722Y-266752D01*
X-77700Y-266899D01*
X-77683Y-267046D01*
X-77675Y-267071D01*
X-77671Y-267097D01*
X-77616Y-267235D01*
X-77566Y-267374D01*
X-77552Y-267396D01*
X-77542Y-267421D01*
X-77457Y-267542D01*
X-77377Y-267667D01*
X-77358Y-267685D01*
X-77343Y-267707D01*
X-77233Y-267806D01*
X-77126Y-267909D01*
X-77104Y-267923D01*
X-77084Y-267940D01*
X-76954Y-268012D01*
X-76827Y-268088D01*
X-76802Y-268096D01*
X-76779Y-268109D01*
X-76636Y-268149D01*
X-76495Y-268194D01*
X-76469Y-268196D01*
X-76444Y-268204D01*
X-76200Y-268223D01*
X43970Y-268223D01*
X43996Y-268220D01*
G37*
%LPC*%
G36*
X-259780Y-147115D02*
X-259780Y-147115D01*
X-264086Y-145331D01*
X-267381Y-142036D01*
X-269165Y-137730D01*
X-269165Y-133070D01*
X-267381Y-128764D01*
X-264086Y-125469D01*
X-259666Y-123638D01*
X-259641Y-123623D01*
X-259613Y-123614D01*
X-259519Y-123551D01*
X-259421Y-123493D01*
X-259401Y-123472D01*
X-259377Y-123456D01*
X-259304Y-123369D01*
X-259226Y-123287D01*
X-259213Y-123261D01*
X-259194Y-123238D01*
X-259148Y-123135D01*
X-259096Y-123034D01*
X-259090Y-123005D01*
X-259078Y-122978D01*
X-259063Y-122866D01*
X-259041Y-122755D01*
X-259043Y-122726D01*
X-259039Y-122697D01*
X-259055Y-122585D01*
X-259065Y-122472D01*
X-259076Y-122445D01*
X-259080Y-122415D01*
X-259127Y-122312D01*
X-259167Y-122207D01*
X-259185Y-122183D01*
X-259197Y-122156D01*
X-259271Y-122070D01*
X-259339Y-121980D01*
X-259362Y-121962D01*
X-259381Y-121940D01*
X-259448Y-121898D01*
X-259567Y-121810D01*
X-259625Y-121788D01*
X-259666Y-121762D01*
X-264086Y-119931D01*
X-267381Y-116636D01*
X-269165Y-112330D01*
X-269165Y-107670D01*
X-267381Y-103364D01*
X-264086Y-100069D01*
X-259666Y-98238D01*
X-259641Y-98223D01*
X-259613Y-98214D01*
X-259519Y-98151D01*
X-259421Y-98093D01*
X-259401Y-98072D01*
X-259377Y-98056D01*
X-259304Y-97969D01*
X-259226Y-97887D01*
X-259213Y-97861D01*
X-259194Y-97838D01*
X-259148Y-97735D01*
X-259096Y-97634D01*
X-259090Y-97605D01*
X-259078Y-97578D01*
X-259063Y-97466D01*
X-259041Y-97355D01*
X-259043Y-97326D01*
X-259039Y-97297D01*
X-259055Y-97185D01*
X-259065Y-97072D01*
X-259076Y-97045D01*
X-259080Y-97015D01*
X-259127Y-96912D01*
X-259167Y-96807D01*
X-259185Y-96783D01*
X-259197Y-96756D01*
X-259271Y-96670D01*
X-259339Y-96580D01*
X-259362Y-96562D01*
X-259381Y-96540D01*
X-259448Y-96498D01*
X-259567Y-96410D01*
X-259625Y-96388D01*
X-259666Y-96362D01*
X-264086Y-94531D01*
X-267381Y-91236D01*
X-269165Y-86930D01*
X-269165Y-82270D01*
X-267381Y-77964D01*
X-264086Y-74669D01*
X-259666Y-72838D01*
X-259641Y-72823D01*
X-259613Y-72814D01*
X-259519Y-72751D01*
X-259421Y-72693D01*
X-259401Y-72672D01*
X-259377Y-72656D01*
X-259304Y-72569D01*
X-259226Y-72487D01*
X-259213Y-72461D01*
X-259194Y-72438D01*
X-259148Y-72335D01*
X-259096Y-72234D01*
X-259090Y-72205D01*
X-259078Y-72178D01*
X-259063Y-72066D01*
X-259041Y-71955D01*
X-259043Y-71926D01*
X-259039Y-71897D01*
X-259055Y-71785D01*
X-259065Y-71672D01*
X-259076Y-71645D01*
X-259080Y-71615D01*
X-259127Y-71512D01*
X-259167Y-71407D01*
X-259185Y-71383D01*
X-259197Y-71356D01*
X-259271Y-71270D01*
X-259339Y-71180D01*
X-259362Y-71162D01*
X-259381Y-71140D01*
X-259448Y-71098D01*
X-259567Y-71010D01*
X-259625Y-70988D01*
X-259666Y-70962D01*
X-264086Y-69131D01*
X-267381Y-65836D01*
X-269165Y-61530D01*
X-269165Y-56870D01*
X-267381Y-52564D01*
X-264086Y-49269D01*
X-259666Y-47438D01*
X-259641Y-47423D01*
X-259613Y-47414D01*
X-259519Y-47351D01*
X-259421Y-47293D01*
X-259401Y-47272D01*
X-259377Y-47256D01*
X-259304Y-47169D01*
X-259226Y-47087D01*
X-259213Y-47061D01*
X-259194Y-47038D01*
X-259148Y-46935D01*
X-259096Y-46834D01*
X-259090Y-46805D01*
X-259078Y-46778D01*
X-259063Y-46666D01*
X-259041Y-46555D01*
X-259043Y-46526D01*
X-259039Y-46497D01*
X-259055Y-46385D01*
X-259065Y-46272D01*
X-259076Y-46245D01*
X-259080Y-46215D01*
X-259127Y-46112D01*
X-259167Y-46007D01*
X-259185Y-45983D01*
X-259197Y-45956D01*
X-259271Y-45870D01*
X-259339Y-45780D01*
X-259362Y-45762D01*
X-259381Y-45740D01*
X-259448Y-45698D01*
X-259567Y-45610D01*
X-259625Y-45588D01*
X-259666Y-45562D01*
X-264086Y-43731D01*
X-267381Y-40436D01*
X-269165Y-36130D01*
X-269165Y-31470D01*
X-267381Y-27164D01*
X-264086Y-23869D01*
X-259666Y-22038D01*
X-259641Y-22023D01*
X-259613Y-22014D01*
X-259519Y-21951D01*
X-259421Y-21893D01*
X-259401Y-21872D01*
X-259377Y-21856D01*
X-259304Y-21769D01*
X-259226Y-21687D01*
X-259213Y-21661D01*
X-259194Y-21638D01*
X-259148Y-21535D01*
X-259096Y-21434D01*
X-259090Y-21405D01*
X-259078Y-21378D01*
X-259063Y-21266D01*
X-259041Y-21155D01*
X-259043Y-21126D01*
X-259039Y-21097D01*
X-259055Y-20985D01*
X-259065Y-20872D01*
X-259076Y-20845D01*
X-259080Y-20815D01*
X-259127Y-20712D01*
X-259167Y-20607D01*
X-259185Y-20583D01*
X-259197Y-20556D01*
X-259271Y-20470D01*
X-259339Y-20380D01*
X-259362Y-20362D01*
X-259381Y-20340D01*
X-259448Y-20298D01*
X-259567Y-20210D01*
X-259625Y-20188D01*
X-259666Y-20162D01*
X-264086Y-18331D01*
X-267381Y-15036D01*
X-269165Y-10730D01*
X-269165Y-6070D01*
X-267381Y-1764D01*
X-264086Y1531D01*
X-259666Y3362D01*
X-259641Y3377D01*
X-259613Y3386D01*
X-259519Y3449D01*
X-259421Y3507D01*
X-259401Y3528D01*
X-259377Y3544D01*
X-259304Y3631D01*
X-259226Y3713D01*
X-259213Y3739D01*
X-259194Y3762D01*
X-259148Y3865D01*
X-259096Y3966D01*
X-259090Y3995D01*
X-259078Y4022D01*
X-259063Y4134D01*
X-259041Y4245D01*
X-259043Y4274D01*
X-259039Y4303D01*
X-259055Y4415D01*
X-259065Y4528D01*
X-259076Y4555D01*
X-259080Y4584D01*
X-259127Y4688D01*
X-259167Y4793D01*
X-259185Y4817D01*
X-259197Y4844D01*
X-259271Y4930D01*
X-259339Y5020D01*
X-259362Y5038D01*
X-259381Y5060D01*
X-259448Y5102D01*
X-259567Y5190D01*
X-259625Y5212D01*
X-259666Y5238D01*
X-264086Y7069D01*
X-267381Y10364D01*
X-269165Y14670D01*
X-269165Y19330D01*
X-267381Y23636D01*
X-264086Y26931D01*
X-259666Y28762D01*
X-259641Y28777D01*
X-259613Y28786D01*
X-259519Y28849D01*
X-259421Y28907D01*
X-259401Y28928D01*
X-259377Y28944D01*
X-259304Y29031D01*
X-259226Y29113D01*
X-259213Y29139D01*
X-259194Y29162D01*
X-259148Y29265D01*
X-259096Y29366D01*
X-259090Y29395D01*
X-259078Y29422D01*
X-259063Y29534D01*
X-259041Y29645D01*
X-259043Y29674D01*
X-259039Y29703D01*
X-259056Y29815D01*
X-259065Y29928D01*
X-259076Y29955D01*
X-259080Y29985D01*
X-259127Y30088D01*
X-259167Y30193D01*
X-259185Y30217D01*
X-259197Y30244D01*
X-259270Y30330D01*
X-259339Y30420D01*
X-259362Y30438D01*
X-259381Y30460D01*
X-259448Y30502D01*
X-259567Y30590D01*
X-259625Y30612D01*
X-259666Y30638D01*
X-264086Y32469D01*
X-267381Y35764D01*
X-269165Y40070D01*
X-269165Y44730D01*
X-267381Y49036D01*
X-264086Y52331D01*
X-259666Y54162D01*
X-259641Y54177D01*
X-259613Y54186D01*
X-259519Y54249D01*
X-259421Y54307D01*
X-259401Y54328D01*
X-259377Y54344D01*
X-259304Y54431D01*
X-259226Y54513D01*
X-259213Y54539D01*
X-259194Y54562D01*
X-259148Y54665D01*
X-259096Y54766D01*
X-259090Y54795D01*
X-259078Y54822D01*
X-259063Y54934D01*
X-259041Y55045D01*
X-259043Y55074D01*
X-259039Y55103D01*
X-259056Y55215D01*
X-259065Y55328D01*
X-259076Y55355D01*
X-259080Y55385D01*
X-259127Y55488D01*
X-259167Y55593D01*
X-259185Y55617D01*
X-259197Y55644D01*
X-259270Y55730D01*
X-259339Y55820D01*
X-259362Y55838D01*
X-259381Y55860D01*
X-259448Y55902D01*
X-259567Y55990D01*
X-259625Y56012D01*
X-259666Y56038D01*
X-264086Y57869D01*
X-267381Y61164D01*
X-269165Y65470D01*
X-269165Y70130D01*
X-267381Y74436D01*
X-264086Y77731D01*
X-259666Y79562D01*
X-259641Y79577D01*
X-259613Y79586D01*
X-259547Y79630D01*
X-259518Y79643D01*
X-259494Y79664D01*
X-259421Y79707D01*
X-259401Y79728D01*
X-259377Y79744D01*
X-259322Y79809D01*
X-259301Y79827D01*
X-259286Y79850D01*
X-259226Y79913D01*
X-259213Y79939D01*
X-259194Y79962D01*
X-259158Y80042D01*
X-259144Y80063D01*
X-259136Y80088D01*
X-259096Y80166D01*
X-259090Y80195D01*
X-259078Y80222D01*
X-259066Y80309D01*
X-259058Y80334D01*
X-259057Y80361D01*
X-259041Y80445D01*
X-259043Y80474D01*
X-259039Y80503D01*
X-259052Y80588D01*
X-259051Y80618D01*
X-259058Y80647D01*
X-259065Y80728D01*
X-259076Y80755D01*
X-259080Y80785D01*
X-259114Y80859D01*
X-259123Y80893D01*
X-259140Y80923D01*
X-259167Y80993D01*
X-259185Y81017D01*
X-259197Y81044D01*
X-259246Y81101D01*
X-259268Y81138D01*
X-259298Y81166D01*
X-259339Y81220D01*
X-259362Y81238D01*
X-259381Y81260D01*
X-259431Y81291D01*
X-259475Y81332D01*
X-259519Y81355D01*
X-259567Y81390D01*
X-259625Y81412D01*
X-259666Y81438D01*
X-264086Y83269D01*
X-267381Y86564D01*
X-269165Y90870D01*
X-269165Y95530D01*
X-267381Y99836D01*
X-264086Y103131D01*
X-259780Y104915D01*
X-255120Y104915D01*
X-250814Y103131D01*
X-247519Y99836D01*
X-245688Y95416D01*
X-245673Y95391D01*
X-245664Y95363D01*
X-245601Y95269D01*
X-245543Y95171D01*
X-245522Y95151D01*
X-245506Y95127D01*
X-245419Y95054D01*
X-245337Y94976D01*
X-245311Y94963D01*
X-245288Y94944D01*
X-245185Y94898D01*
X-245084Y94846D01*
X-245055Y94840D01*
X-245028Y94828D01*
X-244916Y94813D01*
X-244805Y94791D01*
X-244776Y94793D01*
X-244747Y94789D01*
X-244635Y94806D01*
X-244522Y94815D01*
X-244495Y94826D01*
X-244466Y94830D01*
X-244362Y94877D01*
X-244257Y94917D01*
X-244233Y94935D01*
X-244206Y94947D01*
X-244120Y95021D01*
X-244030Y95089D01*
X-244012Y95112D01*
X-243990Y95131D01*
X-243948Y95198D01*
X-243860Y95317D01*
X-243838Y95375D01*
X-243812Y95416D01*
X-241981Y99836D01*
X-238686Y103131D01*
X-234380Y104915D01*
X-229720Y104915D01*
X-225414Y103131D01*
X-222119Y99836D01*
X-220335Y95530D01*
X-220335Y90870D01*
X-222119Y86564D01*
X-225414Y83269D01*
X-229834Y81438D01*
X-229859Y81423D01*
X-229887Y81414D01*
X-229935Y81382D01*
X-229982Y81361D01*
X-230022Y81327D01*
X-230079Y81293D01*
X-230099Y81272D01*
X-230123Y81256D01*
X-230166Y81205D01*
X-230199Y81178D01*
X-230223Y81141D01*
X-230274Y81087D01*
X-230287Y81061D01*
X-230306Y81038D01*
X-230336Y80971D01*
X-230356Y80941D01*
X-230367Y80906D01*
X-230404Y80834D01*
X-230410Y80805D01*
X-230422Y80778D01*
X-230433Y80699D01*
X-230442Y80670D01*
X-230443Y80639D01*
X-230459Y80555D01*
X-230457Y80526D01*
X-230461Y80497D01*
X-230449Y80413D01*
X-230449Y80386D01*
X-230442Y80359D01*
X-230435Y80272D01*
X-230424Y80245D01*
X-230420Y80216D01*
X-230384Y80136D01*
X-230377Y80111D01*
X-230364Y80088D01*
X-230333Y80007D01*
X-230315Y79983D01*
X-230303Y79956D01*
X-230246Y79890D01*
X-230232Y79866D01*
X-230212Y79848D01*
X-230161Y79780D01*
X-230138Y79762D01*
X-230119Y79740D01*
X-230056Y79701D01*
X-230025Y79672D01*
X-229998Y79658D01*
X-229933Y79610D01*
X-229875Y79588D01*
X-229834Y79562D01*
X-225414Y77731D01*
X-222119Y74436D01*
X-220335Y70130D01*
X-220335Y65470D01*
X-222119Y61164D01*
X-225414Y57869D01*
X-229834Y56038D01*
X-229859Y56023D01*
X-229887Y56014D01*
X-229981Y55951D01*
X-230079Y55893D01*
X-230099Y55872D01*
X-230123Y55856D01*
X-230196Y55769D01*
X-230274Y55687D01*
X-230287Y55661D01*
X-230306Y55638D01*
X-230352Y55535D01*
X-230404Y55434D01*
X-230410Y55405D01*
X-230422Y55378D01*
X-230437Y55266D01*
X-230459Y55155D01*
X-230457Y55126D01*
X-230461Y55097D01*
X-230444Y54985D01*
X-230435Y54872D01*
X-230424Y54845D01*
X-230420Y54816D01*
X-230373Y54712D01*
X-230333Y54607D01*
X-230315Y54583D01*
X-230303Y54556D01*
X-230229Y54470D01*
X-230161Y54380D01*
X-230138Y54362D01*
X-230119Y54340D01*
X-230052Y54298D01*
X-229933Y54210D01*
X-229875Y54188D01*
X-229834Y54162D01*
X-225414Y52331D01*
X-222119Y49036D01*
X-220335Y44730D01*
X-220335Y40070D01*
X-222119Y35764D01*
X-225414Y32469D01*
X-229834Y30638D01*
X-229859Y30623D01*
X-229887Y30614D01*
X-229981Y30551D01*
X-230079Y30493D01*
X-230099Y30472D01*
X-230123Y30456D01*
X-230196Y30369D01*
X-230274Y30287D01*
X-230287Y30261D01*
X-230306Y30238D01*
X-230352Y30135D01*
X-230404Y30034D01*
X-230410Y30005D01*
X-230422Y29978D01*
X-230437Y29866D01*
X-230459Y29755D01*
X-230457Y29726D01*
X-230461Y29697D01*
X-230444Y29585D01*
X-230435Y29472D01*
X-230424Y29445D01*
X-230420Y29416D01*
X-230373Y29312D01*
X-230333Y29207D01*
X-230315Y29183D01*
X-230303Y29156D01*
X-230229Y29070D01*
X-230161Y28980D01*
X-230138Y28962D01*
X-230119Y28940D01*
X-230052Y28898D01*
X-229933Y28810D01*
X-229875Y28788D01*
X-229834Y28762D01*
X-225414Y26931D01*
X-222119Y23636D01*
X-220335Y19330D01*
X-220335Y14670D01*
X-222119Y10364D01*
X-225414Y7069D01*
X-229834Y5238D01*
X-229859Y5223D01*
X-229887Y5214D01*
X-229981Y5151D01*
X-230079Y5093D01*
X-230099Y5072D01*
X-230123Y5056D01*
X-230196Y4969D01*
X-230274Y4887D01*
X-230287Y4861D01*
X-230306Y4838D01*
X-230352Y4735D01*
X-230404Y4634D01*
X-230410Y4605D01*
X-230422Y4578D01*
X-230437Y4466D01*
X-230459Y4355D01*
X-230457Y4326D01*
X-230461Y4297D01*
X-230445Y4185D01*
X-230435Y4072D01*
X-230424Y4045D01*
X-230420Y4015D01*
X-230373Y3912D01*
X-230333Y3807D01*
X-230315Y3783D01*
X-230303Y3756D01*
X-230229Y3670D01*
X-230161Y3580D01*
X-230138Y3562D01*
X-230119Y3540D01*
X-230052Y3498D01*
X-229933Y3410D01*
X-229875Y3388D01*
X-229834Y3362D01*
X-225414Y1531D01*
X-222119Y-1764D01*
X-220335Y-6070D01*
X-220335Y-10730D01*
X-222119Y-15036D01*
X-225414Y-18331D01*
X-229720Y-20115D01*
X-234380Y-20115D01*
X-238686Y-18331D01*
X-241981Y-15036D01*
X-243812Y-10616D01*
X-243827Y-10591D01*
X-243836Y-10563D01*
X-243899Y-10469D01*
X-243957Y-10371D01*
X-243978Y-10351D01*
X-243994Y-10327D01*
X-244081Y-10254D01*
X-244163Y-10176D01*
X-244189Y-10163D01*
X-244212Y-10144D01*
X-244315Y-10098D01*
X-244416Y-10046D01*
X-244445Y-10040D01*
X-244472Y-10028D01*
X-244584Y-10013D01*
X-244695Y-9991D01*
X-244724Y-9993D01*
X-244753Y-9989D01*
X-244865Y-10005D01*
X-244978Y-10015D01*
X-245005Y-10026D01*
X-245035Y-10030D01*
X-245138Y-10077D01*
X-245243Y-10117D01*
X-245267Y-10135D01*
X-245294Y-10147D01*
X-245380Y-10221D01*
X-245470Y-10289D01*
X-245488Y-10312D01*
X-245510Y-10331D01*
X-245552Y-10398D01*
X-245640Y-10517D01*
X-245662Y-10575D01*
X-245688Y-10616D01*
X-247519Y-15036D01*
X-250814Y-18331D01*
X-255234Y-20162D01*
X-255259Y-20177D01*
X-255287Y-20186D01*
X-255381Y-20249D01*
X-255479Y-20307D01*
X-255499Y-20328D01*
X-255523Y-20344D01*
X-255596Y-20431D01*
X-255674Y-20513D01*
X-255687Y-20539D01*
X-255706Y-20562D01*
X-255752Y-20665D01*
X-255804Y-20766D01*
X-255810Y-20795D01*
X-255822Y-20822D01*
X-255837Y-20934D01*
X-255859Y-21045D01*
X-255857Y-21074D01*
X-255861Y-21103D01*
X-255845Y-21215D01*
X-255835Y-21328D01*
X-255824Y-21355D01*
X-255820Y-21384D01*
X-255773Y-21488D01*
X-255733Y-21593D01*
X-255715Y-21617D01*
X-255703Y-21644D01*
X-255629Y-21730D01*
X-255561Y-21820D01*
X-255538Y-21838D01*
X-255519Y-21860D01*
X-255452Y-21902D01*
X-255333Y-21990D01*
X-255275Y-22012D01*
X-255234Y-22038D01*
X-250814Y-23869D01*
X-247519Y-27164D01*
X-245735Y-31470D01*
X-245735Y-36130D01*
X-247519Y-40436D01*
X-250814Y-43731D01*
X-255234Y-45562D01*
X-255259Y-45577D01*
X-255287Y-45586D01*
X-255381Y-45649D01*
X-255479Y-45707D01*
X-255499Y-45728D01*
X-255523Y-45744D01*
X-255596Y-45831D01*
X-255674Y-45913D01*
X-255687Y-45939D01*
X-255706Y-45962D01*
X-255752Y-46065D01*
X-255804Y-46166D01*
X-255810Y-46195D01*
X-255822Y-46222D01*
X-255837Y-46334D01*
X-255859Y-46445D01*
X-255857Y-46474D01*
X-255861Y-46503D01*
X-255845Y-46615D01*
X-255835Y-46728D01*
X-255824Y-46755D01*
X-255820Y-46784D01*
X-255773Y-46888D01*
X-255733Y-46993D01*
X-255715Y-47017D01*
X-255703Y-47044D01*
X-255629Y-47130D01*
X-255561Y-47220D01*
X-255538Y-47238D01*
X-255519Y-47260D01*
X-255452Y-47302D01*
X-255333Y-47390D01*
X-255275Y-47412D01*
X-255234Y-47438D01*
X-250814Y-49269D01*
X-247519Y-52564D01*
X-245735Y-56870D01*
X-245735Y-61530D01*
X-247519Y-65836D01*
X-250814Y-69131D01*
X-255234Y-70962D01*
X-255259Y-70977D01*
X-255287Y-70986D01*
X-255381Y-71049D01*
X-255479Y-71107D01*
X-255499Y-71128D01*
X-255523Y-71144D01*
X-255596Y-71231D01*
X-255674Y-71313D01*
X-255687Y-71339D01*
X-255706Y-71362D01*
X-255752Y-71465D01*
X-255804Y-71566D01*
X-255810Y-71595D01*
X-255822Y-71622D01*
X-255837Y-71734D01*
X-255859Y-71845D01*
X-255857Y-71874D01*
X-255861Y-71903D01*
X-255845Y-72015D01*
X-255835Y-72128D01*
X-255824Y-72155D01*
X-255820Y-72184D01*
X-255773Y-72288D01*
X-255733Y-72393D01*
X-255715Y-72417D01*
X-255703Y-72444D01*
X-255629Y-72530D01*
X-255561Y-72620D01*
X-255538Y-72638D01*
X-255519Y-72660D01*
X-255452Y-72702D01*
X-255333Y-72790D01*
X-255275Y-72812D01*
X-255234Y-72838D01*
X-250814Y-74669D01*
X-247519Y-77964D01*
X-245688Y-82384D01*
X-245673Y-82409D01*
X-245664Y-82437D01*
X-245601Y-82531D01*
X-245543Y-82629D01*
X-245522Y-82649D01*
X-245506Y-82673D01*
X-245419Y-82746D01*
X-245337Y-82824D01*
X-245311Y-82837D01*
X-245288Y-82856D01*
X-245185Y-82902D01*
X-245084Y-82954D01*
X-245055Y-82960D01*
X-245028Y-82972D01*
X-244916Y-82987D01*
X-244805Y-83009D01*
X-244776Y-83007D01*
X-244747Y-83011D01*
X-244635Y-82995D01*
X-244522Y-82985D01*
X-244495Y-82974D01*
X-244466Y-82970D01*
X-244362Y-82923D01*
X-244257Y-82883D01*
X-244233Y-82865D01*
X-244206Y-82853D01*
X-244120Y-82779D01*
X-244030Y-82711D01*
X-244012Y-82688D01*
X-243990Y-82669D01*
X-243948Y-82602D01*
X-243860Y-82483D01*
X-243838Y-82425D01*
X-243812Y-82384D01*
X-241981Y-77964D01*
X-238686Y-74669D01*
X-234380Y-72885D01*
X-229720Y-72885D01*
X-225414Y-74669D01*
X-222119Y-77964D01*
X-220335Y-82270D01*
X-220335Y-86930D01*
X-222119Y-91236D01*
X-225414Y-94531D01*
X-229834Y-96362D01*
X-229859Y-96377D01*
X-229887Y-96386D01*
X-229981Y-96449D01*
X-230079Y-96507D01*
X-230099Y-96528D01*
X-230123Y-96544D01*
X-230196Y-96631D01*
X-230274Y-96713D01*
X-230287Y-96739D01*
X-230306Y-96762D01*
X-230352Y-96865D01*
X-230404Y-96966D01*
X-230410Y-96995D01*
X-230422Y-97022D01*
X-230437Y-97134D01*
X-230459Y-97245D01*
X-230457Y-97274D01*
X-230461Y-97303D01*
X-230445Y-97415D01*
X-230435Y-97528D01*
X-230424Y-97555D01*
X-230420Y-97584D01*
X-230373Y-97688D01*
X-230333Y-97793D01*
X-230315Y-97817D01*
X-230303Y-97844D01*
X-230229Y-97930D01*
X-230161Y-98020D01*
X-230138Y-98038D01*
X-230119Y-98060D01*
X-230052Y-98102D01*
X-229933Y-98190D01*
X-229875Y-98212D01*
X-229834Y-98238D01*
X-225414Y-100069D01*
X-222119Y-103364D01*
X-220335Y-107670D01*
X-220335Y-112330D01*
X-222119Y-116636D01*
X-225414Y-119931D01*
X-229834Y-121762D01*
X-229859Y-121777D01*
X-229887Y-121786D01*
X-229981Y-121849D01*
X-230079Y-121907D01*
X-230099Y-121928D01*
X-230123Y-121944D01*
X-230196Y-122031D01*
X-230274Y-122113D01*
X-230287Y-122139D01*
X-230306Y-122162D01*
X-230352Y-122265D01*
X-230404Y-122366D01*
X-230410Y-122395D01*
X-230422Y-122422D01*
X-230437Y-122534D01*
X-230459Y-122645D01*
X-230457Y-122674D01*
X-230461Y-122703D01*
X-230445Y-122815D01*
X-230435Y-122928D01*
X-230424Y-122955D01*
X-230420Y-122984D01*
X-230373Y-123088D01*
X-230333Y-123193D01*
X-230315Y-123217D01*
X-230303Y-123244D01*
X-230229Y-123330D01*
X-230161Y-123420D01*
X-230138Y-123438D01*
X-230119Y-123460D01*
X-230052Y-123502D01*
X-229933Y-123590D01*
X-229875Y-123612D01*
X-229834Y-123638D01*
X-225414Y-125469D01*
X-222119Y-128764D01*
X-220335Y-133070D01*
X-220335Y-137730D01*
X-222119Y-142036D01*
X-225414Y-145331D01*
X-229720Y-147115D01*
X-234380Y-147115D01*
X-238686Y-145331D01*
X-241981Y-142036D01*
X-243812Y-137616D01*
X-243827Y-137591D01*
X-243836Y-137563D01*
X-243899Y-137469D01*
X-243957Y-137371D01*
X-243978Y-137351D01*
X-243994Y-137327D01*
X-244081Y-137254D01*
X-244163Y-137176D01*
X-244189Y-137163D01*
X-244212Y-137144D01*
X-244315Y-137098D01*
X-244416Y-137046D01*
X-244445Y-137040D01*
X-244472Y-137028D01*
X-244584Y-137013D01*
X-244695Y-136991D01*
X-244724Y-136993D01*
X-244753Y-136989D01*
X-244865Y-137005D01*
X-244978Y-137015D01*
X-245005Y-137026D01*
X-245035Y-137030D01*
X-245138Y-137077D01*
X-245243Y-137117D01*
X-245267Y-137135D01*
X-245294Y-137147D01*
X-245380Y-137221D01*
X-245470Y-137289D01*
X-245488Y-137312D01*
X-245510Y-137331D01*
X-245552Y-137398D01*
X-245640Y-137517D01*
X-245662Y-137575D01*
X-245688Y-137616D01*
X-247519Y-142036D01*
X-250814Y-145331D01*
X-255120Y-147115D01*
X-259780Y-147115D01*
G37*
%LPD*%
%LPC*%
G36*
X390220Y-297115D02*
X390220Y-297115D01*
X385914Y-295331D01*
X382619Y-292036D01*
X380835Y-287730D01*
X380835Y-283070D01*
X382619Y-278764D01*
X385914Y-275469D01*
X390334Y-273638D01*
X390359Y-273623D01*
X390387Y-273614D01*
X390481Y-273551D01*
X390579Y-273493D01*
X390599Y-273472D01*
X390623Y-273456D01*
X390696Y-273369D01*
X390774Y-273287D01*
X390787Y-273261D01*
X390806Y-273238D01*
X390852Y-273135D01*
X390904Y-273034D01*
X390910Y-273005D01*
X390922Y-272978D01*
X390937Y-272866D01*
X390959Y-272755D01*
X390957Y-272726D01*
X390961Y-272697D01*
X390944Y-272585D01*
X390935Y-272472D01*
X390924Y-272445D01*
X390920Y-272416D01*
X390873Y-272312D01*
X390833Y-272207D01*
X390815Y-272183D01*
X390803Y-272156D01*
X390729Y-272070D01*
X390661Y-271980D01*
X390638Y-271962D01*
X390619Y-271940D01*
X390552Y-271898D01*
X390433Y-271810D01*
X390375Y-271788D01*
X390334Y-271762D01*
X385914Y-269931D01*
X382619Y-266636D01*
X380835Y-262330D01*
X380835Y-257670D01*
X382619Y-253364D01*
X385914Y-250069D01*
X390334Y-248238D01*
X390359Y-248223D01*
X390387Y-248214D01*
X390481Y-248151D01*
X390579Y-248093D01*
X390599Y-248072D01*
X390623Y-248056D01*
X390696Y-247969D01*
X390774Y-247887D01*
X390787Y-247861D01*
X390806Y-247838D01*
X390852Y-247735D01*
X390904Y-247634D01*
X390910Y-247605D01*
X390922Y-247578D01*
X390937Y-247466D01*
X390959Y-247355D01*
X390957Y-247326D01*
X390961Y-247297D01*
X390945Y-247185D01*
X390935Y-247072D01*
X390924Y-247045D01*
X390920Y-247015D01*
X390873Y-246912D01*
X390833Y-246807D01*
X390815Y-246783D01*
X390803Y-246756D01*
X390729Y-246670D01*
X390661Y-246580D01*
X390638Y-246562D01*
X390619Y-246540D01*
X390552Y-246498D01*
X390433Y-246410D01*
X390375Y-246388D01*
X390334Y-246362D01*
X385914Y-244531D01*
X382619Y-241236D01*
X380835Y-236930D01*
X380835Y-232270D01*
X382619Y-227964D01*
X385914Y-224669D01*
X390334Y-222838D01*
X390359Y-222823D01*
X390387Y-222814D01*
X390481Y-222751D01*
X390579Y-222693D01*
X390599Y-222672D01*
X390623Y-222656D01*
X390696Y-222569D01*
X390774Y-222487D01*
X390787Y-222461D01*
X390806Y-222438D01*
X390852Y-222335D01*
X390904Y-222234D01*
X390910Y-222205D01*
X390922Y-222178D01*
X390937Y-222066D01*
X390959Y-221955D01*
X390957Y-221926D01*
X390961Y-221897D01*
X390945Y-221785D01*
X390935Y-221672D01*
X390924Y-221645D01*
X390920Y-221616D01*
X390873Y-221512D01*
X390833Y-221407D01*
X390815Y-221383D01*
X390803Y-221356D01*
X390729Y-221270D01*
X390661Y-221180D01*
X390638Y-221162D01*
X390619Y-221140D01*
X390552Y-221098D01*
X390433Y-221010D01*
X390375Y-220988D01*
X390334Y-220962D01*
X385914Y-219131D01*
X382619Y-215836D01*
X380835Y-211530D01*
X380835Y-206870D01*
X382619Y-202564D01*
X385914Y-199269D01*
X390334Y-197438D01*
X390359Y-197423D01*
X390387Y-197414D01*
X390481Y-197351D01*
X390579Y-197293D01*
X390599Y-197272D01*
X390623Y-197256D01*
X390696Y-197169D01*
X390774Y-197087D01*
X390787Y-197061D01*
X390806Y-197038D01*
X390852Y-196935D01*
X390904Y-196834D01*
X390910Y-196805D01*
X390922Y-196778D01*
X390937Y-196666D01*
X390959Y-196555D01*
X390957Y-196526D01*
X390961Y-196497D01*
X390945Y-196385D01*
X390935Y-196272D01*
X390924Y-196245D01*
X390920Y-196216D01*
X390873Y-196112D01*
X390833Y-196007D01*
X390815Y-195983D01*
X390803Y-195956D01*
X390729Y-195870D01*
X390661Y-195780D01*
X390638Y-195762D01*
X390619Y-195740D01*
X390552Y-195698D01*
X390433Y-195610D01*
X390375Y-195588D01*
X390334Y-195562D01*
X385914Y-193731D01*
X382619Y-190436D01*
X380835Y-186130D01*
X380835Y-181470D01*
X382619Y-177164D01*
X385914Y-173869D01*
X390334Y-172038D01*
X390359Y-172023D01*
X390387Y-172014D01*
X390481Y-171951D01*
X390579Y-171893D01*
X390599Y-171872D01*
X390623Y-171856D01*
X390696Y-171769D01*
X390774Y-171687D01*
X390787Y-171661D01*
X390806Y-171638D01*
X390852Y-171535D01*
X390904Y-171434D01*
X390910Y-171405D01*
X390922Y-171378D01*
X390937Y-171266D01*
X390959Y-171155D01*
X390957Y-171126D01*
X390961Y-171097D01*
X390945Y-170985D01*
X390935Y-170872D01*
X390924Y-170845D01*
X390920Y-170816D01*
X390873Y-170712D01*
X390833Y-170607D01*
X390815Y-170583D01*
X390803Y-170556D01*
X390729Y-170470D01*
X390661Y-170380D01*
X390638Y-170362D01*
X390619Y-170340D01*
X390552Y-170298D01*
X390433Y-170210D01*
X390375Y-170188D01*
X390334Y-170162D01*
X385914Y-168331D01*
X382619Y-165036D01*
X380835Y-160730D01*
X380835Y-156070D01*
X382619Y-151764D01*
X385914Y-148469D01*
X390334Y-146638D01*
X390359Y-146623D01*
X390387Y-146614D01*
X390481Y-146551D01*
X390579Y-146493D01*
X390599Y-146472D01*
X390623Y-146456D01*
X390696Y-146369D01*
X390774Y-146287D01*
X390787Y-146261D01*
X390806Y-146238D01*
X390852Y-146135D01*
X390904Y-146034D01*
X390910Y-146005D01*
X390922Y-145978D01*
X390937Y-145866D01*
X390959Y-145755D01*
X390957Y-145726D01*
X390961Y-145697D01*
X390945Y-145585D01*
X390935Y-145472D01*
X390924Y-145445D01*
X390920Y-145416D01*
X390873Y-145312D01*
X390833Y-145207D01*
X390815Y-145183D01*
X390803Y-145156D01*
X390729Y-145070D01*
X390661Y-144980D01*
X390638Y-144962D01*
X390619Y-144940D01*
X390552Y-144898D01*
X390433Y-144810D01*
X390375Y-144788D01*
X390334Y-144762D01*
X385914Y-142931D01*
X382619Y-139636D01*
X380835Y-135330D01*
X380835Y-130670D01*
X382619Y-126364D01*
X385914Y-123069D01*
X390334Y-121238D01*
X390359Y-121223D01*
X390387Y-121214D01*
X390481Y-121151D01*
X390579Y-121093D01*
X390599Y-121072D01*
X390623Y-121056D01*
X390696Y-120969D01*
X390774Y-120887D01*
X390787Y-120861D01*
X390806Y-120838D01*
X390852Y-120735D01*
X390904Y-120634D01*
X390910Y-120605D01*
X390922Y-120578D01*
X390937Y-120466D01*
X390959Y-120355D01*
X390957Y-120326D01*
X390961Y-120297D01*
X390945Y-120185D01*
X390935Y-120072D01*
X390924Y-120045D01*
X390920Y-120016D01*
X390873Y-119912D01*
X390833Y-119807D01*
X390815Y-119783D01*
X390803Y-119756D01*
X390729Y-119670D01*
X390661Y-119580D01*
X390638Y-119562D01*
X390619Y-119540D01*
X390552Y-119498D01*
X390433Y-119410D01*
X390375Y-119388D01*
X390334Y-119362D01*
X385914Y-117531D01*
X382619Y-114236D01*
X380835Y-109930D01*
X380835Y-105270D01*
X382619Y-100964D01*
X385914Y-97669D01*
X390334Y-95838D01*
X390359Y-95823D01*
X390387Y-95814D01*
X390481Y-95751D01*
X390579Y-95693D01*
X390599Y-95672D01*
X390623Y-95656D01*
X390696Y-95569D01*
X390774Y-95487D01*
X390787Y-95461D01*
X390806Y-95438D01*
X390852Y-95335D01*
X390904Y-95234D01*
X390910Y-95205D01*
X390922Y-95178D01*
X390937Y-95066D01*
X390959Y-94955D01*
X390957Y-94926D01*
X390961Y-94897D01*
X390945Y-94785D01*
X390935Y-94672D01*
X390924Y-94645D01*
X390920Y-94616D01*
X390873Y-94512D01*
X390833Y-94407D01*
X390815Y-94383D01*
X390803Y-94356D01*
X390729Y-94270D01*
X390661Y-94180D01*
X390638Y-94162D01*
X390619Y-94140D01*
X390552Y-94098D01*
X390433Y-94010D01*
X390375Y-93988D01*
X390334Y-93962D01*
X385914Y-92131D01*
X382619Y-88836D01*
X380835Y-84530D01*
X380835Y-79870D01*
X382619Y-75564D01*
X385914Y-72269D01*
X390334Y-70438D01*
X390359Y-70423D01*
X390387Y-70414D01*
X390481Y-70351D01*
X390579Y-70293D01*
X390599Y-70272D01*
X390623Y-70256D01*
X390696Y-70169D01*
X390774Y-70087D01*
X390787Y-70061D01*
X390806Y-70038D01*
X390852Y-69935D01*
X390904Y-69834D01*
X390910Y-69805D01*
X390922Y-69778D01*
X390937Y-69666D01*
X390959Y-69555D01*
X390957Y-69526D01*
X390961Y-69497D01*
X390945Y-69385D01*
X390935Y-69272D01*
X390924Y-69245D01*
X390920Y-69216D01*
X390873Y-69112D01*
X390833Y-69007D01*
X390815Y-68983D01*
X390803Y-68956D01*
X390729Y-68870D01*
X390661Y-68780D01*
X390638Y-68762D01*
X390619Y-68740D01*
X390552Y-68698D01*
X390433Y-68610D01*
X390375Y-68588D01*
X390334Y-68562D01*
X385914Y-66731D01*
X382619Y-63436D01*
X380835Y-59130D01*
X380835Y-54470D01*
X382619Y-50164D01*
X385914Y-46869D01*
X390220Y-45085D01*
X394880Y-45085D01*
X399186Y-46869D01*
X402481Y-50164D01*
X404312Y-54584D01*
X404327Y-54609D01*
X404336Y-54637D01*
X404399Y-54731D01*
X404457Y-54829D01*
X404478Y-54849D01*
X404494Y-54873D01*
X404581Y-54946D01*
X404663Y-55024D01*
X404689Y-55037D01*
X404712Y-55056D01*
X404815Y-55102D01*
X404916Y-55154D01*
X404945Y-55160D01*
X404972Y-55172D01*
X405084Y-55187D01*
X405195Y-55209D01*
X405224Y-55207D01*
X405253Y-55211D01*
X405365Y-55195D01*
X405478Y-55185D01*
X405505Y-55174D01*
X405535Y-55170D01*
X405638Y-55123D01*
X405743Y-55083D01*
X405767Y-55065D01*
X405794Y-55053D01*
X405880Y-54979D01*
X405970Y-54911D01*
X405988Y-54888D01*
X406010Y-54869D01*
X406052Y-54802D01*
X406140Y-54683D01*
X406162Y-54625D01*
X406188Y-54584D01*
X408019Y-50164D01*
X411314Y-46869D01*
X415620Y-45085D01*
X420280Y-45085D01*
X424586Y-46869D01*
X427881Y-50164D01*
X429665Y-54470D01*
X429665Y-59130D01*
X427881Y-63436D01*
X424586Y-66731D01*
X420166Y-68562D01*
X420141Y-68577D01*
X420113Y-68586D01*
X420019Y-68649D01*
X419921Y-68707D01*
X419901Y-68728D01*
X419877Y-68744D01*
X419804Y-68831D01*
X419726Y-68913D01*
X419713Y-68939D01*
X419694Y-68962D01*
X419648Y-69065D01*
X419596Y-69166D01*
X419590Y-69195D01*
X419578Y-69222D01*
X419563Y-69334D01*
X419541Y-69445D01*
X419543Y-69474D01*
X419539Y-69503D01*
X419555Y-69615D01*
X419565Y-69728D01*
X419576Y-69755D01*
X419580Y-69785D01*
X419627Y-69888D01*
X419667Y-69993D01*
X419685Y-70017D01*
X419697Y-70044D01*
X419771Y-70130D01*
X419839Y-70220D01*
X419862Y-70238D01*
X419881Y-70260D01*
X419948Y-70302D01*
X420067Y-70390D01*
X420125Y-70412D01*
X420166Y-70438D01*
X424586Y-72269D01*
X427881Y-75564D01*
X429665Y-79870D01*
X429665Y-84530D01*
X427881Y-88836D01*
X424586Y-92131D01*
X420166Y-93962D01*
X420141Y-93977D01*
X420113Y-93986D01*
X420019Y-94049D01*
X419921Y-94107D01*
X419901Y-94128D01*
X419877Y-94144D01*
X419804Y-94231D01*
X419726Y-94313D01*
X419713Y-94339D01*
X419694Y-94362D01*
X419648Y-94465D01*
X419596Y-94566D01*
X419590Y-94595D01*
X419578Y-94622D01*
X419563Y-94734D01*
X419541Y-94845D01*
X419543Y-94874D01*
X419539Y-94903D01*
X419555Y-95015D01*
X419565Y-95128D01*
X419576Y-95155D01*
X419580Y-95185D01*
X419627Y-95288D01*
X419667Y-95393D01*
X419685Y-95417D01*
X419697Y-95444D01*
X419771Y-95530D01*
X419839Y-95620D01*
X419862Y-95638D01*
X419881Y-95660D01*
X419948Y-95702D01*
X420067Y-95790D01*
X420125Y-95812D01*
X420166Y-95838D01*
X424586Y-97669D01*
X427881Y-100964D01*
X429665Y-105270D01*
X429665Y-109930D01*
X427881Y-114236D01*
X424586Y-117531D01*
X420280Y-119315D01*
X415620Y-119315D01*
X411314Y-117531D01*
X408019Y-114236D01*
X406188Y-109816D01*
X406173Y-109791D01*
X406164Y-109763D01*
X406101Y-109669D01*
X406043Y-109571D01*
X406022Y-109551D01*
X406006Y-109527D01*
X405919Y-109454D01*
X405837Y-109376D01*
X405811Y-109363D01*
X405788Y-109344D01*
X405685Y-109298D01*
X405584Y-109246D01*
X405555Y-109240D01*
X405528Y-109228D01*
X405416Y-109213D01*
X405305Y-109191D01*
X405276Y-109193D01*
X405247Y-109189D01*
X405135Y-109205D01*
X405022Y-109215D01*
X404995Y-109226D01*
X404966Y-109230D01*
X404862Y-109277D01*
X404757Y-109317D01*
X404733Y-109335D01*
X404706Y-109347D01*
X404620Y-109421D01*
X404530Y-109489D01*
X404512Y-109512D01*
X404490Y-109531D01*
X404448Y-109598D01*
X404360Y-109717D01*
X404338Y-109775D01*
X404312Y-109816D01*
X402481Y-114236D01*
X399186Y-117531D01*
X394766Y-119362D01*
X394741Y-119377D01*
X394713Y-119386D01*
X394619Y-119449D01*
X394521Y-119507D01*
X394501Y-119528D01*
X394477Y-119544D01*
X394404Y-119631D01*
X394326Y-119713D01*
X394313Y-119739D01*
X394294Y-119762D01*
X394248Y-119865D01*
X394196Y-119966D01*
X394190Y-119995D01*
X394178Y-120022D01*
X394163Y-120134D01*
X394141Y-120245D01*
X394143Y-120274D01*
X394139Y-120303D01*
X394155Y-120415D01*
X394165Y-120528D01*
X394176Y-120555D01*
X394180Y-120585D01*
X394227Y-120688D01*
X394267Y-120793D01*
X394285Y-120817D01*
X394297Y-120844D01*
X394371Y-120930D01*
X394439Y-121020D01*
X394462Y-121038D01*
X394481Y-121060D01*
X394548Y-121102D01*
X394667Y-121190D01*
X394725Y-121212D01*
X394766Y-121238D01*
X399186Y-123069D01*
X402481Y-126364D01*
X404265Y-130670D01*
X404265Y-135330D01*
X402481Y-139636D01*
X399186Y-142931D01*
X394766Y-144762D01*
X394741Y-144777D01*
X394713Y-144786D01*
X394619Y-144849D01*
X394521Y-144907D01*
X394501Y-144928D01*
X394477Y-144944D01*
X394404Y-145031D01*
X394326Y-145113D01*
X394313Y-145139D01*
X394294Y-145162D01*
X394248Y-145265D01*
X394196Y-145366D01*
X394190Y-145395D01*
X394178Y-145422D01*
X394163Y-145534D01*
X394141Y-145645D01*
X394143Y-145674D01*
X394139Y-145703D01*
X394155Y-145815D01*
X394165Y-145928D01*
X394176Y-145955D01*
X394180Y-145985D01*
X394227Y-146088D01*
X394267Y-146193D01*
X394285Y-146217D01*
X394297Y-146244D01*
X394371Y-146330D01*
X394439Y-146420D01*
X394462Y-146438D01*
X394481Y-146460D01*
X394548Y-146502D01*
X394667Y-146590D01*
X394725Y-146612D01*
X394766Y-146638D01*
X399186Y-148469D01*
X402481Y-151764D01*
X404312Y-156184D01*
X404327Y-156209D01*
X404336Y-156237D01*
X404399Y-156331D01*
X404457Y-156429D01*
X404478Y-156449D01*
X404494Y-156473D01*
X404581Y-156546D01*
X404663Y-156624D01*
X404689Y-156637D01*
X404712Y-156656D01*
X404815Y-156702D01*
X404916Y-156754D01*
X404945Y-156760D01*
X404972Y-156772D01*
X405084Y-156787D01*
X405195Y-156809D01*
X405224Y-156807D01*
X405253Y-156811D01*
X405365Y-156795D01*
X405478Y-156785D01*
X405505Y-156774D01*
X405535Y-156770D01*
X405638Y-156723D01*
X405743Y-156683D01*
X405767Y-156665D01*
X405794Y-156653D01*
X405880Y-156579D01*
X405970Y-156511D01*
X405988Y-156488D01*
X406010Y-156469D01*
X406052Y-156402D01*
X406140Y-156283D01*
X406162Y-156225D01*
X406188Y-156184D01*
X408019Y-151764D01*
X411314Y-148469D01*
X415620Y-146685D01*
X420280Y-146685D01*
X424586Y-148469D01*
X427881Y-151764D01*
X429665Y-156070D01*
X429665Y-160730D01*
X427881Y-165036D01*
X424586Y-168331D01*
X420166Y-170162D01*
X420141Y-170177D01*
X420113Y-170186D01*
X420019Y-170249D01*
X419921Y-170307D01*
X419901Y-170328D01*
X419877Y-170344D01*
X419804Y-170431D01*
X419726Y-170513D01*
X419713Y-170539D01*
X419694Y-170562D01*
X419648Y-170665D01*
X419596Y-170766D01*
X419590Y-170795D01*
X419578Y-170822D01*
X419563Y-170934D01*
X419541Y-171045D01*
X419543Y-171074D01*
X419539Y-171103D01*
X419555Y-171215D01*
X419565Y-171328D01*
X419576Y-171355D01*
X419580Y-171385D01*
X419627Y-171488D01*
X419667Y-171593D01*
X419685Y-171617D01*
X419697Y-171644D01*
X419771Y-171730D01*
X419839Y-171820D01*
X419862Y-171838D01*
X419881Y-171860D01*
X419948Y-171902D01*
X420067Y-171990D01*
X420125Y-172012D01*
X420166Y-172038D01*
X424586Y-173869D01*
X427881Y-177164D01*
X429665Y-181470D01*
X429665Y-186130D01*
X427881Y-190436D01*
X424586Y-193731D01*
X420280Y-195515D01*
X415620Y-195515D01*
X411314Y-193731D01*
X408019Y-190436D01*
X406188Y-186016D01*
X406173Y-185991D01*
X406164Y-185963D01*
X406101Y-185869D01*
X406043Y-185771D01*
X406022Y-185751D01*
X406006Y-185727D01*
X405919Y-185654D01*
X405837Y-185576D01*
X405811Y-185563D01*
X405788Y-185544D01*
X405685Y-185498D01*
X405584Y-185446D01*
X405555Y-185440D01*
X405528Y-185428D01*
X405416Y-185413D01*
X405305Y-185391D01*
X405276Y-185393D01*
X405247Y-185389D01*
X405135Y-185405D01*
X405022Y-185415D01*
X404995Y-185426D01*
X404966Y-185430D01*
X404862Y-185477D01*
X404757Y-185517D01*
X404733Y-185535D01*
X404706Y-185547D01*
X404620Y-185621D01*
X404530Y-185689D01*
X404512Y-185712D01*
X404490Y-185731D01*
X404448Y-185798D01*
X404360Y-185917D01*
X404338Y-185975D01*
X404312Y-186016D01*
X402481Y-190436D01*
X399186Y-193731D01*
X394766Y-195562D01*
X394741Y-195577D01*
X394713Y-195586D01*
X394619Y-195649D01*
X394521Y-195707D01*
X394501Y-195728D01*
X394477Y-195744D01*
X394404Y-195831D01*
X394326Y-195913D01*
X394313Y-195939D01*
X394294Y-195962D01*
X394248Y-196065D01*
X394196Y-196166D01*
X394190Y-196195D01*
X394178Y-196222D01*
X394163Y-196334D01*
X394141Y-196445D01*
X394143Y-196474D01*
X394139Y-196503D01*
X394155Y-196615D01*
X394165Y-196728D01*
X394176Y-196755D01*
X394180Y-196785D01*
X394227Y-196888D01*
X394267Y-196993D01*
X394285Y-197017D01*
X394297Y-197044D01*
X394371Y-197130D01*
X394439Y-197220D01*
X394462Y-197238D01*
X394481Y-197260D01*
X394548Y-197302D01*
X394667Y-197390D01*
X394725Y-197412D01*
X394766Y-197438D01*
X399186Y-199269D01*
X402481Y-202564D01*
X404265Y-206870D01*
X404265Y-211530D01*
X402481Y-215836D01*
X399186Y-219131D01*
X394766Y-220962D01*
X394741Y-220977D01*
X394713Y-220986D01*
X394619Y-221049D01*
X394521Y-221107D01*
X394501Y-221128D01*
X394477Y-221144D01*
X394404Y-221231D01*
X394326Y-221313D01*
X394313Y-221339D01*
X394294Y-221362D01*
X394248Y-221465D01*
X394196Y-221566D01*
X394190Y-221595D01*
X394178Y-221622D01*
X394163Y-221734D01*
X394141Y-221845D01*
X394143Y-221874D01*
X394139Y-221903D01*
X394155Y-222015D01*
X394165Y-222128D01*
X394176Y-222155D01*
X394180Y-222185D01*
X394227Y-222288D01*
X394267Y-222393D01*
X394285Y-222417D01*
X394297Y-222444D01*
X394371Y-222530D01*
X394439Y-222620D01*
X394462Y-222638D01*
X394481Y-222660D01*
X394548Y-222702D01*
X394667Y-222790D01*
X394725Y-222812D01*
X394766Y-222838D01*
X399186Y-224669D01*
X402481Y-227964D01*
X404265Y-232270D01*
X404265Y-236930D01*
X402481Y-241236D01*
X399186Y-244531D01*
X394766Y-246362D01*
X394741Y-246377D01*
X394713Y-246386D01*
X394619Y-246449D01*
X394521Y-246507D01*
X394501Y-246528D01*
X394477Y-246544D01*
X394404Y-246631D01*
X394326Y-246713D01*
X394313Y-246739D01*
X394294Y-246762D01*
X394248Y-246865D01*
X394196Y-246966D01*
X394190Y-246995D01*
X394178Y-247022D01*
X394163Y-247134D01*
X394141Y-247245D01*
X394143Y-247274D01*
X394139Y-247303D01*
X394155Y-247415D01*
X394165Y-247528D01*
X394176Y-247555D01*
X394180Y-247584D01*
X394227Y-247688D01*
X394267Y-247793D01*
X394285Y-247817D01*
X394297Y-247844D01*
X394371Y-247930D01*
X394439Y-248020D01*
X394462Y-248038D01*
X394481Y-248060D01*
X394548Y-248102D01*
X394667Y-248190D01*
X394725Y-248212D01*
X394766Y-248238D01*
X399186Y-250069D01*
X402481Y-253364D01*
X404312Y-257784D01*
X404327Y-257809D01*
X404336Y-257837D01*
X404399Y-257931D01*
X404457Y-258029D01*
X404478Y-258049D01*
X404494Y-258073D01*
X404581Y-258146D01*
X404663Y-258224D01*
X404689Y-258237D01*
X404712Y-258256D01*
X404815Y-258302D01*
X404916Y-258354D01*
X404945Y-258360D01*
X404972Y-258372D01*
X405084Y-258387D01*
X405195Y-258409D01*
X405224Y-258407D01*
X405253Y-258411D01*
X405365Y-258394D01*
X405478Y-258385D01*
X405505Y-258374D01*
X405535Y-258370D01*
X405638Y-258323D01*
X405743Y-258283D01*
X405767Y-258265D01*
X405794Y-258253D01*
X405880Y-258180D01*
X405970Y-258111D01*
X405988Y-258088D01*
X406010Y-258069D01*
X406052Y-258002D01*
X406140Y-257883D01*
X406162Y-257825D01*
X406188Y-257784D01*
X408019Y-253364D01*
X411314Y-250069D01*
X415620Y-248285D01*
X420280Y-248285D01*
X424586Y-250069D01*
X427881Y-253364D01*
X429665Y-257670D01*
X429665Y-262330D01*
X427881Y-266636D01*
X424586Y-269931D01*
X420166Y-271762D01*
X420141Y-271777D01*
X420113Y-271786D01*
X420019Y-271849D01*
X419921Y-271907D01*
X419901Y-271928D01*
X419877Y-271944D01*
X419804Y-272031D01*
X419726Y-272113D01*
X419713Y-272139D01*
X419694Y-272162D01*
X419648Y-272265D01*
X419596Y-272366D01*
X419590Y-272395D01*
X419578Y-272422D01*
X419563Y-272534D01*
X419541Y-272645D01*
X419543Y-272674D01*
X419539Y-272703D01*
X419556Y-272815D01*
X419565Y-272928D01*
X419576Y-272955D01*
X419580Y-272985D01*
X419627Y-273088D01*
X419667Y-273193D01*
X419685Y-273217D01*
X419697Y-273244D01*
X419770Y-273330D01*
X419839Y-273420D01*
X419862Y-273438D01*
X419881Y-273460D01*
X419948Y-273502D01*
X420067Y-273590D01*
X420125Y-273612D01*
X420166Y-273638D01*
X424586Y-275469D01*
X427881Y-278764D01*
X429665Y-283070D01*
X429665Y-287730D01*
X427881Y-292036D01*
X424586Y-295331D01*
X420280Y-297115D01*
X415620Y-297115D01*
X411314Y-295331D01*
X408019Y-292036D01*
X406188Y-287616D01*
X406173Y-287591D01*
X406164Y-287563D01*
X406101Y-287469D01*
X406043Y-287371D01*
X406022Y-287351D01*
X406006Y-287327D01*
X405919Y-287254D01*
X405837Y-287176D01*
X405811Y-287163D01*
X405788Y-287144D01*
X405685Y-287098D01*
X405584Y-287046D01*
X405555Y-287040D01*
X405528Y-287028D01*
X405416Y-287013D01*
X405305Y-286991D01*
X405276Y-286993D01*
X405247Y-286989D01*
X405135Y-287006D01*
X405022Y-287015D01*
X404995Y-287026D01*
X404966Y-287030D01*
X404862Y-287077D01*
X404757Y-287117D01*
X404733Y-287135D01*
X404706Y-287147D01*
X404620Y-287221D01*
X404530Y-287289D01*
X404512Y-287312D01*
X404490Y-287331D01*
X404448Y-287398D01*
X404360Y-287517D01*
X404340Y-287568D01*
X404322Y-287595D01*
X404319Y-287604D01*
X404312Y-287616D01*
X402481Y-292036D01*
X399186Y-295331D01*
X394880Y-297115D01*
X390220Y-297115D01*
G37*
%LPD*%
%LPC*%
G36*
X395493Y-27661D02*
X395493Y-27661D01*
X387164Y-24211D01*
X380789Y-17836D01*
X377339Y-9507D01*
X377339Y-493D01*
X380789Y7836D01*
X387164Y14211D01*
X395493Y17661D01*
X404507Y17661D01*
X412836Y14211D01*
X419211Y7836D01*
X422661Y-493D01*
X422661Y-9507D01*
X419211Y-17836D01*
X412836Y-24211D01*
X404507Y-27661D01*
X395493Y-27661D01*
G37*
%LPD*%
%LPC*%
G36*
X16957Y364475D02*
X16957Y364475D01*
X13088Y366078D01*
X10128Y369038D01*
X8525Y372907D01*
X8525Y377093D01*
X10128Y380962D01*
X13088Y383922D01*
X16957Y385525D01*
X21143Y385525D01*
X25012Y383922D01*
X27972Y380962D01*
X29575Y377093D01*
X29575Y372907D01*
X27972Y369038D01*
X25012Y366078D01*
X21143Y364475D01*
X16957Y364475D01*
G37*
%LPD*%
%LPC*%
G36*
X-97343Y364475D02*
X-97343Y364475D01*
X-101212Y366078D01*
X-104172Y369038D01*
X-105775Y372907D01*
X-105775Y377093D01*
X-104172Y380962D01*
X-101212Y383922D01*
X-97343Y385525D01*
X-93157Y385525D01*
X-89288Y383922D01*
X-86328Y380962D01*
X-84725Y377093D01*
X-84725Y372907D01*
X-86328Y369038D01*
X-89288Y366078D01*
X-93157Y364475D01*
X-97343Y364475D01*
G37*
%LPD*%
%LPC*%
G36*
X93157Y364475D02*
X93157Y364475D01*
X89288Y366078D01*
X86328Y369038D01*
X84725Y372907D01*
X84725Y377093D01*
X86328Y380962D01*
X89288Y383922D01*
X93157Y385525D01*
X97343Y385525D01*
X101212Y383922D01*
X104172Y380962D01*
X105775Y377093D01*
X105775Y372907D01*
X104172Y369038D01*
X101212Y366078D01*
X97343Y364475D01*
X93157Y364475D01*
G37*
%LPD*%
%LPC*%
G36*
X55057Y364475D02*
X55057Y364475D01*
X51188Y366078D01*
X48228Y369038D01*
X46625Y372907D01*
X46625Y377093D01*
X48228Y380962D01*
X51188Y383922D01*
X55057Y385525D01*
X59243Y385525D01*
X63112Y383922D01*
X66072Y380962D01*
X67675Y377093D01*
X67675Y372907D01*
X66072Y369038D01*
X63112Y366078D01*
X59243Y364475D01*
X55057Y364475D01*
G37*
%LPD*%
%LPC*%
G36*
X131257Y364475D02*
X131257Y364475D01*
X127388Y366078D01*
X124428Y369038D01*
X122825Y372907D01*
X122825Y377093D01*
X124428Y380962D01*
X127388Y383922D01*
X131257Y385525D01*
X135443Y385525D01*
X139312Y383922D01*
X142272Y380962D01*
X143875Y377093D01*
X143875Y372907D01*
X142272Y369038D01*
X139312Y366078D01*
X135443Y364475D01*
X131257Y364475D01*
G37*
%LPD*%
%LPC*%
G36*
X-21143Y364475D02*
X-21143Y364475D01*
X-25012Y366078D01*
X-27972Y369038D01*
X-29575Y372907D01*
X-29575Y377093D01*
X-27972Y380962D01*
X-25012Y383922D01*
X-21143Y385525D01*
X-16957Y385525D01*
X-13088Y383922D01*
X-10128Y380962D01*
X-8525Y377093D01*
X-8525Y372907D01*
X-10128Y369038D01*
X-13088Y366078D01*
X-16957Y364475D01*
X-21143Y364475D01*
G37*
%LPD*%
%LPC*%
G36*
X-59243Y364475D02*
X-59243Y364475D01*
X-63112Y366078D01*
X-66072Y369038D01*
X-67675Y372907D01*
X-67675Y377093D01*
X-66072Y380962D01*
X-63112Y383922D01*
X-59243Y385525D01*
X-55057Y385525D01*
X-51188Y383922D01*
X-48228Y380962D01*
X-46625Y377093D01*
X-46625Y372907D01*
X-48228Y369038D01*
X-51188Y366078D01*
X-55057Y364475D01*
X-59243Y364475D01*
G37*
%LPD*%
%LPC*%
G36*
X-135443Y364475D02*
X-135443Y364475D01*
X-139312Y366078D01*
X-142272Y369038D01*
X-143875Y372907D01*
X-143875Y377093D01*
X-142272Y380962D01*
X-139312Y383922D01*
X-135443Y385525D01*
X-131257Y385525D01*
X-127388Y383922D01*
X-124428Y380962D01*
X-122825Y377093D01*
X-122825Y372907D01*
X-124428Y369038D01*
X-127388Y366078D01*
X-131257Y364475D01*
X-135443Y364475D01*
G37*
%LPD*%
%LPC*%
G36*
X-51856Y-259307D02*
X-51856Y-259307D01*
X-53806Y-258499D01*
X-55299Y-257006D01*
X-55878Y-255608D01*
X-55927Y-255520D01*
X-55967Y-255428D01*
X-56011Y-255368D01*
X-56047Y-255303D01*
X-56115Y-255229D01*
X-56175Y-255148D01*
X-56231Y-255100D01*
X-56281Y-255045D01*
X-56364Y-254988D01*
X-56441Y-254923D01*
X-56507Y-254889D01*
X-56568Y-254847D01*
X-56661Y-254810D01*
X-56751Y-254764D01*
X-56823Y-254746D01*
X-56892Y-254719D01*
X-56992Y-254704D01*
X-57089Y-254680D01*
X-57163Y-254679D01*
X-57237Y-254668D01*
X-57337Y-254677D01*
X-57438Y-254675D01*
X-57510Y-254691D01*
X-57584Y-254697D01*
X-57680Y-254728D01*
X-57778Y-254749D01*
X-57845Y-254781D01*
X-57916Y-254804D01*
X-58002Y-254856D01*
X-58093Y-254899D01*
X-58151Y-254945D01*
X-58215Y-254984D01*
X-58287Y-255054D01*
X-58365Y-255116D01*
X-58411Y-255175D01*
X-58465Y-255227D01*
X-58519Y-255311D01*
X-58581Y-255390D01*
X-58627Y-255479D01*
X-58653Y-255520D01*
X-58665Y-255554D01*
X-58693Y-255608D01*
X-59213Y-256864D01*
X-60636Y-258287D01*
X-62494Y-259057D01*
X-64506Y-259057D01*
X-66364Y-258287D01*
X-67787Y-256864D01*
X-68557Y-255006D01*
X-68557Y-252994D01*
X-67787Y-251136D01*
X-66364Y-249713D01*
X-65108Y-249193D01*
X-65020Y-249144D01*
X-64928Y-249104D01*
X-64868Y-249059D01*
X-64803Y-249023D01*
X-64729Y-248956D01*
X-64648Y-248896D01*
X-64600Y-248839D01*
X-64545Y-248789D01*
X-64488Y-248706D01*
X-64423Y-248630D01*
X-64389Y-248564D01*
X-64347Y-248502D01*
X-64310Y-248409D01*
X-64264Y-248320D01*
X-64246Y-248247D01*
X-64219Y-248178D01*
X-64204Y-248079D01*
X-64180Y-247981D01*
X-64179Y-247907D01*
X-64168Y-247833D01*
X-64177Y-247733D01*
X-64175Y-247633D01*
X-64191Y-247560D01*
X-64197Y-247486D01*
X-64228Y-247390D01*
X-64249Y-247292D01*
X-64281Y-247225D01*
X-64304Y-247154D01*
X-64356Y-247068D01*
X-64399Y-246978D01*
X-64445Y-246920D01*
X-64484Y-246856D01*
X-64554Y-246784D01*
X-64616Y-246705D01*
X-64675Y-246659D01*
X-64727Y-246606D01*
X-64811Y-246552D01*
X-64890Y-246489D01*
X-64979Y-246444D01*
X-65020Y-246418D01*
X-65054Y-246406D01*
X-65108Y-246378D01*
X-66506Y-245799D01*
X-67999Y-244306D01*
X-68807Y-242356D01*
X-68807Y-240244D01*
X-67999Y-238294D01*
X-66506Y-236801D01*
X-64556Y-235993D01*
X-62444Y-235993D01*
X-60494Y-236801D01*
X-59001Y-238294D01*
X-58193Y-240244D01*
X-58193Y-242356D01*
X-59001Y-244306D01*
X-60494Y-245799D01*
X-61892Y-246378D01*
X-61980Y-246427D01*
X-62072Y-246467D01*
X-62132Y-246511D01*
X-62197Y-246547D01*
X-62271Y-246615D01*
X-62352Y-246675D01*
X-62400Y-246731D01*
X-62455Y-246781D01*
X-62512Y-246864D01*
X-62577Y-246941D01*
X-62611Y-247007D01*
X-62653Y-247068D01*
X-62690Y-247161D01*
X-62736Y-247251D01*
X-62754Y-247323D01*
X-62781Y-247392D01*
X-62796Y-247492D01*
X-62820Y-247589D01*
X-62821Y-247663D01*
X-62832Y-247737D01*
X-62823Y-247837D01*
X-62825Y-247938D01*
X-62809Y-248010D01*
X-62803Y-248084D01*
X-62772Y-248180D01*
X-62751Y-248278D01*
X-62719Y-248345D01*
X-62696Y-248416D01*
X-62644Y-248502D01*
X-62601Y-248593D01*
X-62555Y-248651D01*
X-62516Y-248715D01*
X-62446Y-248787D01*
X-62384Y-248865D01*
X-62325Y-248911D01*
X-62273Y-248965D01*
X-62189Y-249019D01*
X-62110Y-249081D01*
X-62021Y-249127D01*
X-61980Y-249153D01*
X-61946Y-249165D01*
X-61892Y-249193D01*
X-60636Y-249713D01*
X-59213Y-251136D01*
X-58693Y-252392D01*
X-58644Y-252480D01*
X-58604Y-252572D01*
X-58559Y-252632D01*
X-58523Y-252697D01*
X-58456Y-252771D01*
X-58396Y-252852D01*
X-58339Y-252900D01*
X-58289Y-252955D01*
X-58206Y-253012D01*
X-58130Y-253077D01*
X-58064Y-253111D01*
X-58002Y-253153D01*
X-57909Y-253190D01*
X-57820Y-253236D01*
X-57747Y-253254D01*
X-57678Y-253281D01*
X-57579Y-253296D01*
X-57481Y-253320D01*
X-57407Y-253321D01*
X-57333Y-253332D01*
X-57233Y-253323D01*
X-57133Y-253325D01*
X-57060Y-253309D01*
X-56986Y-253303D01*
X-56890Y-253272D01*
X-56792Y-253251D01*
X-56725Y-253219D01*
X-56654Y-253196D01*
X-56568Y-253144D01*
X-56478Y-253101D01*
X-56420Y-253055D01*
X-56356Y-253016D01*
X-56284Y-252946D01*
X-56205Y-252884D01*
X-56159Y-252825D01*
X-56106Y-252773D01*
X-56052Y-252689D01*
X-55989Y-252610D01*
X-55944Y-252521D01*
X-55918Y-252480D01*
X-55906Y-252446D01*
X-55878Y-252392D01*
X-55299Y-250994D01*
X-53806Y-249501D01*
X-51856Y-248693D01*
X-49744Y-248693D01*
X-47794Y-249501D01*
X-46301Y-250994D01*
X-45493Y-252944D01*
X-45493Y-255056D01*
X-46301Y-257006D01*
X-47794Y-258499D01*
X-49744Y-259307D01*
X-51856Y-259307D01*
G37*
%LPD*%
%LPC*%
G36*
X23575Y67025D02*
X23575Y67025D01*
X20203Y68422D01*
X17622Y71003D01*
X16225Y74375D01*
X16225Y78025D01*
X17622Y81397D01*
X20203Y83978D01*
X23575Y85375D01*
X27225Y85375D01*
X30597Y83978D01*
X33178Y81397D01*
X34575Y78025D01*
X34575Y74375D01*
X33178Y71003D01*
X30597Y68422D01*
X27225Y67025D01*
X23575Y67025D01*
G37*
%LPD*%
%LPC*%
G36*
X-27225Y67025D02*
X-27225Y67025D01*
X-30597Y68422D01*
X-33178Y71003D01*
X-34575Y74375D01*
X-34575Y78025D01*
X-33178Y81397D01*
X-30597Y83978D01*
X-27225Y85375D01*
X-23575Y85375D01*
X-20203Y83978D01*
X-17622Y81397D01*
X-16225Y78025D01*
X-16225Y74375D01*
X-17622Y71003D01*
X-20203Y68422D01*
X-23575Y67025D01*
X-27225Y67025D01*
G37*
%LPD*%
%LPC*%
G36*
X-90725Y67025D02*
X-90725Y67025D01*
X-94097Y68422D01*
X-96678Y71003D01*
X-98075Y74375D01*
X-98075Y78025D01*
X-96678Y81397D01*
X-94097Y83978D01*
X-90725Y85375D01*
X-87075Y85375D01*
X-83703Y83978D01*
X-81122Y81397D01*
X-79725Y78025D01*
X-79725Y74375D01*
X-81122Y71003D01*
X-83703Y68422D01*
X-87075Y67025D01*
X-90725Y67025D01*
G37*
%LPD*%
%LPC*%
G36*
X-65325Y67025D02*
X-65325Y67025D01*
X-68697Y68422D01*
X-71278Y71003D01*
X-72675Y74375D01*
X-72675Y78025D01*
X-71278Y81397D01*
X-68697Y83978D01*
X-65325Y85375D01*
X-61675Y85375D01*
X-58303Y83978D01*
X-55722Y81397D01*
X-54325Y78025D01*
X-54325Y74375D01*
X-55722Y71003D01*
X-58303Y68422D01*
X-61675Y67025D01*
X-65325Y67025D01*
G37*
%LPD*%
%LPC*%
G36*
X-116125Y67025D02*
X-116125Y67025D01*
X-119497Y68422D01*
X-122078Y71003D01*
X-123475Y74375D01*
X-123475Y78025D01*
X-122078Y81397D01*
X-119497Y83978D01*
X-116125Y85375D01*
X-112475Y85375D01*
X-109103Y83978D01*
X-106522Y81397D01*
X-105125Y78025D01*
X-105125Y74375D01*
X-106522Y71003D01*
X-109103Y68422D01*
X-112475Y67025D01*
X-116125Y67025D01*
G37*
%LPD*%
%LPC*%
G36*
X-141525Y67025D02*
X-141525Y67025D01*
X-144897Y68422D01*
X-147478Y71003D01*
X-148875Y74375D01*
X-148875Y78025D01*
X-147478Y81397D01*
X-144897Y83978D01*
X-141525Y85375D01*
X-137875Y85375D01*
X-134503Y83978D01*
X-131922Y81397D01*
X-130525Y78025D01*
X-130525Y74375D01*
X-131922Y71003D01*
X-134503Y68422D01*
X-137875Y67025D01*
X-141525Y67025D01*
G37*
%LPD*%
%LPC*%
G36*
X-65325Y92425D02*
X-65325Y92425D01*
X-68697Y93822D01*
X-71278Y96403D01*
X-72675Y99775D01*
X-72675Y103425D01*
X-71278Y106797D01*
X-68697Y109378D01*
X-65325Y110775D01*
X-61675Y110775D01*
X-58303Y109378D01*
X-55722Y106797D01*
X-54325Y103425D01*
X-54325Y99775D01*
X-55722Y96403D01*
X-58303Y93822D01*
X-61675Y92425D01*
X-65325Y92425D01*
G37*
%LPD*%
%LPC*%
G36*
X-90725Y92425D02*
X-90725Y92425D01*
X-94097Y93822D01*
X-96678Y96403D01*
X-98075Y99775D01*
X-98075Y103425D01*
X-96678Y106797D01*
X-94097Y109378D01*
X-90725Y110775D01*
X-87075Y110775D01*
X-83703Y109378D01*
X-81122Y106797D01*
X-79725Y103425D01*
X-79725Y99775D01*
X-81122Y96403D01*
X-83703Y93822D01*
X-87075Y92425D01*
X-90725Y92425D01*
G37*
%LPD*%
%LPC*%
G36*
X-116125Y92425D02*
X-116125Y92425D01*
X-119497Y93822D01*
X-122078Y96403D01*
X-123475Y99775D01*
X-123475Y103425D01*
X-122078Y106797D01*
X-119497Y109378D01*
X-116125Y110775D01*
X-112475Y110775D01*
X-109103Y109378D01*
X-106522Y106797D01*
X-105125Y103425D01*
X-105125Y99775D01*
X-106522Y96403D01*
X-109103Y93822D01*
X-112475Y92425D01*
X-116125Y92425D01*
G37*
%LPD*%
%LPC*%
G36*
X-141525Y92425D02*
X-141525Y92425D01*
X-144897Y93822D01*
X-147478Y96403D01*
X-148875Y99775D01*
X-148875Y103425D01*
X-147478Y106797D01*
X-144897Y109378D01*
X-141525Y110775D01*
X-137875Y110775D01*
X-134503Y109378D01*
X-131922Y106797D01*
X-130525Y103425D01*
X-130525Y99775D01*
X-131922Y96403D01*
X-134503Y93822D01*
X-137875Y92425D01*
X-141525Y92425D01*
G37*
%LPD*%
%LPC*%
G36*
X48975Y92425D02*
X48975Y92425D01*
X45603Y93822D01*
X43022Y96403D01*
X41625Y99775D01*
X41625Y103425D01*
X43022Y106797D01*
X45603Y109378D01*
X48975Y110775D01*
X52625Y110775D01*
X55997Y109378D01*
X58578Y106797D01*
X59975Y103425D01*
X59975Y99775D01*
X58578Y96403D01*
X55997Y93822D01*
X52625Y92425D01*
X48975Y92425D01*
G37*
%LPD*%
%LPC*%
G36*
X23575Y92425D02*
X23575Y92425D01*
X20203Y93822D01*
X17622Y96403D01*
X16225Y99775D01*
X16225Y103425D01*
X17622Y106797D01*
X20203Y109378D01*
X23575Y110775D01*
X27225Y110775D01*
X30597Y109378D01*
X33178Y106797D01*
X34575Y103425D01*
X34575Y99775D01*
X33178Y96403D01*
X30597Y93822D01*
X27225Y92425D01*
X23575Y92425D01*
G37*
%LPD*%
%LPC*%
G36*
X-27225Y92425D02*
X-27225Y92425D01*
X-30597Y93822D01*
X-33178Y96403D01*
X-34575Y99775D01*
X-34575Y103425D01*
X-33178Y106797D01*
X-30597Y109378D01*
X-27225Y110775D01*
X-23575Y110775D01*
X-20203Y109378D01*
X-17622Y106797D01*
X-16225Y103425D01*
X-16225Y99775D01*
X-17622Y96403D01*
X-20203Y93822D01*
X-23575Y92425D01*
X-27225Y92425D01*
G37*
%LPD*%
%LPC*%
G36*
X48975Y67025D02*
X48975Y67025D01*
X45603Y68422D01*
X43022Y71003D01*
X41625Y74375D01*
X41625Y78025D01*
X43022Y81397D01*
X45603Y83978D01*
X48975Y85375D01*
X52625Y85375D01*
X55997Y83978D01*
X58578Y81397D01*
X59975Y78025D01*
X59975Y74375D01*
X58578Y71003D01*
X55997Y68422D01*
X52625Y67025D01*
X48975Y67025D01*
G37*
%LPD*%
%LPC*%
G36*
X-1825Y92425D02*
X-1825Y92425D01*
X-5197Y93822D01*
X-7778Y96403D01*
X-9175Y99775D01*
X-9175Y103425D01*
X-7778Y106797D01*
X-5197Y109378D01*
X-1825Y110775D01*
X1825Y110775D01*
X5197Y109378D01*
X7778Y106797D01*
X9175Y103425D01*
X9175Y99775D01*
X7778Y96403D01*
X5197Y93822D01*
X1825Y92425D01*
X-1825Y92425D01*
G37*
%LPD*%
%LPC*%
G36*
X-1825Y67025D02*
X-1825Y67025D01*
X-5197Y68422D01*
X-7778Y71003D01*
X-9175Y74375D01*
X-9175Y78025D01*
X-7778Y81397D01*
X-5197Y83978D01*
X-1825Y85375D01*
X1825Y85375D01*
X5197Y83978D01*
X7778Y81397D01*
X9175Y78025D01*
X9175Y74375D01*
X7778Y71003D01*
X5197Y68422D01*
X1825Y67025D01*
X-1825Y67025D01*
G37*
%LPD*%
%LPC*%
G36*
X138139Y-191997D02*
X138139Y-191997D01*
X135255Y-190802D01*
X133048Y-188595D01*
X131853Y-185711D01*
X131853Y-182589D01*
X133048Y-179705D01*
X135255Y-177498D01*
X138139Y-176303D01*
X141261Y-176303D01*
X144145Y-177498D01*
X146352Y-179705D01*
X147547Y-182589D01*
X147547Y-185711D01*
X146352Y-188595D01*
X144145Y-190802D01*
X141261Y-191997D01*
X138139Y-191997D01*
G37*
%LPD*%
%LPC*%
G36*
X135599Y-227557D02*
X135599Y-227557D01*
X132715Y-226362D01*
X130508Y-224155D01*
X129313Y-221271D01*
X129313Y-218149D01*
X130508Y-215265D01*
X132715Y-213058D01*
X135599Y-211863D01*
X138721Y-211863D01*
X141605Y-213058D01*
X143812Y-215265D01*
X145007Y-218149D01*
X145007Y-221271D01*
X143812Y-224155D01*
X141605Y-226362D01*
X138721Y-227557D01*
X135599Y-227557D01*
G37*
%LPD*%
%LPC*%
G36*
X68289Y-58647D02*
X68289Y-58647D01*
X65405Y-57452D01*
X63198Y-55245D01*
X62003Y-52361D01*
X62003Y-49239D01*
X63198Y-46355D01*
X65405Y-44148D01*
X68289Y-42953D01*
X71411Y-42953D01*
X74295Y-44148D01*
X76502Y-46355D01*
X77697Y-49239D01*
X77697Y-52361D01*
X76502Y-55245D01*
X74295Y-57452D01*
X71411Y-58647D01*
X68289Y-58647D01*
G37*
%LPD*%
%LPC*%
G36*
X105169Y-67287D02*
X105169Y-67287D01*
X102377Y-66130D01*
X100240Y-63993D01*
X99083Y-61201D01*
X99083Y-58179D01*
X100240Y-55387D01*
X102377Y-53250D01*
X105169Y-52093D01*
X108191Y-52093D01*
X110983Y-53250D01*
X113120Y-55387D01*
X114277Y-58179D01*
X114277Y-61201D01*
X113120Y-63993D01*
X110983Y-66130D01*
X108191Y-67287D01*
X105169Y-67287D01*
G37*
%LPD*%
%LPC*%
G36*
X145809Y-278107D02*
X145809Y-278107D01*
X143017Y-276950D01*
X140880Y-274813D01*
X139723Y-272021D01*
X139723Y-268999D01*
X140880Y-266207D01*
X143017Y-264070D01*
X145809Y-262913D01*
X148831Y-262913D01*
X151623Y-264070D01*
X153760Y-266207D01*
X154917Y-268999D01*
X154917Y-272021D01*
X153760Y-274813D01*
X151623Y-276950D01*
X148831Y-278107D01*
X145809Y-278107D01*
G37*
%LPD*%
%LPC*%
G36*
X115329Y-257787D02*
X115329Y-257787D01*
X112537Y-256630D01*
X110400Y-254493D01*
X109243Y-251701D01*
X109243Y-248679D01*
X110400Y-245887D01*
X112537Y-243750D01*
X115329Y-242593D01*
X118351Y-242593D01*
X121143Y-243750D01*
X123280Y-245887D01*
X124437Y-248679D01*
X124437Y-251701D01*
X123280Y-254493D01*
X121143Y-256630D01*
X118351Y-257787D01*
X115329Y-257787D01*
G37*
%LPD*%
%LPC*%
G36*
X30694Y216943D02*
X30694Y216943D01*
X28744Y217751D01*
X27251Y219244D01*
X26443Y221194D01*
X26443Y223306D01*
X27251Y225256D01*
X28744Y226749D01*
X30694Y227557D01*
X32806Y227557D01*
X34756Y226749D01*
X36249Y225256D01*
X37057Y223306D01*
X37057Y221194D01*
X36249Y219244D01*
X34756Y217751D01*
X32806Y216943D01*
X30694Y216943D01*
G37*
%LPD*%
%LPC*%
G36*
X-26456Y216943D02*
X-26456Y216943D01*
X-28406Y217751D01*
X-29899Y219244D01*
X-30707Y221194D01*
X-30707Y223306D01*
X-29899Y225256D01*
X-28406Y226749D01*
X-26456Y227557D01*
X-24344Y227557D01*
X-22394Y226749D01*
X-20901Y225256D01*
X-20093Y223306D01*
X-20093Y221194D01*
X-20901Y219244D01*
X-22394Y217751D01*
X-24344Y216943D01*
X-26456Y216943D01*
G37*
%LPD*%
%LPC*%
G36*
X-64556Y216943D02*
X-64556Y216943D01*
X-66506Y217751D01*
X-67999Y219244D01*
X-68807Y221194D01*
X-68807Y223306D01*
X-67999Y225256D01*
X-66506Y226749D01*
X-64556Y227557D01*
X-62444Y227557D01*
X-60494Y226749D01*
X-59001Y225256D01*
X-58193Y223306D01*
X-58193Y221194D01*
X-59001Y219244D01*
X-60494Y217751D01*
X-62444Y216943D01*
X-64556Y216943D01*
G37*
%LPD*%
%LPC*%
G36*
X-147106Y172493D02*
X-147106Y172493D01*
X-149056Y173301D01*
X-150549Y174794D01*
X-151357Y176744D01*
X-151357Y178856D01*
X-150549Y180806D01*
X-149056Y182299D01*
X-147106Y183107D01*
X-144994Y183107D01*
X-143044Y182299D01*
X-141551Y180806D01*
X-140743Y178856D01*
X-140743Y176744D01*
X-141551Y174794D01*
X-143044Y173301D01*
X-144994Y172493D01*
X-147106Y172493D01*
G37*
%LPD*%
%LPC*%
G36*
X62444Y178843D02*
X62444Y178843D01*
X60494Y179651D01*
X59001Y181144D01*
X58193Y183094D01*
X58193Y185206D01*
X59001Y187156D01*
X60494Y188649D01*
X62444Y189457D01*
X64556Y189457D01*
X66506Y188649D01*
X67999Y187156D01*
X68807Y185206D01*
X68807Y183094D01*
X67999Y181144D01*
X66506Y179651D01*
X64556Y178843D01*
X62444Y178843D01*
G37*
%LPD*%
%LPC*%
G36*
X-68366Y-33247D02*
X-68366Y-33247D01*
X-70316Y-32439D01*
X-71809Y-30946D01*
X-72617Y-28996D01*
X-72617Y-26884D01*
X-71809Y-24934D01*
X-70316Y-23441D01*
X-68366Y-22633D01*
X-66254Y-22633D01*
X-64304Y-23441D01*
X-62811Y-24934D01*
X-62003Y-26884D01*
X-62003Y-28996D01*
X-62811Y-30946D01*
X-64304Y-32439D01*
X-66254Y-33247D01*
X-68366Y-33247D01*
G37*
%LPD*%
%LPC*%
G36*
X-13756Y-48487D02*
X-13756Y-48487D01*
X-15706Y-47679D01*
X-17199Y-46186D01*
X-18007Y-44236D01*
X-18007Y-42124D01*
X-17199Y-40174D01*
X-15706Y-38681D01*
X-13756Y-37873D01*
X-11644Y-37873D01*
X-9694Y-38681D01*
X-8201Y-40174D01*
X-7393Y-42124D01*
X-7393Y-44236D01*
X-8201Y-46186D01*
X-9694Y-47679D01*
X-11644Y-48487D01*
X-13756Y-48487D01*
G37*
%LPD*%
%LPC*%
G36*
X11644Y-48487D02*
X11644Y-48487D01*
X9694Y-47679D01*
X8201Y-46186D01*
X7393Y-44236D01*
X7393Y-42124D01*
X8201Y-40174D01*
X9694Y-38681D01*
X11644Y-37873D01*
X13756Y-37873D01*
X15706Y-38681D01*
X17199Y-40174D01*
X18007Y-42124D01*
X18007Y-44236D01*
X17199Y-46186D01*
X15706Y-47679D01*
X13756Y-48487D01*
X11644Y-48487D01*
G37*
%LPD*%
%LPC*%
G36*
X-77256Y-49757D02*
X-77256Y-49757D01*
X-79206Y-48949D01*
X-80699Y-47456D01*
X-81507Y-45506D01*
X-81507Y-43394D01*
X-80699Y-41444D01*
X-79206Y-39951D01*
X-77256Y-39143D01*
X-75144Y-39143D01*
X-73194Y-39951D01*
X-71701Y-41444D01*
X-70893Y-43394D01*
X-70893Y-45506D01*
X-71701Y-47456D01*
X-73194Y-48949D01*
X-75144Y-49757D01*
X-77256Y-49757D01*
G37*
%LPD*%
%LPC*%
G36*
X-112816Y-20547D02*
X-112816Y-20547D01*
X-114766Y-19739D01*
X-116259Y-18246D01*
X-117067Y-16296D01*
X-117067Y-14184D01*
X-116259Y-12234D01*
X-114766Y-10741D01*
X-112816Y-9933D01*
X-110704Y-9933D01*
X-108754Y-10741D01*
X-107261Y-12234D01*
X-106453Y-14184D01*
X-106453Y-16296D01*
X-107261Y-18246D01*
X-108754Y-19739D01*
X-110704Y-20547D01*
X-112816Y-20547D01*
G37*
%LPD*%
%LPC*%
G36*
X24344Y235993D02*
X24344Y235993D01*
X22394Y236801D01*
X20901Y238294D01*
X20093Y240244D01*
X20093Y242356D01*
X20901Y244306D01*
X22394Y245799D01*
X24344Y246607D01*
X26456Y246607D01*
X28406Y245799D01*
X29899Y244306D01*
X30707Y242356D01*
X30707Y240244D01*
X29899Y238294D01*
X28406Y236801D01*
X26456Y235993D01*
X24344Y235993D01*
G37*
%LPD*%
%LPC*%
G36*
X17994Y-68807D02*
X17994Y-68807D01*
X16044Y-67999D01*
X14551Y-66506D01*
X13743Y-64556D01*
X13743Y-62444D01*
X14551Y-60494D01*
X16044Y-59001D01*
X17994Y-58193D01*
X20106Y-58193D01*
X22056Y-59001D01*
X23549Y-60494D01*
X24357Y-62444D01*
X24357Y-64556D01*
X23549Y-66506D01*
X22056Y-67999D01*
X20106Y-68807D01*
X17994Y-68807D01*
G37*
%LPD*%
%LPC*%
G36*
X-26456Y-81507D02*
X-26456Y-81507D01*
X-28406Y-80699D01*
X-29899Y-79206D01*
X-30707Y-77256D01*
X-30707Y-75144D01*
X-29899Y-73194D01*
X-28406Y-71701D01*
X-26456Y-70893D01*
X-24344Y-70893D01*
X-22394Y-71701D01*
X-20901Y-73194D01*
X-20093Y-75144D01*
X-20093Y-77256D01*
X-20901Y-79206D01*
X-22394Y-80699D01*
X-24344Y-81507D01*
X-26456Y-81507D01*
G37*
%LPD*%
%LPC*%
G36*
X-70906Y235993D02*
X-70906Y235993D01*
X-72856Y236801D01*
X-74349Y238294D01*
X-75157Y240244D01*
X-75157Y242356D01*
X-74349Y244306D01*
X-72856Y245799D01*
X-70906Y246607D01*
X-68794Y246607D01*
X-66844Y245799D01*
X-65351Y244306D01*
X-64543Y242356D01*
X-64543Y240244D01*
X-65351Y238294D01*
X-66844Y236801D01*
X-68794Y235993D01*
X-70906Y235993D01*
G37*
%LPD*%
%LPC*%
G36*
X-96306Y235993D02*
X-96306Y235993D01*
X-98256Y236801D01*
X-99749Y238294D01*
X-100557Y240244D01*
X-100557Y242356D01*
X-99749Y244306D01*
X-98256Y245799D01*
X-96306Y246607D01*
X-94194Y246607D01*
X-92244Y245799D01*
X-90751Y244306D01*
X-89943Y242356D01*
X-89943Y240244D01*
X-90751Y238294D01*
X-92244Y236801D01*
X-94194Y235993D01*
X-96306Y235993D01*
G37*
%LPD*%
%LPC*%
G36*
X-89956Y-94207D02*
X-89956Y-94207D01*
X-91906Y-93399D01*
X-93399Y-91906D01*
X-94207Y-89956D01*
X-94207Y-87844D01*
X-93399Y-85894D01*
X-91906Y-84401D01*
X-89956Y-83593D01*
X-87844Y-83593D01*
X-85894Y-84401D01*
X-84401Y-85894D01*
X-83593Y-87844D01*
X-83593Y-89956D01*
X-84401Y-91906D01*
X-85894Y-93399D01*
X-87844Y-94207D01*
X-89956Y-94207D01*
G37*
%LPD*%
%LPC*%
G36*
X-109006Y216943D02*
X-109006Y216943D01*
X-110956Y217751D01*
X-112449Y219244D01*
X-113257Y221194D01*
X-113257Y223306D01*
X-112449Y225256D01*
X-110956Y226749D01*
X-109006Y227557D01*
X-106894Y227557D01*
X-104944Y226749D01*
X-103451Y225256D01*
X-102643Y223306D01*
X-102643Y221194D01*
X-103451Y219244D01*
X-104944Y217751D01*
X-106894Y216943D01*
X-109006Y216943D01*
G37*
%LPD*%
%LPC*%
G36*
X-128056Y216943D02*
X-128056Y216943D01*
X-130006Y217751D01*
X-131499Y219244D01*
X-132307Y221194D01*
X-132307Y223306D01*
X-131499Y225256D01*
X-130006Y226749D01*
X-128056Y227557D01*
X-125944Y227557D01*
X-123994Y226749D01*
X-122501Y225256D01*
X-121693Y223306D01*
X-121693Y221194D01*
X-122501Y219244D01*
X-123994Y217751D01*
X-125944Y216943D01*
X-128056Y216943D01*
G37*
%LPD*%
%LPC*%
G36*
X49744Y216943D02*
X49744Y216943D01*
X47794Y217751D01*
X46301Y219244D01*
X45493Y221194D01*
X45493Y223306D01*
X46301Y225256D01*
X47794Y226749D01*
X49744Y227557D01*
X51856Y227557D01*
X53806Y226749D01*
X55299Y225256D01*
X56107Y223306D01*
X56107Y221194D01*
X55299Y219244D01*
X53806Y217751D01*
X51856Y216943D01*
X49744Y216943D01*
G37*
%LPD*%
%LPC*%
G36*
X-7406Y261393D02*
X-7406Y261393D01*
X-9356Y262201D01*
X-10849Y263694D01*
X-11657Y265644D01*
X-11657Y267756D01*
X-10849Y269706D01*
X-9356Y271199D01*
X-7406Y272007D01*
X-5294Y272007D01*
X-3344Y271199D01*
X-1851Y269706D01*
X-1043Y267756D01*
X-1043Y265644D01*
X-1851Y263694D01*
X-3344Y262201D01*
X-5294Y261393D01*
X-7406Y261393D01*
G37*
%LPD*%
%LPC*%
G36*
X-234436Y-69140D02*
X-234436Y-69140D01*
X-235962Y-68644D01*
X-237391Y-67916D01*
X-238689Y-66973D01*
X-239823Y-65839D01*
X-240766Y-64541D01*
X-241494Y-63112D01*
X-241990Y-61586D01*
X-242046Y-61231D01*
X-234081Y-61231D01*
X-234081Y-69196D01*
X-234436Y-69140D01*
G37*
%LPD*%
%LPC*%
G36*
X419981Y-135031D02*
X419981Y-135031D01*
X427946Y-135031D01*
X427890Y-135386D01*
X427394Y-136912D01*
X426666Y-138341D01*
X425723Y-139639D01*
X424589Y-140773D01*
X423291Y-141716D01*
X421862Y-142444D01*
X420336Y-142940D01*
X419981Y-142996D01*
X419981Y-135031D01*
G37*
%LPD*%
%LPC*%
G36*
X419981Y-211231D02*
X419981Y-211231D01*
X427946Y-211231D01*
X427890Y-211586D01*
X427394Y-213112D01*
X426666Y-214541D01*
X425723Y-215839D01*
X424589Y-216973D01*
X423291Y-217916D01*
X421862Y-218644D01*
X420336Y-219140D01*
X419981Y-219196D01*
X419981Y-211231D01*
G37*
%LPD*%
%LPC*%
G36*
X419981Y-236631D02*
X419981Y-236631D01*
X427946Y-236631D01*
X427890Y-236986D01*
X427394Y-238512D01*
X426666Y-239941D01*
X425723Y-241239D01*
X424589Y-242373D01*
X423291Y-243316D01*
X421862Y-244044D01*
X420336Y-244540D01*
X419981Y-244596D01*
X419981Y-236631D01*
G37*
%LPD*%
%LPC*%
G36*
X-234436Y-43740D02*
X-234436Y-43740D01*
X-235962Y-43244D01*
X-237391Y-42516D01*
X-238689Y-41573D01*
X-239823Y-40439D01*
X-240766Y-39141D01*
X-241494Y-37712D01*
X-241990Y-36186D01*
X-242046Y-35831D01*
X-234081Y-35831D01*
X-234081Y-43796D01*
X-234436Y-43740D01*
G37*
%LPD*%
%LPC*%
G36*
X419981Y-207169D02*
X419981Y-207169D01*
X419981Y-199204D01*
X420336Y-199260D01*
X421862Y-199756D01*
X423291Y-200484D01*
X424589Y-201427D01*
X425723Y-202561D01*
X426666Y-203859D01*
X427394Y-205288D01*
X427890Y-206814D01*
X427946Y-207169D01*
X419981Y-207169D01*
G37*
%LPD*%
%LPC*%
G36*
X-242046Y-31769D02*
X-242046Y-31769D01*
X-241990Y-31414D01*
X-241494Y-29888D01*
X-240766Y-28459D01*
X-239823Y-27161D01*
X-238689Y-26027D01*
X-237391Y-25084D01*
X-235962Y-24356D01*
X-234436Y-23860D01*
X-234081Y-23804D01*
X-234081Y-31769D01*
X-242046Y-31769D01*
G37*
%LPD*%
%LPC*%
G36*
X-230019Y-61231D02*
X-230019Y-61231D01*
X-222054Y-61231D01*
X-222110Y-61586D01*
X-222606Y-63112D01*
X-223334Y-64541D01*
X-224277Y-65839D01*
X-225411Y-66973D01*
X-226709Y-67916D01*
X-228138Y-68644D01*
X-229664Y-69140D01*
X-230019Y-69196D01*
X-230019Y-61231D01*
G37*
%LPD*%
%LPC*%
G36*
X419981Y-130969D02*
X419981Y-130969D01*
X419981Y-123004D01*
X420336Y-123060D01*
X421862Y-123556D01*
X423291Y-124284D01*
X424589Y-125227D01*
X425723Y-126361D01*
X426666Y-127659D01*
X427394Y-129088D01*
X427890Y-130614D01*
X427946Y-130969D01*
X419981Y-130969D01*
G37*
%LPD*%
%LPC*%
G36*
X415564Y-142940D02*
X415564Y-142940D01*
X414038Y-142444D01*
X412609Y-141716D01*
X411311Y-140773D01*
X410177Y-139639D01*
X409234Y-138341D01*
X408506Y-136912D01*
X408010Y-135386D01*
X407954Y-135031D01*
X415919Y-135031D01*
X415919Y-142996D01*
X415564Y-142940D01*
G37*
%LPD*%
%LPC*%
G36*
X-230019Y-35831D02*
X-230019Y-35831D01*
X-222054Y-35831D01*
X-222110Y-36186D01*
X-222606Y-37712D01*
X-223334Y-39141D01*
X-224277Y-40439D01*
X-225411Y-41573D01*
X-226709Y-42516D01*
X-228138Y-43244D01*
X-229664Y-43740D01*
X-230019Y-43796D01*
X-230019Y-35831D01*
G37*
%LPD*%
%LPC*%
G36*
X419981Y-232569D02*
X419981Y-232569D01*
X419981Y-224604D01*
X420336Y-224660D01*
X421862Y-225156D01*
X423291Y-225884D01*
X424589Y-226827D01*
X425723Y-227961D01*
X426666Y-229259D01*
X427394Y-230688D01*
X427890Y-232214D01*
X427946Y-232569D01*
X419981Y-232569D01*
G37*
%LPD*%
%LPC*%
G36*
X-242046Y-57169D02*
X-242046Y-57169D01*
X-241990Y-56814D01*
X-241494Y-55288D01*
X-240766Y-53859D01*
X-239823Y-52561D01*
X-238689Y-51427D01*
X-237391Y-50484D01*
X-235962Y-49756D01*
X-234436Y-49260D01*
X-234081Y-49204D01*
X-234081Y-57169D01*
X-242046Y-57169D01*
G37*
%LPD*%
%LPC*%
G36*
X415564Y-244540D02*
X415564Y-244540D01*
X414038Y-244044D01*
X412609Y-243316D01*
X411311Y-242373D01*
X410177Y-241239D01*
X409234Y-239941D01*
X408506Y-238512D01*
X408010Y-236986D01*
X407954Y-236631D01*
X415919Y-236631D01*
X415919Y-244596D01*
X415564Y-244540D01*
G37*
%LPD*%
%LPC*%
G36*
X415564Y-219140D02*
X415564Y-219140D01*
X414038Y-218644D01*
X412609Y-217916D01*
X411311Y-216973D01*
X410177Y-215839D01*
X409234Y-214541D01*
X408506Y-213112D01*
X408010Y-211586D01*
X407954Y-211231D01*
X415919Y-211231D01*
X415919Y-219196D01*
X415564Y-219140D01*
G37*
%LPD*%
%LPC*%
G36*
X-230019Y-31769D02*
X-230019Y-31769D01*
X-230019Y-23804D01*
X-229664Y-23860D01*
X-228138Y-24356D01*
X-226709Y-25084D01*
X-225411Y-26027D01*
X-224277Y-27161D01*
X-223334Y-28459D01*
X-222606Y-29888D01*
X-222110Y-31414D01*
X-222054Y-31769D01*
X-230019Y-31769D01*
G37*
%LPD*%
%LPC*%
G36*
X407954Y-130969D02*
X407954Y-130969D01*
X408010Y-130614D01*
X408506Y-129088D01*
X409234Y-127659D01*
X410177Y-126361D01*
X411311Y-125227D01*
X412609Y-124284D01*
X414038Y-123556D01*
X415564Y-123060D01*
X415919Y-123004D01*
X415919Y-130969D01*
X407954Y-130969D01*
G37*
%LPD*%
%LPC*%
G36*
X407954Y-207169D02*
X407954Y-207169D01*
X408010Y-206814D01*
X408506Y-205288D01*
X409234Y-203859D01*
X410177Y-202561D01*
X411311Y-201427D01*
X412609Y-200484D01*
X414038Y-199756D01*
X415564Y-199260D01*
X415919Y-199204D01*
X415919Y-207169D01*
X407954Y-207169D01*
G37*
%LPD*%
%LPC*%
G36*
X-230019Y-57169D02*
X-230019Y-57169D01*
X-230019Y-49204D01*
X-229664Y-49260D01*
X-228138Y-49756D01*
X-226709Y-50484D01*
X-225411Y-51427D01*
X-224277Y-52561D01*
X-223334Y-53859D01*
X-222606Y-55288D01*
X-222110Y-56814D01*
X-222054Y-57169D01*
X-230019Y-57169D01*
G37*
%LPD*%
%LPC*%
G36*
X407954Y-232569D02*
X407954Y-232569D01*
X408010Y-232214D01*
X408506Y-230688D01*
X409234Y-229259D01*
X410177Y-227961D01*
X411311Y-226827D01*
X412609Y-225884D01*
X414038Y-225156D01*
X415564Y-224660D01*
X415919Y-224604D01*
X415919Y-232569D01*
X407954Y-232569D01*
G37*
%LPD*%
%LPC*%
G36*
X-232051Y-59201D02*
X-232051Y-59201D01*
X-232051Y-59199D01*
X-232049Y-59199D01*
X-232049Y-59201D01*
X-232051Y-59201D01*
G37*
%LPD*%
%LPC*%
G36*
X-232051Y-33801D02*
X-232051Y-33801D01*
X-232051Y-33799D01*
X-232049Y-33799D01*
X-232049Y-33801D01*
X-232051Y-33801D01*
G37*
%LPD*%
%LPC*%
G36*
X417949Y-133001D02*
X417949Y-133001D01*
X417949Y-132999D01*
X417951Y-132999D01*
X417951Y-133001D01*
X417949Y-133001D01*
G37*
%LPD*%
%LPC*%
G36*
X417949Y-209201D02*
X417949Y-209201D01*
X417949Y-209199D01*
X417951Y-209199D01*
X417951Y-209201D01*
X417949Y-209201D01*
G37*
%LPD*%
%LPC*%
G36*
X417949Y-234601D02*
X417949Y-234601D01*
X417949Y-234599D01*
X417951Y-234599D01*
X417951Y-234601D01*
X417949Y-234601D01*
G37*
%LPD*%
D10*
X133350Y375000D03*
X95250Y375000D03*
X57150Y375000D03*
X19050Y375000D03*
X-19050Y375000D03*
X-57150Y375000D03*
X-95250Y375000D03*
X-133350Y375000D03*
X-327150Y-375000D03*
X-289050Y-375000D03*
X-250950Y-375000D03*
X-212850Y-375000D03*
D11*
X417950Y-285400D03*
X392550Y-285400D03*
X417950Y-260000D03*
X392550Y-260000D03*
X417950Y-234600D03*
X392550Y-234600D03*
X417950Y-209200D03*
X392550Y-209200D03*
X417950Y-183800D03*
X392550Y-183800D03*
X417950Y-158400D03*
X392550Y-158400D03*
X417950Y-133000D03*
X392550Y-133000D03*
X417950Y-107600D03*
X392550Y-107600D03*
X417950Y-82200D03*
X392550Y-82200D03*
X417950Y-56800D03*
X392550Y-56800D03*
X-257450Y93200D03*
X-232050Y93200D03*
X-257450Y67800D03*
X-232050Y67800D03*
X-257450Y42400D03*
X-232050Y42400D03*
X-257450Y17000D03*
X-232050Y17000D03*
X-257450Y-8400D03*
X-232050Y-8400D03*
X-257450Y-33800D03*
X-232050Y-33800D03*
X-257450Y-59200D03*
X-232050Y-59200D03*
X-257450Y-84600D03*
X-232050Y-84600D03*
X-257450Y-110000D03*
X-232050Y-110000D03*
X-257450Y-135400D03*
X-232050Y-135400D03*
X-139700Y76200D03*
X-114300Y76200D03*
X-88900Y76200D03*
X-139700Y101600D03*
X-114300Y101600D03*
X-88900Y101600D03*
X-63500Y76200D03*
X-63500Y101600D03*
X-25400Y76200D03*
X0Y76200D03*
X25400Y76200D03*
X-25400Y101600D03*
X0Y101600D03*
X25400Y101600D03*
X50800Y76200D03*
X50800Y101600D03*
D12*
X69850Y-50800D03*
D13*
X106680Y-59690D03*
D12*
X222250Y-57150D03*
X222250Y-82550D03*
X234950Y-101600D03*
X234950Y-38100D03*
X76200Y-101600D03*
X120650Y-57150D03*
X88900Y-50800D03*
X82550Y-95250D03*
X88900Y-88900D03*
D13*
X-330200Y-266700D03*
X-317500Y-266700D03*
X-330200Y-279400D03*
X-317500Y-279400D03*
X-304800Y-266700D03*
X-292100Y-266700D03*
X-279400Y-266700D03*
X-304800Y-342900D03*
X-304800Y-355600D03*
X-317500Y-342900D03*
D12*
X-368300Y50800D03*
X-368300Y114300D03*
X-368300Y171450D03*
X-368300Y234950D03*
X-63500Y-241300D03*
X-50800Y-254000D03*
X50800Y-266700D03*
X-76200Y-44450D03*
X-67310Y-27940D03*
X-111760Y-15240D03*
X12700Y-43180D03*
X25400Y241300D03*
X-95250Y241300D03*
X-12700Y-43180D03*
X63500Y184150D03*
X-69850Y241300D03*
X-6350Y266700D03*
D13*
X-63500Y-254000D03*
X90170Y-223520D03*
X116840Y-250190D03*
D12*
X139700Y-184150D03*
X-146050Y177800D03*
X76200Y63500D03*
X-107950Y222250D03*
X-63500Y222250D03*
X-25400Y222250D03*
X31750Y222250D03*
X-127000Y222250D03*
X-88900Y-88900D03*
X50800Y222250D03*
X19050Y-63500D03*
X-25400Y-76200D03*
X137160Y-219710D03*
D13*
X147320Y-270510D03*
X100330Y-223520D03*
D12*
X-31750Y-107950D03*
X-19050Y-107950D03*
X-25400Y-101600D03*
X-25400Y-114300D03*
X-38100Y-101600D03*
X-50800Y-101600D03*
X-38100Y-114300D03*
X38100Y-222250D03*
X31750Y-177800D03*
D13*
X-31750Y-255270D03*
X64770Y-215900D03*
M02*
