G04 EAGLE Gerber RS-274X export*
G75*
%MOMM*%
%FSLAX34Y34*%
%LPD*%
%INCopper Layer 2*%
%IPPOS*%
%AMOC8*
5,1,8,0,0,1.08239X$1,22.5*%
G01*
%ADD10C,1.800000*%
%ADD11C,1.530000*%
%ADD12C,0.756400*%
%ADD13C,0.706400*%

G36*
X43996Y-268220D02*
X43996Y-268220D01*
X44022Y-268222D01*
X44169Y-268200D01*
X44316Y-268183D01*
X44341Y-268175D01*
X44367Y-268171D01*
X44505Y-268116D01*
X44644Y-268066D01*
X44666Y-268052D01*
X44691Y-268042D01*
X44812Y-267957D01*
X44937Y-267877D01*
X44955Y-267858D01*
X44977Y-267843D01*
X45076Y-267733D01*
X45179Y-267626D01*
X45193Y-267604D01*
X45210Y-267584D01*
X45282Y-267454D01*
X45358Y-267327D01*
X45366Y-267302D01*
X45379Y-267279D01*
X45419Y-267136D01*
X45464Y-266995D01*
X45466Y-266969D01*
X45474Y-266944D01*
X45493Y-266700D01*
X45493Y-265644D01*
X46301Y-263694D01*
X47794Y-262201D01*
X49744Y-261393D01*
X51856Y-261393D01*
X53806Y-262201D01*
X55299Y-263694D01*
X56107Y-265644D01*
X56107Y-266700D01*
X56110Y-266726D01*
X56108Y-266752D01*
X56130Y-266899D01*
X56147Y-267046D01*
X56155Y-267071D01*
X56159Y-267097D01*
X56214Y-267235D01*
X56264Y-267374D01*
X56278Y-267396D01*
X56288Y-267421D01*
X56373Y-267542D01*
X56453Y-267667D01*
X56472Y-267685D01*
X56487Y-267707D01*
X56597Y-267806D01*
X56704Y-267909D01*
X56726Y-267923D01*
X56746Y-267940D01*
X56876Y-268012D01*
X57003Y-268088D01*
X57028Y-268096D01*
X57051Y-268109D01*
X57194Y-268149D01*
X57335Y-268194D01*
X57361Y-268196D01*
X57386Y-268204D01*
X57630Y-268223D01*
X82550Y-268223D01*
X82576Y-268220D01*
X82602Y-268222D01*
X82749Y-268200D01*
X82896Y-268183D01*
X82921Y-268175D01*
X82947Y-268171D01*
X83085Y-268116D01*
X83224Y-268066D01*
X83246Y-268052D01*
X83271Y-268042D01*
X83392Y-267957D01*
X83517Y-267877D01*
X83535Y-267858D01*
X83557Y-267843D01*
X83656Y-267733D01*
X83759Y-267626D01*
X83773Y-267604D01*
X83790Y-267584D01*
X83862Y-267454D01*
X83938Y-267327D01*
X83946Y-267302D01*
X83959Y-267279D01*
X83999Y-267136D01*
X84044Y-266995D01*
X84046Y-266969D01*
X84054Y-266944D01*
X84073Y-266700D01*
X84073Y-234950D01*
X84070Y-234924D01*
X84072Y-234898D01*
X84050Y-234751D01*
X84033Y-234604D01*
X84025Y-234579D01*
X84021Y-234553D01*
X83966Y-234415D01*
X83916Y-234276D01*
X83902Y-234254D01*
X83892Y-234229D01*
X83807Y-234108D01*
X83727Y-233983D01*
X83708Y-233965D01*
X83693Y-233943D01*
X83583Y-233844D01*
X83476Y-233741D01*
X83454Y-233727D01*
X83434Y-233710D01*
X83304Y-233638D01*
X83177Y-233562D01*
X83152Y-233554D01*
X83129Y-233541D01*
X82986Y-233501D01*
X82845Y-233456D01*
X82819Y-233454D01*
X82794Y-233446D01*
X82550Y-233427D01*
X52323Y-233427D01*
X52323Y55627D01*
X73683Y55627D01*
X73733Y55633D01*
X73783Y55630D01*
X73905Y55652D01*
X74029Y55667D01*
X74076Y55684D01*
X74126Y55693D01*
X74240Y55742D01*
X74357Y55784D01*
X74399Y55811D01*
X74445Y55832D01*
X74545Y55906D01*
X74650Y55973D01*
X74685Y56009D01*
X74725Y56039D01*
X74806Y56134D01*
X74892Y56224D01*
X74918Y56267D01*
X74950Y56305D01*
X75007Y56416D01*
X75071Y56523D01*
X75086Y56571D01*
X75109Y56616D01*
X75139Y56737D01*
X75177Y56855D01*
X75181Y56905D01*
X75193Y56954D01*
X75195Y57078D01*
X75205Y57202D01*
X75198Y57252D01*
X75198Y57302D01*
X75172Y57424D01*
X75153Y57547D01*
X75135Y57594D01*
X75124Y57643D01*
X75071Y57755D01*
X75025Y57871D01*
X74996Y57912D01*
X74974Y57958D01*
X74897Y58055D01*
X74826Y58157D01*
X74788Y58191D01*
X74757Y58230D01*
X74659Y58307D01*
X74567Y58390D01*
X74523Y58415D01*
X74483Y58446D01*
X74266Y58557D01*
X73194Y59001D01*
X71701Y60494D01*
X70893Y62444D01*
X70893Y64556D01*
X71701Y66506D01*
X73194Y67999D01*
X75144Y68807D01*
X77256Y68807D01*
X79206Y67999D01*
X80699Y66506D01*
X81507Y64556D01*
X81507Y62444D01*
X80699Y60494D01*
X79206Y59001D01*
X78134Y58557D01*
X78090Y58533D01*
X78043Y58516D01*
X77939Y58449D01*
X77830Y58388D01*
X77792Y58354D01*
X77750Y58327D01*
X77664Y58237D01*
X77572Y58154D01*
X77543Y58113D01*
X77508Y58076D01*
X77444Y57969D01*
X77373Y57867D01*
X77355Y57820D01*
X77329Y57777D01*
X77291Y57659D01*
X77246Y57543D01*
X77238Y57493D01*
X77223Y57445D01*
X77213Y57321D01*
X77195Y57198D01*
X77199Y57148D01*
X77195Y57098D01*
X77213Y56975D01*
X77224Y56851D01*
X77239Y56803D01*
X77247Y56753D01*
X77293Y56637D01*
X77331Y56519D01*
X77357Y56476D01*
X77375Y56429D01*
X77446Y56327D01*
X77510Y56221D01*
X77546Y56184D01*
X77574Y56143D01*
X77667Y56060D01*
X77753Y55971D01*
X77796Y55943D01*
X77833Y55910D01*
X77942Y55850D01*
X78047Y55782D01*
X78094Y55766D01*
X78138Y55741D01*
X78258Y55707D01*
X78375Y55666D01*
X78425Y55660D01*
X78474Y55646D01*
X78717Y55627D01*
X437554Y55627D01*
X437580Y55630D01*
X437606Y55628D01*
X437753Y55650D01*
X437900Y55667D01*
X437925Y55675D01*
X437951Y55679D01*
X438089Y55734D01*
X438228Y55784D01*
X438250Y55798D01*
X438275Y55808D01*
X438396Y55893D01*
X438521Y55973D01*
X438539Y55992D01*
X438561Y56007D01*
X438660Y56117D01*
X438763Y56224D01*
X438777Y56246D01*
X438794Y56266D01*
X438866Y56396D01*
X438942Y56523D01*
X438950Y56548D01*
X438963Y56571D01*
X439003Y56714D01*
X439048Y56855D01*
X439050Y56881D01*
X439058Y56906D01*
X439077Y57150D01*
X439077Y313353D01*
X439066Y313453D01*
X439064Y313553D01*
X439046Y313625D01*
X439037Y313699D01*
X439004Y313793D01*
X438979Y313891D01*
X438945Y313957D01*
X438920Y314027D01*
X438865Y314111D01*
X438819Y314201D01*
X438771Y314257D01*
X438731Y314320D01*
X438659Y314390D01*
X438594Y314466D01*
X438534Y314510D01*
X438480Y314562D01*
X438394Y314614D01*
X438313Y314673D01*
X438245Y314703D01*
X438181Y314741D01*
X438085Y314771D01*
X437993Y314811D01*
X437920Y314824D01*
X437849Y314847D01*
X437749Y314855D01*
X437650Y314873D01*
X437576Y314869D01*
X437502Y314875D01*
X437402Y314860D01*
X437302Y314855D01*
X437231Y314834D01*
X437157Y314823D01*
X437064Y314786D01*
X436967Y314758D01*
X436902Y314722D01*
X436833Y314695D01*
X436751Y314637D01*
X436663Y314588D01*
X436587Y314523D01*
X436547Y314496D01*
X436523Y314469D01*
X436477Y314430D01*
X432836Y310789D01*
X424508Y307339D01*
X415492Y307339D01*
X407164Y310789D01*
X400789Y317164D01*
X397339Y325492D01*
X397339Y334508D01*
X400789Y342836D01*
X407164Y349211D01*
X415492Y352661D01*
X424508Y352661D01*
X432836Y349211D01*
X436477Y345570D01*
X436555Y345508D01*
X436628Y345438D01*
X436692Y345400D01*
X436750Y345354D01*
X436841Y345311D01*
X436927Y345259D01*
X436998Y345236D01*
X437065Y345205D01*
X437163Y345184D01*
X437259Y345153D01*
X437333Y345147D01*
X437406Y345131D01*
X437506Y345133D01*
X437606Y345125D01*
X437680Y345136D01*
X437754Y345137D01*
X437851Y345162D01*
X437951Y345177D01*
X438020Y345204D01*
X438092Y345222D01*
X438182Y345268D01*
X438275Y345305D01*
X438336Y345348D01*
X438402Y345382D01*
X438479Y345447D01*
X438561Y345504D01*
X438611Y345559D01*
X438667Y345608D01*
X438727Y345689D01*
X438794Y345763D01*
X438830Y345828D01*
X438875Y345888D01*
X438914Y345980D01*
X438963Y346068D01*
X438983Y346140D01*
X439013Y346208D01*
X439030Y346307D01*
X439058Y346404D01*
X439066Y346504D01*
X439074Y346551D01*
X439072Y346587D01*
X439077Y346647D01*
X439077Y382554D01*
X439074Y382580D01*
X439076Y382606D01*
X439054Y382753D01*
X439037Y382900D01*
X439029Y382925D01*
X439025Y382951D01*
X438970Y383089D01*
X438920Y383228D01*
X438906Y383250D01*
X438896Y383275D01*
X438811Y383396D01*
X438731Y383521D01*
X438712Y383539D01*
X438697Y383561D01*
X438587Y383660D01*
X438480Y383763D01*
X438458Y383777D01*
X438438Y383794D01*
X438308Y383866D01*
X438181Y383942D01*
X438156Y383950D01*
X438133Y383963D01*
X437990Y384003D01*
X437849Y384048D01*
X437823Y384050D01*
X437798Y384058D01*
X437554Y384077D01*
X387827Y384077D01*
X383813Y385740D01*
X380740Y388813D01*
X379077Y392827D01*
X379077Y412554D01*
X379074Y412580D01*
X379076Y412606D01*
X379054Y412753D01*
X379037Y412900D01*
X379029Y412925D01*
X379025Y412951D01*
X378970Y413089D01*
X378920Y413228D01*
X378906Y413250D01*
X378896Y413275D01*
X378811Y413396D01*
X378731Y413521D01*
X378712Y413539D01*
X378697Y413561D01*
X378587Y413660D01*
X378480Y413763D01*
X378458Y413777D01*
X378438Y413794D01*
X378308Y413866D01*
X378181Y413942D01*
X378156Y413950D01*
X378133Y413963D01*
X377990Y414003D01*
X377849Y414048D01*
X377823Y414050D01*
X377798Y414058D01*
X377554Y414077D01*
X-184150Y414077D01*
X-184176Y414074D01*
X-184202Y414076D01*
X-184349Y414054D01*
X-184496Y414037D01*
X-184521Y414029D01*
X-184547Y414025D01*
X-184685Y413970D01*
X-184824Y413920D01*
X-184846Y413906D01*
X-184871Y413896D01*
X-184992Y413811D01*
X-185117Y413731D01*
X-185135Y413712D01*
X-185157Y413697D01*
X-185256Y413587D01*
X-185359Y413480D01*
X-185373Y413458D01*
X-185390Y413438D01*
X-185462Y413308D01*
X-185538Y413181D01*
X-185546Y413156D01*
X-185559Y413133D01*
X-185599Y412990D01*
X-185644Y412849D01*
X-185646Y412823D01*
X-185654Y412798D01*
X-185673Y412554D01*
X-185673Y31750D01*
X-185670Y31724D01*
X-185672Y31698D01*
X-185650Y31551D01*
X-185633Y31404D01*
X-185625Y31379D01*
X-185621Y31353D01*
X-185566Y31215D01*
X-185516Y31076D01*
X-185502Y31054D01*
X-185492Y31029D01*
X-185407Y30908D01*
X-185327Y30783D01*
X-185308Y30765D01*
X-185293Y30743D01*
X-185183Y30644D01*
X-185076Y30541D01*
X-185054Y30527D01*
X-185034Y30510D01*
X-184904Y30438D01*
X-184777Y30362D01*
X-184752Y30354D01*
X-184729Y30341D01*
X-184586Y30301D01*
X-184445Y30256D01*
X-184419Y30254D01*
X-184394Y30246D01*
X-184150Y30227D01*
X-166623Y30227D01*
X-166623Y-203200D01*
X-166620Y-203226D01*
X-166622Y-203252D01*
X-166600Y-203399D01*
X-166583Y-203546D01*
X-166575Y-203571D01*
X-166571Y-203597D01*
X-166516Y-203735D01*
X-166466Y-203874D01*
X-166452Y-203896D01*
X-166442Y-203921D01*
X-166357Y-204042D01*
X-166277Y-204167D01*
X-166258Y-204185D01*
X-166243Y-204207D01*
X-166133Y-204306D01*
X-166026Y-204409D01*
X-166004Y-204423D01*
X-165984Y-204440D01*
X-165854Y-204512D01*
X-165727Y-204588D01*
X-165702Y-204596D01*
X-165679Y-204609D01*
X-165536Y-204649D01*
X-165395Y-204694D01*
X-165369Y-204696D01*
X-165344Y-204704D01*
X-165100Y-204723D01*
X-77723Y-204723D01*
X-77723Y-266700D01*
X-77720Y-266726D01*
X-77722Y-266752D01*
X-77700Y-266899D01*
X-77683Y-267046D01*
X-77675Y-267071D01*
X-77671Y-267097D01*
X-77616Y-267235D01*
X-77566Y-267374D01*
X-77552Y-267396D01*
X-77542Y-267421D01*
X-77457Y-267542D01*
X-77377Y-267667D01*
X-77358Y-267685D01*
X-77343Y-267707D01*
X-77233Y-267806D01*
X-77126Y-267909D01*
X-77104Y-267923D01*
X-77084Y-267940D01*
X-76954Y-268012D01*
X-76827Y-268088D01*
X-76802Y-268096D01*
X-76779Y-268109D01*
X-76636Y-268149D01*
X-76495Y-268194D01*
X-76469Y-268196D01*
X-76444Y-268204D01*
X-76200Y-268223D01*
X43970Y-268223D01*
X43996Y-268220D01*
G37*
G36*
X363532Y-337811D02*
X363532Y-337811D01*
X363590Y-337813D01*
X363672Y-337791D01*
X363756Y-337779D01*
X363809Y-337756D01*
X363865Y-337741D01*
X363938Y-337698D01*
X364015Y-337663D01*
X364060Y-337625D01*
X364110Y-337596D01*
X364168Y-337534D01*
X364232Y-337480D01*
X364264Y-337431D01*
X364304Y-337388D01*
X364343Y-337313D01*
X364390Y-337243D01*
X364407Y-337187D01*
X364434Y-337135D01*
X364445Y-337067D01*
X364475Y-336972D01*
X364478Y-336872D01*
X364489Y-336804D01*
X364489Y-291089D01*
X365263Y-289222D01*
X366692Y-287793D01*
X368559Y-287019D01*
X379820Y-287019D01*
X379878Y-287011D01*
X379936Y-287013D01*
X380018Y-286991D01*
X380102Y-286979D01*
X380155Y-286956D01*
X380211Y-286941D01*
X380284Y-286898D01*
X380361Y-286863D01*
X380406Y-286825D01*
X380456Y-286796D01*
X380514Y-286734D01*
X380578Y-286680D01*
X380610Y-286631D01*
X380650Y-286588D01*
X380689Y-286513D01*
X380736Y-286443D01*
X380753Y-286387D01*
X380780Y-286335D01*
X380791Y-286267D01*
X380821Y-286172D01*
X380824Y-286072D01*
X380835Y-286004D01*
X380835Y-283070D01*
X382619Y-278764D01*
X385914Y-275469D01*
X390334Y-273638D01*
X390359Y-273623D01*
X390387Y-273614D01*
X390481Y-273551D01*
X390579Y-273493D01*
X390599Y-273472D01*
X390623Y-273456D01*
X390696Y-273369D01*
X390774Y-273287D01*
X390787Y-273261D01*
X390806Y-273238D01*
X390852Y-273135D01*
X390904Y-273034D01*
X390910Y-273005D01*
X390922Y-272978D01*
X390937Y-272866D01*
X390959Y-272755D01*
X390957Y-272726D01*
X390961Y-272697D01*
X390945Y-272585D01*
X390935Y-272472D01*
X390924Y-272445D01*
X390920Y-272416D01*
X390873Y-272312D01*
X390833Y-272207D01*
X390815Y-272183D01*
X390803Y-272156D01*
X390729Y-272070D01*
X390661Y-271980D01*
X390638Y-271962D01*
X390619Y-271940D01*
X390552Y-271898D01*
X390433Y-271810D01*
X390375Y-271788D01*
X390334Y-271762D01*
X385914Y-269931D01*
X382619Y-266636D01*
X380835Y-262330D01*
X380835Y-257670D01*
X382619Y-253364D01*
X385914Y-250069D01*
X390334Y-248238D01*
X390359Y-248223D01*
X390387Y-248214D01*
X390481Y-248151D01*
X390579Y-248093D01*
X390599Y-248072D01*
X390623Y-248056D01*
X390696Y-247969D01*
X390774Y-247887D01*
X390787Y-247861D01*
X390806Y-247838D01*
X390852Y-247735D01*
X390904Y-247634D01*
X390910Y-247605D01*
X390922Y-247578D01*
X390937Y-247466D01*
X390959Y-247355D01*
X390957Y-247326D01*
X390961Y-247297D01*
X390944Y-247185D01*
X390935Y-247072D01*
X390924Y-247045D01*
X390920Y-247016D01*
X390873Y-246912D01*
X390833Y-246807D01*
X390815Y-246783D01*
X390803Y-246756D01*
X390729Y-246670D01*
X390661Y-246580D01*
X390638Y-246562D01*
X390619Y-246540D01*
X390552Y-246498D01*
X390433Y-246410D01*
X390375Y-246388D01*
X390334Y-246362D01*
X385914Y-244531D01*
X382619Y-241236D01*
X380835Y-236930D01*
X380835Y-232270D01*
X382619Y-227964D01*
X385914Y-224669D01*
X390334Y-222838D01*
X390359Y-222823D01*
X390387Y-222814D01*
X390481Y-222751D01*
X390579Y-222693D01*
X390599Y-222672D01*
X390623Y-222656D01*
X390696Y-222569D01*
X390774Y-222487D01*
X390787Y-222461D01*
X390806Y-222438D01*
X390852Y-222335D01*
X390904Y-222234D01*
X390910Y-222205D01*
X390922Y-222178D01*
X390937Y-222066D01*
X390959Y-221955D01*
X390957Y-221926D01*
X390961Y-221897D01*
X390944Y-221785D01*
X390935Y-221672D01*
X390924Y-221645D01*
X390920Y-221616D01*
X390873Y-221512D01*
X390833Y-221407D01*
X390815Y-221383D01*
X390803Y-221356D01*
X390729Y-221270D01*
X390661Y-221180D01*
X390638Y-221162D01*
X390619Y-221140D01*
X390552Y-221098D01*
X390433Y-221010D01*
X390375Y-220988D01*
X390334Y-220962D01*
X385914Y-219131D01*
X382619Y-215836D01*
X380835Y-211530D01*
X380835Y-206870D01*
X382619Y-202564D01*
X385914Y-199269D01*
X390334Y-197438D01*
X390359Y-197423D01*
X390387Y-197414D01*
X390481Y-197351D01*
X390579Y-197293D01*
X390599Y-197272D01*
X390623Y-197256D01*
X390696Y-197169D01*
X390774Y-197087D01*
X390787Y-197061D01*
X390806Y-197038D01*
X390852Y-196935D01*
X390904Y-196834D01*
X390910Y-196805D01*
X390922Y-196778D01*
X390937Y-196666D01*
X390959Y-196555D01*
X390957Y-196526D01*
X390961Y-196497D01*
X390945Y-196385D01*
X390935Y-196272D01*
X390924Y-196245D01*
X390920Y-196215D01*
X390873Y-196112D01*
X390833Y-196007D01*
X390815Y-195983D01*
X390803Y-195956D01*
X390729Y-195870D01*
X390661Y-195780D01*
X390638Y-195762D01*
X390619Y-195740D01*
X390552Y-195698D01*
X390433Y-195610D01*
X390375Y-195588D01*
X390334Y-195562D01*
X385914Y-193731D01*
X382619Y-190436D01*
X380835Y-186130D01*
X380835Y-181470D01*
X382619Y-177164D01*
X385914Y-173869D01*
X390334Y-172038D01*
X390359Y-172023D01*
X390387Y-172014D01*
X390481Y-171951D01*
X390579Y-171893D01*
X390599Y-171872D01*
X390623Y-171856D01*
X390696Y-171769D01*
X390774Y-171687D01*
X390787Y-171661D01*
X390806Y-171638D01*
X390852Y-171535D01*
X390904Y-171434D01*
X390910Y-171405D01*
X390922Y-171378D01*
X390937Y-171266D01*
X390959Y-171155D01*
X390957Y-171126D01*
X390961Y-171097D01*
X390945Y-170985D01*
X390935Y-170872D01*
X390924Y-170845D01*
X390920Y-170816D01*
X390873Y-170712D01*
X390833Y-170607D01*
X390815Y-170583D01*
X390803Y-170556D01*
X390729Y-170470D01*
X390661Y-170380D01*
X390638Y-170362D01*
X390619Y-170340D01*
X390552Y-170298D01*
X390433Y-170210D01*
X390375Y-170188D01*
X390334Y-170162D01*
X385914Y-168331D01*
X382619Y-165036D01*
X380835Y-160730D01*
X380835Y-156070D01*
X382619Y-151764D01*
X385914Y-148469D01*
X390334Y-146638D01*
X390359Y-146623D01*
X390387Y-146614D01*
X390481Y-146551D01*
X390579Y-146493D01*
X390599Y-146472D01*
X390623Y-146456D01*
X390696Y-146369D01*
X390774Y-146287D01*
X390787Y-146261D01*
X390806Y-146238D01*
X390852Y-146135D01*
X390904Y-146034D01*
X390910Y-146005D01*
X390922Y-145978D01*
X390937Y-145866D01*
X390959Y-145755D01*
X390957Y-145726D01*
X390961Y-145697D01*
X390945Y-145585D01*
X390935Y-145472D01*
X390924Y-145445D01*
X390920Y-145416D01*
X390873Y-145312D01*
X390833Y-145207D01*
X390815Y-145183D01*
X390803Y-145156D01*
X390729Y-145070D01*
X390661Y-144980D01*
X390638Y-144962D01*
X390619Y-144940D01*
X390552Y-144898D01*
X390433Y-144810D01*
X390375Y-144788D01*
X390334Y-144762D01*
X385914Y-142931D01*
X382619Y-139636D01*
X380835Y-135330D01*
X380835Y-130670D01*
X382619Y-126364D01*
X385914Y-123069D01*
X390334Y-121238D01*
X390359Y-121223D01*
X390387Y-121214D01*
X390481Y-121151D01*
X390579Y-121093D01*
X390599Y-121072D01*
X390623Y-121056D01*
X390696Y-120969D01*
X390774Y-120887D01*
X390787Y-120861D01*
X390806Y-120838D01*
X390852Y-120735D01*
X390904Y-120634D01*
X390910Y-120605D01*
X390922Y-120578D01*
X390937Y-120466D01*
X390959Y-120355D01*
X390957Y-120326D01*
X390961Y-120297D01*
X390945Y-120185D01*
X390935Y-120072D01*
X390924Y-120045D01*
X390920Y-120016D01*
X390873Y-119912D01*
X390833Y-119807D01*
X390815Y-119783D01*
X390803Y-119756D01*
X390729Y-119670D01*
X390661Y-119580D01*
X390638Y-119562D01*
X390619Y-119540D01*
X390552Y-119498D01*
X390433Y-119410D01*
X390375Y-119388D01*
X390334Y-119362D01*
X385914Y-117531D01*
X382619Y-114236D01*
X380835Y-109930D01*
X380835Y-105270D01*
X382619Y-100964D01*
X385914Y-97669D01*
X390334Y-95838D01*
X390359Y-95823D01*
X390387Y-95814D01*
X390481Y-95751D01*
X390579Y-95693D01*
X390599Y-95672D01*
X390623Y-95656D01*
X390696Y-95569D01*
X390774Y-95487D01*
X390787Y-95461D01*
X390806Y-95438D01*
X390852Y-95335D01*
X390904Y-95234D01*
X390910Y-95205D01*
X390922Y-95178D01*
X390937Y-95066D01*
X390959Y-94955D01*
X390957Y-94926D01*
X390961Y-94897D01*
X390945Y-94785D01*
X390935Y-94672D01*
X390924Y-94645D01*
X390920Y-94616D01*
X390873Y-94512D01*
X390833Y-94407D01*
X390815Y-94383D01*
X390803Y-94356D01*
X390729Y-94270D01*
X390661Y-94180D01*
X390638Y-94162D01*
X390619Y-94140D01*
X390552Y-94098D01*
X390433Y-94010D01*
X390375Y-93988D01*
X390334Y-93962D01*
X385914Y-92131D01*
X382619Y-88836D01*
X380835Y-84530D01*
X380835Y-79870D01*
X382619Y-75564D01*
X385914Y-72269D01*
X390334Y-70438D01*
X390359Y-70423D01*
X390387Y-70414D01*
X390481Y-70351D01*
X390579Y-70293D01*
X390599Y-70272D01*
X390623Y-70256D01*
X390696Y-70169D01*
X390774Y-70087D01*
X390787Y-70061D01*
X390806Y-70038D01*
X390852Y-69935D01*
X390904Y-69834D01*
X390910Y-69805D01*
X390922Y-69778D01*
X390937Y-69666D01*
X390959Y-69555D01*
X390957Y-69526D01*
X390961Y-69497D01*
X390945Y-69385D01*
X390935Y-69272D01*
X390924Y-69245D01*
X390920Y-69216D01*
X390873Y-69112D01*
X390833Y-69007D01*
X390815Y-68983D01*
X390803Y-68956D01*
X390729Y-68870D01*
X390661Y-68780D01*
X390638Y-68762D01*
X390619Y-68740D01*
X390552Y-68698D01*
X390433Y-68610D01*
X390375Y-68588D01*
X390334Y-68562D01*
X385914Y-66731D01*
X382619Y-63436D01*
X380835Y-59130D01*
X380835Y-54470D01*
X382619Y-50164D01*
X385914Y-46869D01*
X390220Y-45085D01*
X394880Y-45085D01*
X399186Y-46869D01*
X402481Y-50164D01*
X404312Y-54584D01*
X404327Y-54609D01*
X404336Y-54637D01*
X404399Y-54731D01*
X404457Y-54829D01*
X404478Y-54849D01*
X404494Y-54873D01*
X404581Y-54946D01*
X404663Y-55024D01*
X404689Y-55037D01*
X404712Y-55056D01*
X404815Y-55102D01*
X404916Y-55154D01*
X404945Y-55160D01*
X404972Y-55172D01*
X405084Y-55187D01*
X405195Y-55209D01*
X405224Y-55207D01*
X405253Y-55211D01*
X405365Y-55195D01*
X405478Y-55185D01*
X405505Y-55174D01*
X405535Y-55170D01*
X405638Y-55123D01*
X405743Y-55083D01*
X405767Y-55065D01*
X405794Y-55053D01*
X405880Y-54979D01*
X405970Y-54911D01*
X405988Y-54888D01*
X406010Y-54869D01*
X406052Y-54802D01*
X406140Y-54683D01*
X406162Y-54625D01*
X406188Y-54584D01*
X408019Y-50164D01*
X411314Y-46869D01*
X415620Y-45085D01*
X420280Y-45085D01*
X424586Y-46869D01*
X427881Y-50164D01*
X429665Y-54470D01*
X429665Y-59130D01*
X427881Y-63436D01*
X424586Y-66731D01*
X420166Y-68562D01*
X420141Y-68577D01*
X420113Y-68586D01*
X420019Y-68649D01*
X419921Y-68707D01*
X419901Y-68728D01*
X419877Y-68744D01*
X419804Y-68831D01*
X419726Y-68913D01*
X419713Y-68939D01*
X419694Y-68962D01*
X419648Y-69065D01*
X419596Y-69166D01*
X419590Y-69195D01*
X419578Y-69222D01*
X419563Y-69334D01*
X419541Y-69445D01*
X419543Y-69474D01*
X419539Y-69503D01*
X419555Y-69615D01*
X419565Y-69728D01*
X419576Y-69755D01*
X419580Y-69785D01*
X419627Y-69888D01*
X419667Y-69993D01*
X419685Y-70017D01*
X419697Y-70044D01*
X419771Y-70130D01*
X419839Y-70220D01*
X419862Y-70238D01*
X419881Y-70260D01*
X419948Y-70302D01*
X420067Y-70390D01*
X420125Y-70412D01*
X420166Y-70438D01*
X424586Y-72269D01*
X427881Y-75564D01*
X429665Y-79870D01*
X429665Y-84530D01*
X427881Y-88836D01*
X424586Y-92131D01*
X420280Y-93915D01*
X415620Y-93915D01*
X411314Y-92131D01*
X408019Y-88836D01*
X406188Y-84416D01*
X406173Y-84391D01*
X406164Y-84363D01*
X406101Y-84269D01*
X406043Y-84171D01*
X406022Y-84151D01*
X406006Y-84127D01*
X405919Y-84054D01*
X405837Y-83976D01*
X405811Y-83963D01*
X405788Y-83944D01*
X405685Y-83898D01*
X405584Y-83846D01*
X405555Y-83840D01*
X405528Y-83828D01*
X405416Y-83813D01*
X405305Y-83791D01*
X405276Y-83793D01*
X405247Y-83789D01*
X405135Y-83805D01*
X405022Y-83815D01*
X404995Y-83826D01*
X404966Y-83830D01*
X404862Y-83877D01*
X404757Y-83917D01*
X404733Y-83935D01*
X404706Y-83947D01*
X404620Y-84021D01*
X404530Y-84089D01*
X404512Y-84112D01*
X404490Y-84131D01*
X404448Y-84198D01*
X404360Y-84317D01*
X404338Y-84375D01*
X404312Y-84416D01*
X402481Y-88836D01*
X399186Y-92131D01*
X394766Y-93962D01*
X394741Y-93977D01*
X394713Y-93986D01*
X394619Y-94049D01*
X394521Y-94107D01*
X394501Y-94128D01*
X394477Y-94144D01*
X394404Y-94231D01*
X394326Y-94313D01*
X394313Y-94339D01*
X394294Y-94362D01*
X394248Y-94465D01*
X394196Y-94566D01*
X394190Y-94595D01*
X394178Y-94622D01*
X394163Y-94734D01*
X394141Y-94845D01*
X394143Y-94874D01*
X394139Y-94903D01*
X394155Y-95015D01*
X394165Y-95128D01*
X394176Y-95155D01*
X394180Y-95185D01*
X394227Y-95288D01*
X394267Y-95393D01*
X394285Y-95417D01*
X394297Y-95444D01*
X394371Y-95530D01*
X394439Y-95620D01*
X394462Y-95638D01*
X394481Y-95660D01*
X394548Y-95702D01*
X394667Y-95790D01*
X394725Y-95812D01*
X394766Y-95838D01*
X399186Y-97669D01*
X402481Y-100964D01*
X404265Y-105270D01*
X404265Y-109930D01*
X402481Y-114236D01*
X399186Y-117531D01*
X394766Y-119362D01*
X394741Y-119377D01*
X394713Y-119386D01*
X394619Y-119449D01*
X394521Y-119507D01*
X394501Y-119528D01*
X394477Y-119544D01*
X394404Y-119631D01*
X394326Y-119713D01*
X394313Y-119739D01*
X394294Y-119762D01*
X394248Y-119865D01*
X394196Y-119966D01*
X394190Y-119995D01*
X394178Y-120022D01*
X394163Y-120134D01*
X394141Y-120245D01*
X394143Y-120274D01*
X394139Y-120303D01*
X394155Y-120415D01*
X394165Y-120528D01*
X394176Y-120555D01*
X394180Y-120585D01*
X394227Y-120688D01*
X394267Y-120793D01*
X394285Y-120817D01*
X394297Y-120844D01*
X394371Y-120930D01*
X394439Y-121020D01*
X394462Y-121038D01*
X394481Y-121060D01*
X394548Y-121102D01*
X394667Y-121190D01*
X394725Y-121212D01*
X394766Y-121238D01*
X399186Y-123069D01*
X402481Y-126364D01*
X404312Y-130784D01*
X404327Y-130809D01*
X404336Y-130837D01*
X404399Y-130931D01*
X404457Y-131029D01*
X404478Y-131049D01*
X404494Y-131073D01*
X404581Y-131146D01*
X404663Y-131224D01*
X404689Y-131237D01*
X404712Y-131256D01*
X404815Y-131302D01*
X404916Y-131354D01*
X404945Y-131360D01*
X404972Y-131372D01*
X405084Y-131387D01*
X405195Y-131409D01*
X405224Y-131407D01*
X405253Y-131411D01*
X405365Y-131395D01*
X405478Y-131385D01*
X405505Y-131374D01*
X405535Y-131370D01*
X405638Y-131323D01*
X405743Y-131283D01*
X405767Y-131265D01*
X405794Y-131253D01*
X405880Y-131179D01*
X405970Y-131111D01*
X405988Y-131088D01*
X406010Y-131069D01*
X406052Y-131002D01*
X406140Y-130883D01*
X406162Y-130825D01*
X406188Y-130784D01*
X408019Y-126364D01*
X411314Y-123069D01*
X415620Y-121285D01*
X420280Y-121285D01*
X424586Y-123069D01*
X427881Y-126364D01*
X429665Y-130670D01*
X429665Y-135330D01*
X427881Y-139636D01*
X424586Y-142931D01*
X420166Y-144762D01*
X420141Y-144777D01*
X420113Y-144786D01*
X420019Y-144849D01*
X419921Y-144907D01*
X419901Y-144928D01*
X419877Y-144944D01*
X419804Y-145031D01*
X419726Y-145113D01*
X419713Y-145139D01*
X419694Y-145162D01*
X419648Y-145265D01*
X419596Y-145366D01*
X419590Y-145395D01*
X419578Y-145422D01*
X419563Y-145534D01*
X419541Y-145645D01*
X419543Y-145674D01*
X419539Y-145703D01*
X419555Y-145815D01*
X419565Y-145928D01*
X419576Y-145955D01*
X419580Y-145985D01*
X419627Y-146088D01*
X419667Y-146193D01*
X419685Y-146217D01*
X419697Y-146244D01*
X419771Y-146330D01*
X419839Y-146420D01*
X419862Y-146438D01*
X419881Y-146460D01*
X419948Y-146502D01*
X420067Y-146590D01*
X420125Y-146612D01*
X420166Y-146638D01*
X424586Y-148469D01*
X427881Y-151764D01*
X429665Y-156070D01*
X429665Y-160730D01*
X427881Y-165036D01*
X424586Y-168331D01*
X420280Y-170115D01*
X415620Y-170115D01*
X411314Y-168331D01*
X408019Y-165036D01*
X406188Y-160616D01*
X406173Y-160591D01*
X406164Y-160563D01*
X406101Y-160469D01*
X406043Y-160371D01*
X406022Y-160351D01*
X406006Y-160327D01*
X405919Y-160254D01*
X405837Y-160176D01*
X405811Y-160163D01*
X405788Y-160144D01*
X405685Y-160098D01*
X405584Y-160046D01*
X405555Y-160040D01*
X405528Y-160028D01*
X405416Y-160013D01*
X405305Y-159991D01*
X405276Y-159993D01*
X405247Y-159989D01*
X405135Y-160005D01*
X405022Y-160015D01*
X404995Y-160026D01*
X404966Y-160030D01*
X404862Y-160077D01*
X404757Y-160117D01*
X404733Y-160135D01*
X404706Y-160147D01*
X404620Y-160221D01*
X404530Y-160289D01*
X404512Y-160312D01*
X404490Y-160331D01*
X404448Y-160398D01*
X404360Y-160517D01*
X404338Y-160575D01*
X404312Y-160616D01*
X402481Y-165036D01*
X399186Y-168331D01*
X394766Y-170162D01*
X394741Y-170177D01*
X394713Y-170186D01*
X394619Y-170249D01*
X394521Y-170307D01*
X394501Y-170328D01*
X394477Y-170344D01*
X394404Y-170431D01*
X394326Y-170513D01*
X394313Y-170539D01*
X394294Y-170562D01*
X394248Y-170665D01*
X394196Y-170766D01*
X394190Y-170795D01*
X394178Y-170822D01*
X394163Y-170934D01*
X394141Y-171045D01*
X394143Y-171074D01*
X394139Y-171103D01*
X394155Y-171215D01*
X394165Y-171328D01*
X394176Y-171355D01*
X394180Y-171385D01*
X394227Y-171488D01*
X394267Y-171593D01*
X394285Y-171617D01*
X394297Y-171644D01*
X394371Y-171730D01*
X394439Y-171820D01*
X394462Y-171838D01*
X394481Y-171860D01*
X394548Y-171902D01*
X394667Y-171990D01*
X394725Y-172012D01*
X394766Y-172038D01*
X399186Y-173869D01*
X402481Y-177164D01*
X404265Y-181470D01*
X404265Y-186130D01*
X402481Y-190436D01*
X399186Y-193731D01*
X394766Y-195562D01*
X394741Y-195577D01*
X394713Y-195586D01*
X394619Y-195649D01*
X394521Y-195707D01*
X394501Y-195728D01*
X394477Y-195744D01*
X394404Y-195831D01*
X394326Y-195913D01*
X394313Y-195939D01*
X394294Y-195962D01*
X394248Y-196065D01*
X394196Y-196166D01*
X394190Y-196195D01*
X394178Y-196222D01*
X394163Y-196334D01*
X394141Y-196445D01*
X394143Y-196474D01*
X394139Y-196503D01*
X394155Y-196615D01*
X394165Y-196728D01*
X394176Y-196755D01*
X394180Y-196784D01*
X394227Y-196888D01*
X394267Y-196993D01*
X394285Y-197017D01*
X394297Y-197044D01*
X394371Y-197130D01*
X394439Y-197220D01*
X394462Y-197238D01*
X394481Y-197260D01*
X394548Y-197302D01*
X394667Y-197390D01*
X394725Y-197412D01*
X394766Y-197438D01*
X399186Y-199269D01*
X402481Y-202564D01*
X404312Y-206984D01*
X404327Y-207009D01*
X404336Y-207037D01*
X404399Y-207131D01*
X404457Y-207229D01*
X404478Y-207249D01*
X404494Y-207273D01*
X404581Y-207346D01*
X404663Y-207424D01*
X404689Y-207437D01*
X404712Y-207456D01*
X404815Y-207502D01*
X404916Y-207554D01*
X404945Y-207560D01*
X404972Y-207572D01*
X405084Y-207587D01*
X405195Y-207609D01*
X405224Y-207607D01*
X405253Y-207611D01*
X405365Y-207594D01*
X405478Y-207585D01*
X405505Y-207574D01*
X405535Y-207570D01*
X405638Y-207523D01*
X405743Y-207483D01*
X405767Y-207465D01*
X405794Y-207453D01*
X405880Y-207380D01*
X405970Y-207311D01*
X405988Y-207288D01*
X406010Y-207269D01*
X406052Y-207202D01*
X406140Y-207083D01*
X406162Y-207025D01*
X406188Y-206984D01*
X408019Y-202564D01*
X411314Y-199269D01*
X415620Y-197485D01*
X420280Y-197485D01*
X424586Y-199269D01*
X427881Y-202564D01*
X429665Y-206870D01*
X429665Y-211530D01*
X427881Y-215836D01*
X424586Y-219131D01*
X420166Y-220962D01*
X420141Y-220977D01*
X420113Y-220986D01*
X420019Y-221049D01*
X419921Y-221107D01*
X419901Y-221128D01*
X419877Y-221144D01*
X419804Y-221231D01*
X419726Y-221313D01*
X419713Y-221339D01*
X419694Y-221362D01*
X419648Y-221465D01*
X419596Y-221566D01*
X419590Y-221595D01*
X419578Y-221622D01*
X419563Y-221734D01*
X419541Y-221845D01*
X419543Y-221874D01*
X419539Y-221903D01*
X419556Y-222015D01*
X419565Y-222128D01*
X419576Y-222155D01*
X419580Y-222185D01*
X419627Y-222288D01*
X419667Y-222393D01*
X419685Y-222417D01*
X419697Y-222444D01*
X419770Y-222530D01*
X419839Y-222620D01*
X419862Y-222638D01*
X419881Y-222660D01*
X419948Y-222702D01*
X420067Y-222790D01*
X420125Y-222812D01*
X420166Y-222838D01*
X424586Y-224669D01*
X427881Y-227964D01*
X429665Y-232270D01*
X429665Y-236930D01*
X427881Y-241236D01*
X427011Y-242106D01*
X426993Y-242130D01*
X426971Y-242149D01*
X426908Y-242243D01*
X426840Y-242333D01*
X426830Y-242361D01*
X426813Y-242385D01*
X426779Y-242493D01*
X426739Y-242599D01*
X426736Y-242628D01*
X426728Y-242656D01*
X426725Y-242770D01*
X426715Y-242882D01*
X426721Y-242911D01*
X426720Y-242940D01*
X426749Y-243050D01*
X426771Y-243161D01*
X426785Y-243187D01*
X426792Y-243215D01*
X426850Y-243313D01*
X426902Y-243413D01*
X426922Y-243435D01*
X426937Y-243460D01*
X427020Y-243537D01*
X427098Y-243619D01*
X427123Y-243634D01*
X427145Y-243654D01*
X427246Y-243706D01*
X427343Y-243763D01*
X427372Y-243770D01*
X427398Y-243784D01*
X427475Y-243797D01*
X427619Y-243833D01*
X427681Y-243831D01*
X427729Y-243839D01*
X432811Y-243839D01*
X434678Y-244613D01*
X436107Y-246042D01*
X436881Y-247909D01*
X436881Y-314413D01*
X436893Y-314500D01*
X436896Y-314587D01*
X436913Y-314640D01*
X436921Y-314695D01*
X436956Y-314774D01*
X436983Y-314858D01*
X437011Y-314897D01*
X437037Y-314954D01*
X437133Y-315067D01*
X437178Y-315131D01*
X437344Y-315297D01*
X437368Y-315315D01*
X437387Y-315337D01*
X437481Y-315400D01*
X437571Y-315468D01*
X437599Y-315478D01*
X437623Y-315495D01*
X437731Y-315529D01*
X437837Y-315569D01*
X437866Y-315572D01*
X437894Y-315580D01*
X438007Y-315583D01*
X438120Y-315593D01*
X438149Y-315587D01*
X438178Y-315588D01*
X438288Y-315559D01*
X438399Y-315537D01*
X438425Y-315523D01*
X438453Y-315516D01*
X438551Y-315458D01*
X438651Y-315406D01*
X438673Y-315386D01*
X438698Y-315371D01*
X438775Y-315288D01*
X438857Y-315210D01*
X438872Y-315185D01*
X438892Y-315163D01*
X438944Y-315063D01*
X439001Y-314965D01*
X439008Y-314936D01*
X439022Y-314910D01*
X439035Y-314833D01*
X439071Y-314689D01*
X439069Y-314627D01*
X439077Y-314579D01*
X439077Y26670D01*
X439069Y26726D01*
X439071Y26772D01*
X439070Y26773D01*
X439071Y26786D01*
X439049Y26868D01*
X439037Y26952D01*
X439014Y27005D01*
X438999Y27061D01*
X438956Y27134D01*
X438921Y27211D01*
X438883Y27256D01*
X438854Y27306D01*
X438792Y27364D01*
X438738Y27428D01*
X438689Y27460D01*
X438646Y27500D01*
X438571Y27539D01*
X438501Y27586D01*
X438445Y27603D01*
X438393Y27630D01*
X438325Y27641D01*
X438230Y27671D01*
X438130Y27674D01*
X438062Y27685D01*
X59690Y27685D01*
X59632Y27677D01*
X59574Y27679D01*
X59492Y27657D01*
X59409Y27645D01*
X59355Y27622D01*
X59299Y27607D01*
X59226Y27564D01*
X59149Y27529D01*
X59104Y27491D01*
X59054Y27462D01*
X58996Y27400D01*
X58932Y27346D01*
X58900Y27297D01*
X58860Y27254D01*
X58821Y27179D01*
X58775Y27109D01*
X58757Y27053D01*
X58730Y27001D01*
X58719Y26933D01*
X58689Y26838D01*
X58686Y26738D01*
X58675Y26670D01*
X58675Y-177800D01*
X58683Y-177858D01*
X58681Y-177916D01*
X58703Y-177998D01*
X58715Y-178082D01*
X58739Y-178135D01*
X58753Y-178191D01*
X58796Y-178264D01*
X58831Y-178341D01*
X58869Y-178386D01*
X58899Y-178436D01*
X58960Y-178494D01*
X59015Y-178558D01*
X59063Y-178590D01*
X59106Y-178630D01*
X59181Y-178669D01*
X59251Y-178716D01*
X59307Y-178733D01*
X59359Y-178760D01*
X59427Y-178771D01*
X59522Y-178801D01*
X59622Y-178804D01*
X59690Y-178815D01*
X103125Y-178815D01*
X103125Y-215777D01*
X103125Y-215778D01*
X103125Y-215780D01*
X103145Y-215919D01*
X103165Y-216058D01*
X103165Y-216060D01*
X103165Y-216061D01*
X103222Y-216187D01*
X103281Y-216318D01*
X103282Y-216319D01*
X103283Y-216320D01*
X103374Y-216428D01*
X103465Y-216535D01*
X103466Y-216535D01*
X103467Y-216537D01*
X103480Y-216545D01*
X103701Y-216692D01*
X103730Y-216701D01*
X103751Y-216715D01*
X104633Y-217080D01*
X106770Y-219217D01*
X107927Y-222009D01*
X107927Y-225031D01*
X106770Y-227823D01*
X104633Y-229960D01*
X103751Y-230325D01*
X103750Y-230326D01*
X103749Y-230327D01*
X103631Y-230397D01*
X103507Y-230470D01*
X103506Y-230471D01*
X103504Y-230472D01*
X103407Y-230576D01*
X103311Y-230677D01*
X103311Y-230678D01*
X103310Y-230679D01*
X103245Y-230805D01*
X103181Y-230929D01*
X103181Y-230931D01*
X103180Y-230932D01*
X103178Y-230947D01*
X103126Y-231208D01*
X103129Y-231239D01*
X103125Y-231263D01*
X103125Y-305055D01*
X-205995Y-305055D01*
X-205995Y287020D01*
X-206003Y287078D01*
X-206001Y287136D01*
X-206023Y287218D01*
X-206035Y287302D01*
X-206059Y287355D01*
X-206073Y287411D01*
X-206116Y287484D01*
X-206151Y287561D01*
X-206189Y287606D01*
X-206219Y287656D01*
X-206280Y287714D01*
X-206335Y287778D01*
X-206383Y287810D01*
X-206426Y287850D01*
X-206501Y287889D01*
X-206571Y287936D01*
X-206627Y287953D01*
X-206679Y287980D01*
X-206747Y287991D01*
X-206842Y288021D01*
X-206942Y288024D01*
X-207010Y288035D01*
X-438062Y288035D01*
X-438120Y288027D01*
X-438178Y288029D01*
X-438260Y288007D01*
X-438344Y287995D01*
X-438397Y287972D01*
X-438453Y287957D01*
X-438526Y287914D01*
X-438603Y287879D01*
X-438648Y287841D01*
X-438698Y287812D01*
X-438756Y287750D01*
X-438820Y287696D01*
X-438852Y287647D01*
X-438892Y287604D01*
X-438931Y287529D01*
X-438978Y287459D01*
X-438995Y287403D01*
X-439022Y287351D01*
X-439033Y287283D01*
X-439063Y287188D01*
X-439066Y287088D01*
X-439077Y287020D01*
X-439077Y-314579D01*
X-439073Y-314608D01*
X-439076Y-314637D01*
X-439053Y-314748D01*
X-439037Y-314861D01*
X-439025Y-314887D01*
X-439020Y-314916D01*
X-438968Y-315017D01*
X-438921Y-315120D01*
X-438902Y-315142D01*
X-438889Y-315168D01*
X-438811Y-315250D01*
X-438738Y-315337D01*
X-438713Y-315353D01*
X-438693Y-315375D01*
X-438595Y-315432D01*
X-438501Y-315495D01*
X-438473Y-315504D01*
X-438448Y-315518D01*
X-438338Y-315546D01*
X-438230Y-315580D01*
X-438200Y-315581D01*
X-438172Y-315588D01*
X-438059Y-315585D01*
X-437946Y-315588D01*
X-437917Y-315580D01*
X-437888Y-315579D01*
X-437780Y-315544D01*
X-437671Y-315516D01*
X-437645Y-315501D01*
X-437617Y-315492D01*
X-437554Y-315446D01*
X-437426Y-315371D01*
X-437383Y-315325D01*
X-437344Y-315297D01*
X-432836Y-310789D01*
X-424507Y-307339D01*
X-415493Y-307339D01*
X-407164Y-310789D01*
X-400789Y-317164D01*
X-397339Y-325493D01*
X-397339Y-330200D01*
X-397331Y-330258D01*
X-397333Y-330316D01*
X-397311Y-330398D01*
X-397299Y-330482D01*
X-397276Y-330535D01*
X-397261Y-330591D01*
X-397218Y-330664D01*
X-397183Y-330741D01*
X-397145Y-330786D01*
X-397116Y-330836D01*
X-397054Y-330894D01*
X-397000Y-330958D01*
X-396951Y-330990D01*
X-396908Y-331030D01*
X-396833Y-331069D01*
X-396763Y-331116D01*
X-396707Y-331133D01*
X-396655Y-331160D01*
X-396587Y-331171D01*
X-396492Y-331201D01*
X-396392Y-331204D01*
X-396324Y-331215D01*
X-163575Y-331215D01*
X-163575Y-336804D01*
X-163567Y-336862D01*
X-163569Y-336920D01*
X-163547Y-337002D01*
X-163535Y-337086D01*
X-163512Y-337139D01*
X-163497Y-337195D01*
X-163454Y-337268D01*
X-163419Y-337345D01*
X-163381Y-337390D01*
X-163352Y-337440D01*
X-163290Y-337498D01*
X-163236Y-337562D01*
X-163187Y-337594D01*
X-163144Y-337634D01*
X-163069Y-337673D01*
X-162999Y-337720D01*
X-162943Y-337737D01*
X-162891Y-337764D01*
X-162823Y-337775D01*
X-162728Y-337805D01*
X-162628Y-337808D01*
X-162560Y-337819D01*
X363474Y-337819D01*
X363532Y-337811D01*
G37*
G36*
X431858Y-409947D02*
X431858Y-409947D01*
X431916Y-409949D01*
X431998Y-409927D01*
X432082Y-409915D01*
X432135Y-409892D01*
X432191Y-409877D01*
X432264Y-409834D01*
X432341Y-409799D01*
X432386Y-409761D01*
X432436Y-409732D01*
X432494Y-409670D01*
X432558Y-409616D01*
X432590Y-409567D01*
X432630Y-409524D01*
X432669Y-409449D01*
X432716Y-409379D01*
X432733Y-409323D01*
X432760Y-409271D01*
X432771Y-409203D01*
X432801Y-409108D01*
X432804Y-409008D01*
X432815Y-408940D01*
X432815Y-350739D01*
X432799Y-350625D01*
X432789Y-350511D01*
X432779Y-350485D01*
X432775Y-350457D01*
X432728Y-350352D01*
X432687Y-350246D01*
X432671Y-350223D01*
X432659Y-350198D01*
X432585Y-350110D01*
X432516Y-350019D01*
X432493Y-350002D01*
X432476Y-349981D01*
X432380Y-349917D01*
X432288Y-349849D01*
X432262Y-349839D01*
X432239Y-349823D01*
X432129Y-349789D01*
X432022Y-349748D01*
X431994Y-349746D01*
X431968Y-349738D01*
X431853Y-349735D01*
X431739Y-349726D01*
X431714Y-349731D01*
X431684Y-349730D01*
X431427Y-349797D01*
X431411Y-349801D01*
X424507Y-352661D01*
X415493Y-352661D01*
X407164Y-349211D01*
X400789Y-342836D01*
X397339Y-334507D01*
X397339Y-325493D01*
X400789Y-317164D01*
X407164Y-310789D01*
X415493Y-307339D01*
X424507Y-307339D01*
X431411Y-310199D01*
X431523Y-310228D01*
X431632Y-310262D01*
X431660Y-310263D01*
X431687Y-310270D01*
X431801Y-310267D01*
X431916Y-310270D01*
X431943Y-310263D01*
X431971Y-310262D01*
X432080Y-310227D01*
X432191Y-310198D01*
X432215Y-310184D01*
X432242Y-310175D01*
X432337Y-310111D01*
X432436Y-310053D01*
X432455Y-310032D01*
X432478Y-310017D01*
X432552Y-309929D01*
X432630Y-309845D01*
X432643Y-309821D01*
X432661Y-309799D01*
X432708Y-309694D01*
X432760Y-309592D01*
X432764Y-309567D01*
X432776Y-309539D01*
X432813Y-309276D01*
X432815Y-309261D01*
X432815Y-248920D01*
X432807Y-248862D01*
X432809Y-248804D01*
X432787Y-248722D01*
X432775Y-248639D01*
X432752Y-248585D01*
X432737Y-248529D01*
X432694Y-248456D01*
X432659Y-248379D01*
X432621Y-248334D01*
X432592Y-248284D01*
X432530Y-248226D01*
X432476Y-248162D01*
X432427Y-248130D01*
X432384Y-248090D01*
X432309Y-248051D01*
X432239Y-248005D01*
X432183Y-247987D01*
X432131Y-247960D01*
X432063Y-247949D01*
X431968Y-247919D01*
X431868Y-247916D01*
X431800Y-247905D01*
X419627Y-247905D01*
X419565Y-247914D01*
X419502Y-247913D01*
X419425Y-247933D01*
X419346Y-247945D01*
X419288Y-247970D01*
X419227Y-247987D01*
X419159Y-248028D01*
X419086Y-248061D01*
X419038Y-248102D01*
X418984Y-248134D01*
X418930Y-248193D01*
X418869Y-248245D01*
X418834Y-248297D01*
X418792Y-248343D01*
X418756Y-248415D01*
X418712Y-248481D01*
X418693Y-248541D01*
X418665Y-248598D01*
X418650Y-248676D01*
X418626Y-248752D01*
X418624Y-248815D01*
X418613Y-248877D01*
X418621Y-248957D01*
X418619Y-249036D01*
X418635Y-249097D01*
X418641Y-249160D01*
X418670Y-249234D01*
X418691Y-249311D01*
X418723Y-249366D01*
X418746Y-249424D01*
X418795Y-249487D01*
X418836Y-249556D01*
X418882Y-249599D01*
X418920Y-249649D01*
X418985Y-249696D01*
X419043Y-249750D01*
X419099Y-249779D01*
X419150Y-249816D01*
X419213Y-249837D01*
X419296Y-249880D01*
X419384Y-249894D01*
X419468Y-249923D01*
X420336Y-250060D01*
X421862Y-250556D01*
X423291Y-251284D01*
X424589Y-252227D01*
X425723Y-253361D01*
X426666Y-254659D01*
X427394Y-256088D01*
X427890Y-257614D01*
X427946Y-257969D01*
X418966Y-257969D01*
X418908Y-257977D01*
X418850Y-257975D01*
X418768Y-257997D01*
X418685Y-258009D01*
X418631Y-258033D01*
X418575Y-258047D01*
X418502Y-258090D01*
X418425Y-258125D01*
X418381Y-258163D01*
X418330Y-258193D01*
X418273Y-258254D01*
X418208Y-258309D01*
X418176Y-258357D01*
X418136Y-258400D01*
X418097Y-258475D01*
X418051Y-258545D01*
X418033Y-258601D01*
X418006Y-258653D01*
X417995Y-258721D01*
X417965Y-258816D01*
X417962Y-258916D01*
X417951Y-258984D01*
X417951Y-260001D01*
X417949Y-260001D01*
X417949Y-258984D01*
X417941Y-258926D01*
X417942Y-258868D01*
X417921Y-258786D01*
X417909Y-258703D01*
X417885Y-258649D01*
X417871Y-258593D01*
X417828Y-258520D01*
X417793Y-258443D01*
X417755Y-258398D01*
X417725Y-258348D01*
X417664Y-258290D01*
X417609Y-258226D01*
X417561Y-258194D01*
X417518Y-258154D01*
X417443Y-258115D01*
X417373Y-258069D01*
X417317Y-258051D01*
X417265Y-258024D01*
X417197Y-258013D01*
X417102Y-257983D01*
X417002Y-257980D01*
X416934Y-257969D01*
X407954Y-257969D01*
X408010Y-257614D01*
X408506Y-256088D01*
X409234Y-254659D01*
X410177Y-253361D01*
X411311Y-252227D01*
X412609Y-251284D01*
X414038Y-250556D01*
X415564Y-250060D01*
X416432Y-249923D01*
X416492Y-249904D01*
X416554Y-249895D01*
X416627Y-249863D01*
X416703Y-249839D01*
X416756Y-249805D01*
X416814Y-249779D01*
X416875Y-249728D01*
X416941Y-249684D01*
X416982Y-249636D01*
X417031Y-249596D01*
X417075Y-249529D01*
X417127Y-249469D01*
X417153Y-249411D01*
X417188Y-249359D01*
X417212Y-249283D01*
X417246Y-249210D01*
X417255Y-249148D01*
X417274Y-249088D01*
X417276Y-249008D01*
X417288Y-248929D01*
X417280Y-248867D01*
X417281Y-248804D01*
X417261Y-248726D01*
X417251Y-248647D01*
X417225Y-248590D01*
X417209Y-248529D01*
X417169Y-248460D01*
X417137Y-248387D01*
X417096Y-248338D01*
X417064Y-248284D01*
X417006Y-248230D01*
X416955Y-248168D01*
X416903Y-248133D01*
X416857Y-248090D01*
X416786Y-248053D01*
X416720Y-248009D01*
X416660Y-247989D01*
X416604Y-247960D01*
X416539Y-247949D01*
X416450Y-247920D01*
X416361Y-247919D01*
X416273Y-247905D01*
X400050Y-247905D01*
X399992Y-247913D01*
X399934Y-247911D01*
X399852Y-247933D01*
X399769Y-247945D01*
X399715Y-247969D01*
X399659Y-247983D01*
X399586Y-248026D01*
X399509Y-248061D01*
X399464Y-248099D01*
X399414Y-248129D01*
X399356Y-248190D01*
X399292Y-248245D01*
X399260Y-248293D01*
X399220Y-248336D01*
X399181Y-248411D01*
X399135Y-248481D01*
X399117Y-248537D01*
X399090Y-248589D01*
X399079Y-248657D01*
X399049Y-248752D01*
X399046Y-248852D01*
X399035Y-248920D01*
X399035Y-252371D01*
X399047Y-252457D01*
X399050Y-252545D01*
X399067Y-252597D01*
X399075Y-252652D01*
X399110Y-252732D01*
X399137Y-252815D01*
X399165Y-252855D01*
X399191Y-252912D01*
X399287Y-253025D01*
X399332Y-253089D01*
X400759Y-254515D01*
X402233Y-258074D01*
X402233Y-261926D01*
X400759Y-265485D01*
X399332Y-266911D01*
X399280Y-266981D01*
X399220Y-267045D01*
X399194Y-267094D01*
X399161Y-267139D01*
X399130Y-267220D01*
X399090Y-267298D01*
X399082Y-267346D01*
X399060Y-267404D01*
X399048Y-267552D01*
X399035Y-267629D01*
X399035Y-277771D01*
X399047Y-277857D01*
X399050Y-277945D01*
X399067Y-277997D01*
X399075Y-278052D01*
X399110Y-278132D01*
X399137Y-278215D01*
X399165Y-278255D01*
X399191Y-278312D01*
X399287Y-278425D01*
X399332Y-278489D01*
X400759Y-279915D01*
X402233Y-283474D01*
X402233Y-287326D01*
X400759Y-290885D01*
X398035Y-293609D01*
X394476Y-295083D01*
X390624Y-295083D01*
X387065Y-293609D01*
X384839Y-291382D01*
X384769Y-291330D01*
X384705Y-291270D01*
X384656Y-291244D01*
X384611Y-291211D01*
X384530Y-291180D01*
X384452Y-291140D01*
X384404Y-291132D01*
X384346Y-291110D01*
X384198Y-291098D01*
X384121Y-291085D01*
X369570Y-291085D01*
X369512Y-291093D01*
X369454Y-291091D01*
X369372Y-291113D01*
X369289Y-291125D01*
X369235Y-291149D01*
X369179Y-291163D01*
X369106Y-291206D01*
X369029Y-291241D01*
X368984Y-291279D01*
X368934Y-291309D01*
X368876Y-291370D01*
X368812Y-291425D01*
X368780Y-291473D01*
X368740Y-291516D01*
X368701Y-291591D01*
X368655Y-291661D01*
X368637Y-291717D01*
X368610Y-291769D01*
X368599Y-291837D01*
X368569Y-291932D01*
X368566Y-292032D01*
X368555Y-292100D01*
X368555Y-341885D01*
X-269240Y-341885D01*
X-269298Y-341893D01*
X-269356Y-341891D01*
X-269438Y-341913D01*
X-269522Y-341925D01*
X-269575Y-341949D01*
X-269631Y-341963D01*
X-269704Y-342006D01*
X-269781Y-342041D01*
X-269826Y-342079D01*
X-269876Y-342109D01*
X-269934Y-342170D01*
X-269998Y-342225D01*
X-270030Y-342273D01*
X-270070Y-342316D01*
X-270109Y-342391D01*
X-270156Y-342461D01*
X-270173Y-342517D01*
X-270200Y-342569D01*
X-270211Y-342637D01*
X-270241Y-342732D01*
X-270244Y-342832D01*
X-270255Y-342900D01*
X-270255Y-408940D01*
X-270247Y-408998D01*
X-270249Y-409056D01*
X-270227Y-409138D01*
X-270215Y-409222D01*
X-270192Y-409275D01*
X-270177Y-409331D01*
X-270134Y-409404D01*
X-270099Y-409481D01*
X-270061Y-409526D01*
X-270032Y-409576D01*
X-269970Y-409634D01*
X-269916Y-409698D01*
X-269867Y-409730D01*
X-269824Y-409770D01*
X-269749Y-409809D01*
X-269679Y-409856D01*
X-269623Y-409873D01*
X-269571Y-409900D01*
X-269503Y-409911D01*
X-269408Y-409941D01*
X-269308Y-409944D01*
X-269240Y-409955D01*
X431800Y-409955D01*
X431858Y-409947D01*
G37*
%LPC*%
G36*
X-259780Y-147115D02*
X-259780Y-147115D01*
X-264086Y-145331D01*
X-267381Y-142036D01*
X-269165Y-137730D01*
X-269165Y-133070D01*
X-267381Y-128764D01*
X-264086Y-125469D01*
X-259666Y-123638D01*
X-259641Y-123623D01*
X-259613Y-123614D01*
X-259519Y-123551D01*
X-259421Y-123493D01*
X-259401Y-123472D01*
X-259377Y-123456D01*
X-259304Y-123369D01*
X-259226Y-123287D01*
X-259213Y-123261D01*
X-259194Y-123238D01*
X-259148Y-123135D01*
X-259096Y-123034D01*
X-259090Y-123005D01*
X-259078Y-122978D01*
X-259063Y-122866D01*
X-259041Y-122755D01*
X-259043Y-122726D01*
X-259039Y-122697D01*
X-259055Y-122585D01*
X-259065Y-122472D01*
X-259076Y-122445D01*
X-259080Y-122415D01*
X-259127Y-122312D01*
X-259167Y-122207D01*
X-259185Y-122183D01*
X-259197Y-122156D01*
X-259271Y-122070D01*
X-259339Y-121980D01*
X-259362Y-121962D01*
X-259381Y-121940D01*
X-259448Y-121898D01*
X-259567Y-121810D01*
X-259625Y-121788D01*
X-259666Y-121762D01*
X-264086Y-119931D01*
X-267381Y-116636D01*
X-269165Y-112330D01*
X-269165Y-107670D01*
X-267381Y-103364D01*
X-264086Y-100069D01*
X-259666Y-98238D01*
X-259641Y-98223D01*
X-259613Y-98214D01*
X-259519Y-98151D01*
X-259421Y-98093D01*
X-259401Y-98072D01*
X-259377Y-98056D01*
X-259304Y-97969D01*
X-259226Y-97887D01*
X-259213Y-97861D01*
X-259194Y-97838D01*
X-259148Y-97735D01*
X-259096Y-97634D01*
X-259090Y-97605D01*
X-259078Y-97578D01*
X-259063Y-97466D01*
X-259041Y-97355D01*
X-259043Y-97326D01*
X-259039Y-97297D01*
X-259055Y-97185D01*
X-259065Y-97072D01*
X-259076Y-97045D01*
X-259080Y-97016D01*
X-259127Y-96912D01*
X-259167Y-96807D01*
X-259185Y-96783D01*
X-259197Y-96756D01*
X-259271Y-96670D01*
X-259339Y-96580D01*
X-259362Y-96562D01*
X-259381Y-96540D01*
X-259448Y-96498D01*
X-259567Y-96410D01*
X-259625Y-96388D01*
X-259666Y-96362D01*
X-264086Y-94531D01*
X-267381Y-91236D01*
X-269165Y-86930D01*
X-269165Y-82270D01*
X-267381Y-77964D01*
X-264086Y-74669D01*
X-259666Y-72838D01*
X-259641Y-72823D01*
X-259613Y-72814D01*
X-259519Y-72751D01*
X-259421Y-72693D01*
X-259401Y-72672D01*
X-259377Y-72656D01*
X-259304Y-72569D01*
X-259226Y-72487D01*
X-259213Y-72461D01*
X-259194Y-72438D01*
X-259148Y-72335D01*
X-259096Y-72234D01*
X-259090Y-72205D01*
X-259078Y-72178D01*
X-259063Y-72066D01*
X-259041Y-71955D01*
X-259043Y-71926D01*
X-259039Y-71897D01*
X-259056Y-71785D01*
X-259065Y-71672D01*
X-259076Y-71645D01*
X-259080Y-71615D01*
X-259127Y-71512D01*
X-259167Y-71407D01*
X-259185Y-71383D01*
X-259197Y-71356D01*
X-259270Y-71270D01*
X-259339Y-71180D01*
X-259362Y-71162D01*
X-259381Y-71140D01*
X-259448Y-71098D01*
X-259567Y-71010D01*
X-259625Y-70988D01*
X-259666Y-70962D01*
X-264086Y-69131D01*
X-267381Y-65836D01*
X-269165Y-61530D01*
X-269165Y-56870D01*
X-267381Y-52564D01*
X-264086Y-49269D01*
X-259666Y-47438D01*
X-259641Y-47423D01*
X-259613Y-47414D01*
X-259519Y-47351D01*
X-259421Y-47293D01*
X-259401Y-47272D01*
X-259377Y-47256D01*
X-259304Y-47169D01*
X-259226Y-47087D01*
X-259213Y-47061D01*
X-259194Y-47038D01*
X-259148Y-46935D01*
X-259096Y-46834D01*
X-259090Y-46805D01*
X-259078Y-46778D01*
X-259063Y-46666D01*
X-259041Y-46555D01*
X-259043Y-46526D01*
X-259039Y-46497D01*
X-259056Y-46385D01*
X-259065Y-46272D01*
X-259076Y-46245D01*
X-259080Y-46215D01*
X-259127Y-46112D01*
X-259167Y-46007D01*
X-259185Y-45983D01*
X-259197Y-45956D01*
X-259270Y-45870D01*
X-259339Y-45780D01*
X-259362Y-45762D01*
X-259381Y-45740D01*
X-259448Y-45698D01*
X-259567Y-45610D01*
X-259625Y-45588D01*
X-259666Y-45562D01*
X-264086Y-43731D01*
X-267381Y-40436D01*
X-269165Y-36130D01*
X-269165Y-31470D01*
X-267381Y-27164D01*
X-264086Y-23869D01*
X-259666Y-22038D01*
X-259641Y-22023D01*
X-259613Y-22014D01*
X-259519Y-21951D01*
X-259421Y-21893D01*
X-259401Y-21872D01*
X-259377Y-21856D01*
X-259304Y-21769D01*
X-259226Y-21687D01*
X-259213Y-21661D01*
X-259194Y-21638D01*
X-259148Y-21535D01*
X-259096Y-21434D01*
X-259090Y-21405D01*
X-259078Y-21378D01*
X-259063Y-21266D01*
X-259041Y-21155D01*
X-259043Y-21126D01*
X-259039Y-21097D01*
X-259056Y-20985D01*
X-259065Y-20872D01*
X-259076Y-20845D01*
X-259080Y-20815D01*
X-259127Y-20712D01*
X-259167Y-20607D01*
X-259185Y-20583D01*
X-259197Y-20556D01*
X-259270Y-20470D01*
X-259339Y-20380D01*
X-259362Y-20362D01*
X-259381Y-20340D01*
X-259448Y-20298D01*
X-259567Y-20210D01*
X-259625Y-20188D01*
X-259666Y-20162D01*
X-264086Y-18331D01*
X-267381Y-15036D01*
X-269165Y-10730D01*
X-269165Y-6070D01*
X-267381Y-1764D01*
X-264086Y1531D01*
X-259666Y3362D01*
X-259641Y3377D01*
X-259613Y3386D01*
X-259519Y3449D01*
X-259421Y3507D01*
X-259401Y3528D01*
X-259377Y3544D01*
X-259304Y3631D01*
X-259226Y3713D01*
X-259213Y3739D01*
X-259194Y3762D01*
X-259148Y3865D01*
X-259096Y3966D01*
X-259090Y3995D01*
X-259078Y4022D01*
X-259063Y4134D01*
X-259041Y4245D01*
X-259043Y4274D01*
X-259039Y4303D01*
X-259055Y4415D01*
X-259065Y4528D01*
X-259076Y4555D01*
X-259080Y4585D01*
X-259127Y4688D01*
X-259167Y4793D01*
X-259185Y4817D01*
X-259197Y4844D01*
X-259271Y4930D01*
X-259339Y5020D01*
X-259362Y5038D01*
X-259381Y5060D01*
X-259448Y5102D01*
X-259567Y5190D01*
X-259625Y5212D01*
X-259666Y5238D01*
X-264086Y7069D01*
X-267381Y10364D01*
X-269165Y14670D01*
X-269165Y19330D01*
X-267381Y23636D01*
X-264086Y26931D01*
X-259666Y28762D01*
X-259641Y28777D01*
X-259613Y28786D01*
X-259554Y28825D01*
X-259517Y28842D01*
X-259485Y28869D01*
X-259421Y28907D01*
X-259401Y28928D01*
X-259377Y28944D01*
X-259329Y29001D01*
X-259300Y29026D01*
X-259278Y29058D01*
X-259226Y29113D01*
X-259213Y29139D01*
X-259194Y29162D01*
X-259163Y29231D01*
X-259142Y29262D01*
X-259131Y29298D01*
X-259096Y29366D01*
X-259090Y29395D01*
X-259078Y29422D01*
X-259068Y29497D01*
X-259056Y29533D01*
X-259055Y29571D01*
X-259041Y29645D01*
X-259043Y29674D01*
X-259039Y29703D01*
X-259050Y29777D01*
X-259049Y29818D01*
X-259059Y29856D01*
X-259065Y29928D01*
X-259076Y29955D01*
X-259080Y29985D01*
X-259110Y30051D01*
X-259121Y30093D01*
X-259143Y30129D01*
X-259167Y30193D01*
X-259185Y30217D01*
X-259197Y30244D01*
X-259242Y30296D01*
X-259266Y30337D01*
X-259300Y30369D01*
X-259339Y30420D01*
X-259362Y30438D01*
X-259381Y30460D01*
X-259428Y30489D01*
X-259473Y30532D01*
X-259520Y30555D01*
X-259567Y30590D01*
X-259625Y30612D01*
X-259666Y30638D01*
X-264086Y32469D01*
X-267381Y35764D01*
X-269165Y40070D01*
X-269165Y44730D01*
X-267381Y49036D01*
X-264086Y52331D01*
X-259666Y54162D01*
X-259641Y54177D01*
X-259613Y54186D01*
X-259559Y54222D01*
X-259556Y54223D01*
X-259552Y54227D01*
X-259519Y54249D01*
X-259421Y54307D01*
X-259401Y54328D01*
X-259377Y54344D01*
X-259304Y54431D01*
X-259226Y54513D01*
X-259213Y54539D01*
X-259194Y54562D01*
X-259148Y54665D01*
X-259096Y54766D01*
X-259090Y54795D01*
X-259078Y54822D01*
X-259063Y54934D01*
X-259041Y55045D01*
X-259043Y55074D01*
X-259039Y55103D01*
X-259055Y55215D01*
X-259065Y55328D01*
X-259076Y55355D01*
X-259080Y55385D01*
X-259127Y55488D01*
X-259167Y55593D01*
X-259185Y55617D01*
X-259197Y55644D01*
X-259271Y55730D01*
X-259339Y55820D01*
X-259362Y55838D01*
X-259381Y55860D01*
X-259448Y55902D01*
X-259567Y55990D01*
X-259625Y56012D01*
X-259666Y56038D01*
X-264086Y57869D01*
X-267381Y61164D01*
X-269165Y65470D01*
X-269165Y70130D01*
X-267381Y74436D01*
X-264086Y77731D01*
X-259666Y79562D01*
X-259641Y79577D01*
X-259613Y79586D01*
X-259519Y79649D01*
X-259421Y79707D01*
X-259401Y79728D01*
X-259377Y79744D01*
X-259304Y79831D01*
X-259226Y79913D01*
X-259213Y79939D01*
X-259194Y79962D01*
X-259148Y80065D01*
X-259096Y80166D01*
X-259090Y80195D01*
X-259078Y80222D01*
X-259063Y80334D01*
X-259041Y80445D01*
X-259043Y80474D01*
X-259039Y80503D01*
X-259055Y80615D01*
X-259065Y80728D01*
X-259076Y80755D01*
X-259080Y80785D01*
X-259127Y80888D01*
X-259167Y80993D01*
X-259185Y81017D01*
X-259197Y81044D01*
X-259271Y81130D01*
X-259339Y81220D01*
X-259362Y81238D01*
X-259381Y81260D01*
X-259448Y81302D01*
X-259567Y81390D01*
X-259625Y81412D01*
X-259666Y81438D01*
X-264086Y83269D01*
X-267381Y86564D01*
X-269165Y90870D01*
X-269165Y95530D01*
X-267381Y99836D01*
X-264086Y103131D01*
X-259780Y104915D01*
X-255120Y104915D01*
X-250814Y103131D01*
X-247519Y99836D01*
X-245688Y95416D01*
X-245673Y95391D01*
X-245664Y95363D01*
X-245601Y95269D01*
X-245543Y95171D01*
X-245522Y95151D01*
X-245506Y95127D01*
X-245419Y95054D01*
X-245337Y94976D01*
X-245311Y94963D01*
X-245288Y94944D01*
X-245185Y94898D01*
X-245084Y94846D01*
X-245055Y94840D01*
X-245028Y94828D01*
X-244916Y94813D01*
X-244805Y94791D01*
X-244776Y94793D01*
X-244747Y94789D01*
X-244635Y94805D01*
X-244522Y94815D01*
X-244495Y94826D01*
X-244466Y94830D01*
X-244362Y94877D01*
X-244257Y94917D01*
X-244233Y94935D01*
X-244206Y94947D01*
X-244120Y95021D01*
X-244030Y95089D01*
X-244012Y95112D01*
X-243990Y95131D01*
X-243948Y95198D01*
X-243860Y95317D01*
X-243838Y95375D01*
X-243812Y95416D01*
X-241981Y99836D01*
X-238686Y103131D01*
X-234380Y104915D01*
X-229720Y104915D01*
X-225414Y103131D01*
X-222119Y99836D01*
X-220335Y95530D01*
X-220335Y90870D01*
X-222119Y86564D01*
X-225414Y83269D01*
X-229834Y81438D01*
X-229859Y81423D01*
X-229887Y81414D01*
X-229981Y81351D01*
X-230079Y81293D01*
X-230099Y81272D01*
X-230123Y81256D01*
X-230196Y81169D01*
X-230274Y81087D01*
X-230287Y81061D01*
X-230306Y81038D01*
X-230352Y80935D01*
X-230404Y80834D01*
X-230410Y80805D01*
X-230422Y80778D01*
X-230437Y80666D01*
X-230459Y80555D01*
X-230457Y80526D01*
X-230461Y80497D01*
X-230445Y80385D01*
X-230435Y80272D01*
X-230424Y80245D01*
X-230420Y80216D01*
X-230373Y80112D01*
X-230333Y80007D01*
X-230315Y79983D01*
X-230303Y79956D01*
X-230229Y79870D01*
X-230161Y79780D01*
X-230138Y79762D01*
X-230119Y79740D01*
X-230052Y79698D01*
X-229933Y79610D01*
X-229875Y79588D01*
X-229834Y79562D01*
X-225414Y77731D01*
X-222119Y74436D01*
X-220335Y70130D01*
X-220335Y65470D01*
X-222119Y61164D01*
X-225414Y57869D01*
X-229834Y56038D01*
X-229859Y56023D01*
X-229887Y56014D01*
X-229981Y55951D01*
X-230079Y55893D01*
X-230099Y55872D01*
X-230123Y55856D01*
X-230196Y55769D01*
X-230274Y55687D01*
X-230287Y55661D01*
X-230306Y55638D01*
X-230352Y55535D01*
X-230404Y55434D01*
X-230410Y55405D01*
X-230422Y55378D01*
X-230437Y55266D01*
X-230459Y55155D01*
X-230457Y55126D01*
X-230461Y55097D01*
X-230445Y54985D01*
X-230435Y54872D01*
X-230424Y54845D01*
X-230420Y54816D01*
X-230373Y54712D01*
X-230333Y54607D01*
X-230315Y54583D01*
X-230303Y54556D01*
X-230229Y54470D01*
X-230161Y54380D01*
X-230138Y54362D01*
X-230119Y54340D01*
X-230052Y54298D01*
X-229933Y54210D01*
X-229875Y54188D01*
X-229834Y54162D01*
X-225414Y52331D01*
X-222119Y49036D01*
X-220335Y44730D01*
X-220335Y40070D01*
X-222119Y35764D01*
X-225414Y32469D01*
X-229834Y30638D01*
X-229859Y30623D01*
X-229887Y30614D01*
X-229935Y30582D01*
X-229983Y30560D01*
X-230025Y30525D01*
X-230079Y30493D01*
X-230099Y30472D01*
X-230123Y30456D01*
X-230164Y30408D01*
X-230200Y30377D01*
X-230228Y30336D01*
X-230274Y30287D01*
X-230287Y30261D01*
X-230306Y30238D01*
X-230334Y30177D01*
X-230358Y30140D01*
X-230371Y30098D01*
X-230404Y30034D01*
X-230410Y30005D01*
X-230422Y29978D01*
X-230432Y29908D01*
X-230444Y29869D01*
X-230445Y29828D01*
X-230459Y29755D01*
X-230457Y29726D01*
X-230461Y29697D01*
X-230450Y29623D01*
X-230451Y29585D01*
X-230441Y29548D01*
X-230435Y29472D01*
X-230424Y29445D01*
X-230420Y29416D01*
X-230389Y29346D01*
X-230379Y29310D01*
X-230360Y29278D01*
X-230333Y29207D01*
X-230315Y29183D01*
X-230303Y29156D01*
X-230254Y29099D01*
X-230234Y29065D01*
X-230206Y29039D01*
X-230161Y28980D01*
X-230138Y28962D01*
X-230119Y28940D01*
X-230064Y28906D01*
X-230027Y28871D01*
X-229991Y28853D01*
X-229933Y28810D01*
X-229875Y28788D01*
X-229834Y28762D01*
X-225414Y26931D01*
X-222119Y23636D01*
X-220335Y19330D01*
X-220335Y14670D01*
X-222119Y10364D01*
X-225414Y7069D01*
X-229720Y5285D01*
X-234380Y5285D01*
X-238686Y7069D01*
X-241981Y10364D01*
X-243812Y14784D01*
X-243827Y14809D01*
X-243836Y14837D01*
X-243899Y14931D01*
X-243957Y15029D01*
X-243978Y15049D01*
X-243994Y15073D01*
X-244081Y15146D01*
X-244163Y15224D01*
X-244189Y15237D01*
X-244212Y15256D01*
X-244315Y15302D01*
X-244416Y15354D01*
X-244445Y15360D01*
X-244472Y15372D01*
X-244584Y15387D01*
X-244695Y15409D01*
X-244724Y15407D01*
X-244753Y15411D01*
X-244865Y15395D01*
X-244978Y15385D01*
X-245005Y15374D01*
X-245035Y15370D01*
X-245138Y15323D01*
X-245243Y15283D01*
X-245267Y15265D01*
X-245294Y15253D01*
X-245380Y15179D01*
X-245470Y15111D01*
X-245488Y15088D01*
X-245510Y15069D01*
X-245552Y15002D01*
X-245640Y14883D01*
X-245662Y14825D01*
X-245688Y14784D01*
X-247519Y10364D01*
X-250814Y7069D01*
X-255234Y5238D01*
X-255259Y5223D01*
X-255287Y5214D01*
X-255381Y5151D01*
X-255479Y5093D01*
X-255499Y5072D01*
X-255523Y5056D01*
X-255596Y4969D01*
X-255674Y4887D01*
X-255687Y4861D01*
X-255706Y4838D01*
X-255752Y4735D01*
X-255804Y4634D01*
X-255810Y4605D01*
X-255822Y4578D01*
X-255837Y4466D01*
X-255859Y4355D01*
X-255857Y4326D01*
X-255861Y4297D01*
X-255845Y4185D01*
X-255835Y4072D01*
X-255824Y4045D01*
X-255820Y4016D01*
X-255773Y3912D01*
X-255733Y3807D01*
X-255715Y3783D01*
X-255703Y3756D01*
X-255629Y3670D01*
X-255561Y3580D01*
X-255538Y3562D01*
X-255519Y3540D01*
X-255452Y3498D01*
X-255333Y3410D01*
X-255275Y3388D01*
X-255234Y3362D01*
X-250814Y1531D01*
X-247519Y-1764D01*
X-245735Y-6070D01*
X-245735Y-10730D01*
X-247519Y-15036D01*
X-250814Y-18331D01*
X-255234Y-20162D01*
X-255259Y-20177D01*
X-255287Y-20186D01*
X-255381Y-20249D01*
X-255479Y-20307D01*
X-255499Y-20328D01*
X-255523Y-20344D01*
X-255596Y-20431D01*
X-255674Y-20513D01*
X-255687Y-20539D01*
X-255706Y-20562D01*
X-255752Y-20665D01*
X-255804Y-20766D01*
X-255810Y-20795D01*
X-255822Y-20822D01*
X-255837Y-20934D01*
X-255859Y-21045D01*
X-255857Y-21074D01*
X-255861Y-21103D01*
X-255844Y-21215D01*
X-255835Y-21328D01*
X-255824Y-21355D01*
X-255820Y-21384D01*
X-255773Y-21488D01*
X-255733Y-21593D01*
X-255715Y-21617D01*
X-255703Y-21644D01*
X-255629Y-21730D01*
X-255561Y-21820D01*
X-255538Y-21838D01*
X-255519Y-21860D01*
X-255452Y-21902D01*
X-255333Y-21990D01*
X-255275Y-22012D01*
X-255234Y-22038D01*
X-250814Y-23869D01*
X-247519Y-27164D01*
X-245688Y-31584D01*
X-245673Y-31609D01*
X-245664Y-31637D01*
X-245601Y-31731D01*
X-245543Y-31829D01*
X-245522Y-31849D01*
X-245506Y-31873D01*
X-245419Y-31946D01*
X-245337Y-32024D01*
X-245311Y-32037D01*
X-245288Y-32056D01*
X-245185Y-32102D01*
X-245084Y-32154D01*
X-245055Y-32160D01*
X-245028Y-32172D01*
X-244916Y-32187D01*
X-244805Y-32209D01*
X-244776Y-32207D01*
X-244747Y-32211D01*
X-244635Y-32194D01*
X-244522Y-32185D01*
X-244495Y-32174D01*
X-244466Y-32170D01*
X-244362Y-32123D01*
X-244257Y-32083D01*
X-244233Y-32065D01*
X-244206Y-32053D01*
X-244120Y-31979D01*
X-244030Y-31911D01*
X-244012Y-31888D01*
X-243990Y-31869D01*
X-243948Y-31802D01*
X-243860Y-31683D01*
X-243838Y-31625D01*
X-243812Y-31584D01*
X-241981Y-27164D01*
X-238686Y-23869D01*
X-234380Y-22085D01*
X-229720Y-22085D01*
X-225414Y-23869D01*
X-222119Y-27164D01*
X-220335Y-31470D01*
X-220335Y-36130D01*
X-222119Y-40436D01*
X-225414Y-43731D01*
X-229834Y-45562D01*
X-229859Y-45577D01*
X-229887Y-45586D01*
X-229981Y-45649D01*
X-230079Y-45707D01*
X-230099Y-45728D01*
X-230123Y-45744D01*
X-230196Y-45831D01*
X-230274Y-45913D01*
X-230287Y-45939D01*
X-230306Y-45962D01*
X-230352Y-46065D01*
X-230404Y-46166D01*
X-230410Y-46195D01*
X-230422Y-46222D01*
X-230437Y-46334D01*
X-230459Y-46445D01*
X-230457Y-46474D01*
X-230461Y-46503D01*
X-230444Y-46615D01*
X-230435Y-46728D01*
X-230424Y-46755D01*
X-230420Y-46784D01*
X-230373Y-46888D01*
X-230333Y-46993D01*
X-230315Y-47017D01*
X-230303Y-47044D01*
X-230229Y-47130D01*
X-230161Y-47220D01*
X-230138Y-47238D01*
X-230119Y-47260D01*
X-230052Y-47302D01*
X-229933Y-47390D01*
X-229875Y-47412D01*
X-229834Y-47438D01*
X-225414Y-49269D01*
X-222119Y-52564D01*
X-220335Y-56870D01*
X-220335Y-61530D01*
X-222119Y-65836D01*
X-225414Y-69131D01*
X-229834Y-70962D01*
X-229859Y-70977D01*
X-229887Y-70986D01*
X-229981Y-71049D01*
X-230079Y-71107D01*
X-230099Y-71128D01*
X-230123Y-71144D01*
X-230196Y-71231D01*
X-230274Y-71313D01*
X-230287Y-71339D01*
X-230306Y-71362D01*
X-230352Y-71465D01*
X-230404Y-71566D01*
X-230410Y-71595D01*
X-230422Y-71622D01*
X-230437Y-71734D01*
X-230459Y-71845D01*
X-230457Y-71874D01*
X-230461Y-71903D01*
X-230444Y-72015D01*
X-230435Y-72128D01*
X-230424Y-72155D01*
X-230420Y-72184D01*
X-230373Y-72288D01*
X-230333Y-72393D01*
X-230315Y-72417D01*
X-230303Y-72444D01*
X-230229Y-72530D01*
X-230161Y-72620D01*
X-230138Y-72638D01*
X-230119Y-72660D01*
X-230052Y-72702D01*
X-229933Y-72790D01*
X-229875Y-72812D01*
X-229834Y-72838D01*
X-225414Y-74669D01*
X-222119Y-77964D01*
X-220335Y-82270D01*
X-220335Y-86930D01*
X-222119Y-91236D01*
X-225414Y-94531D01*
X-229834Y-96362D01*
X-229859Y-96377D01*
X-229887Y-96386D01*
X-229981Y-96449D01*
X-230079Y-96507D01*
X-230099Y-96528D01*
X-230123Y-96544D01*
X-230196Y-96631D01*
X-230274Y-96713D01*
X-230287Y-96739D01*
X-230306Y-96762D01*
X-230352Y-96865D01*
X-230404Y-96966D01*
X-230410Y-96995D01*
X-230422Y-97022D01*
X-230437Y-97134D01*
X-230459Y-97245D01*
X-230457Y-97274D01*
X-230461Y-97303D01*
X-230445Y-97415D01*
X-230435Y-97528D01*
X-230424Y-97555D01*
X-230420Y-97585D01*
X-230373Y-97688D01*
X-230333Y-97793D01*
X-230315Y-97817D01*
X-230303Y-97844D01*
X-230229Y-97930D01*
X-230161Y-98020D01*
X-230138Y-98038D01*
X-230119Y-98060D01*
X-230052Y-98102D01*
X-229933Y-98190D01*
X-229875Y-98212D01*
X-229834Y-98238D01*
X-225414Y-100069D01*
X-222119Y-103364D01*
X-220335Y-107670D01*
X-220335Y-112330D01*
X-222119Y-116636D01*
X-225414Y-119931D01*
X-229834Y-121762D01*
X-229859Y-121777D01*
X-229887Y-121786D01*
X-229981Y-121849D01*
X-230079Y-121907D01*
X-230099Y-121928D01*
X-230123Y-121944D01*
X-230196Y-122031D01*
X-230274Y-122113D01*
X-230287Y-122139D01*
X-230306Y-122162D01*
X-230352Y-122265D01*
X-230404Y-122366D01*
X-230410Y-122395D01*
X-230422Y-122422D01*
X-230437Y-122534D01*
X-230459Y-122645D01*
X-230457Y-122674D01*
X-230461Y-122703D01*
X-230445Y-122815D01*
X-230435Y-122928D01*
X-230424Y-122955D01*
X-230420Y-122984D01*
X-230373Y-123088D01*
X-230333Y-123193D01*
X-230315Y-123217D01*
X-230303Y-123244D01*
X-230229Y-123330D01*
X-230161Y-123420D01*
X-230138Y-123438D01*
X-230119Y-123460D01*
X-230052Y-123502D01*
X-229933Y-123590D01*
X-229875Y-123612D01*
X-229834Y-123638D01*
X-225414Y-125469D01*
X-222119Y-128764D01*
X-220335Y-133070D01*
X-220335Y-137730D01*
X-222119Y-142036D01*
X-225414Y-145331D01*
X-229720Y-147115D01*
X-234380Y-147115D01*
X-238686Y-145331D01*
X-241981Y-142036D01*
X-243812Y-137616D01*
X-243827Y-137591D01*
X-243836Y-137563D01*
X-243899Y-137469D01*
X-243957Y-137371D01*
X-243978Y-137351D01*
X-243994Y-137327D01*
X-244081Y-137254D01*
X-244163Y-137176D01*
X-244189Y-137163D01*
X-244212Y-137144D01*
X-244315Y-137098D01*
X-244416Y-137046D01*
X-244445Y-137040D01*
X-244472Y-137028D01*
X-244584Y-137013D01*
X-244695Y-136991D01*
X-244724Y-136993D01*
X-244753Y-136989D01*
X-244865Y-137005D01*
X-244978Y-137015D01*
X-245005Y-137026D01*
X-245035Y-137030D01*
X-245138Y-137077D01*
X-245243Y-137117D01*
X-245267Y-137135D01*
X-245294Y-137147D01*
X-245380Y-137221D01*
X-245470Y-137289D01*
X-245488Y-137312D01*
X-245510Y-137331D01*
X-245552Y-137398D01*
X-245640Y-137517D01*
X-245662Y-137575D01*
X-245688Y-137616D01*
X-247519Y-142036D01*
X-250814Y-145331D01*
X-255120Y-147115D01*
X-259780Y-147115D01*
G37*
%LPD*%
%LPC*%
G36*
X395493Y-27661D02*
X395493Y-27661D01*
X387164Y-24211D01*
X380789Y-17836D01*
X377339Y-9507D01*
X377339Y-493D01*
X380789Y7836D01*
X387164Y14211D01*
X395493Y17661D01*
X404507Y17661D01*
X412836Y14211D01*
X419211Y7836D01*
X422661Y-493D01*
X422661Y-9507D01*
X419211Y-17836D01*
X412836Y-24211D01*
X404507Y-27661D01*
X395493Y-27661D01*
G37*
%LPD*%
%LPC*%
G36*
X-331711Y-286997D02*
X-331711Y-286997D01*
X-334503Y-285840D01*
X-336640Y-283703D01*
X-337797Y-280911D01*
X-337797Y-277889D01*
X-336640Y-275097D01*
X-335311Y-273768D01*
X-335276Y-273721D01*
X-335234Y-273681D01*
X-335191Y-273608D01*
X-335140Y-273541D01*
X-335120Y-273486D01*
X-335090Y-273436D01*
X-335069Y-273354D01*
X-335039Y-273275D01*
X-335034Y-273217D01*
X-335020Y-273160D01*
X-335023Y-273076D01*
X-335016Y-272992D01*
X-335027Y-272934D01*
X-335029Y-272876D01*
X-335055Y-272796D01*
X-335071Y-272713D01*
X-335098Y-272661D01*
X-335116Y-272605D01*
X-335157Y-272549D01*
X-335202Y-272461D01*
X-335271Y-272388D01*
X-335311Y-272332D01*
X-336640Y-271003D01*
X-337797Y-268211D01*
X-337797Y-265189D01*
X-336640Y-262397D01*
X-334503Y-260260D01*
X-331711Y-259103D01*
X-328689Y-259103D01*
X-325897Y-260260D01*
X-324568Y-261589D01*
X-324521Y-261624D01*
X-324481Y-261666D01*
X-324408Y-261709D01*
X-324341Y-261760D01*
X-324286Y-261780D01*
X-324236Y-261810D01*
X-324154Y-261831D01*
X-324075Y-261861D01*
X-324017Y-261866D01*
X-323960Y-261880D01*
X-323876Y-261877D01*
X-323792Y-261884D01*
X-323734Y-261873D01*
X-323676Y-261871D01*
X-323596Y-261845D01*
X-323513Y-261829D01*
X-323461Y-261802D01*
X-323405Y-261784D01*
X-323349Y-261744D01*
X-323261Y-261698D01*
X-323188Y-261629D01*
X-323132Y-261589D01*
X-321803Y-260260D01*
X-319011Y-259103D01*
X-315989Y-259103D01*
X-313197Y-260260D01*
X-311868Y-261589D01*
X-311821Y-261624D01*
X-311781Y-261666D01*
X-311708Y-261709D01*
X-311641Y-261760D01*
X-311586Y-261780D01*
X-311536Y-261810D01*
X-311454Y-261831D01*
X-311375Y-261861D01*
X-311317Y-261866D01*
X-311260Y-261880D01*
X-311176Y-261877D01*
X-311092Y-261884D01*
X-311034Y-261873D01*
X-310976Y-261871D01*
X-310896Y-261845D01*
X-310813Y-261829D01*
X-310761Y-261802D01*
X-310705Y-261784D01*
X-310649Y-261744D01*
X-310561Y-261698D01*
X-310488Y-261629D01*
X-310432Y-261589D01*
X-309103Y-260260D01*
X-306311Y-259103D01*
X-303289Y-259103D01*
X-300497Y-260260D01*
X-299168Y-261589D01*
X-299121Y-261624D01*
X-299081Y-261666D01*
X-299008Y-261709D01*
X-298941Y-261760D01*
X-298886Y-261780D01*
X-298836Y-261810D01*
X-298754Y-261831D01*
X-298675Y-261861D01*
X-298617Y-261866D01*
X-298560Y-261880D01*
X-298476Y-261877D01*
X-298392Y-261884D01*
X-298334Y-261873D01*
X-298276Y-261871D01*
X-298196Y-261845D01*
X-298113Y-261829D01*
X-298061Y-261802D01*
X-298005Y-261784D01*
X-297949Y-261744D01*
X-297861Y-261698D01*
X-297788Y-261629D01*
X-297732Y-261589D01*
X-296403Y-260260D01*
X-293611Y-259103D01*
X-290589Y-259103D01*
X-287797Y-260260D01*
X-286468Y-261589D01*
X-286421Y-261624D01*
X-286381Y-261666D01*
X-286308Y-261709D01*
X-286241Y-261760D01*
X-286186Y-261780D01*
X-286136Y-261810D01*
X-286054Y-261831D01*
X-285975Y-261861D01*
X-285917Y-261866D01*
X-285860Y-261880D01*
X-285776Y-261877D01*
X-285692Y-261884D01*
X-285634Y-261873D01*
X-285576Y-261871D01*
X-285496Y-261845D01*
X-285413Y-261829D01*
X-285361Y-261802D01*
X-285305Y-261784D01*
X-285249Y-261744D01*
X-285161Y-261698D01*
X-285088Y-261629D01*
X-285032Y-261589D01*
X-283703Y-260260D01*
X-280911Y-259103D01*
X-277889Y-259103D01*
X-275097Y-260260D01*
X-272960Y-262397D01*
X-271803Y-265189D01*
X-271803Y-268211D01*
X-272960Y-271003D01*
X-275097Y-273140D01*
X-277889Y-274297D01*
X-280911Y-274297D01*
X-283703Y-273140D01*
X-285032Y-271811D01*
X-285079Y-271776D01*
X-285119Y-271734D01*
X-285192Y-271691D01*
X-285259Y-271640D01*
X-285314Y-271620D01*
X-285364Y-271590D01*
X-285446Y-271569D01*
X-285525Y-271539D01*
X-285583Y-271534D01*
X-285640Y-271520D01*
X-285724Y-271523D01*
X-285808Y-271516D01*
X-285866Y-271527D01*
X-285924Y-271529D01*
X-286004Y-271555D01*
X-286087Y-271571D01*
X-286139Y-271598D01*
X-286195Y-271616D01*
X-286251Y-271657D01*
X-286339Y-271702D01*
X-286412Y-271771D01*
X-286468Y-271811D01*
X-287797Y-273140D01*
X-290589Y-274297D01*
X-293611Y-274297D01*
X-296403Y-273140D01*
X-297732Y-271811D01*
X-297779Y-271776D01*
X-297819Y-271734D01*
X-297892Y-271691D01*
X-297959Y-271640D01*
X-298014Y-271620D01*
X-298064Y-271590D01*
X-298146Y-271569D01*
X-298225Y-271539D01*
X-298283Y-271534D01*
X-298340Y-271520D01*
X-298424Y-271523D01*
X-298508Y-271516D01*
X-298566Y-271527D01*
X-298624Y-271529D01*
X-298704Y-271555D01*
X-298787Y-271571D01*
X-298839Y-271598D01*
X-298895Y-271616D01*
X-298951Y-271657D01*
X-299039Y-271702D01*
X-299112Y-271771D01*
X-299168Y-271811D01*
X-300497Y-273140D01*
X-303289Y-274297D01*
X-306311Y-274297D01*
X-309103Y-273140D01*
X-310432Y-271811D01*
X-310479Y-271776D01*
X-310519Y-271734D01*
X-310592Y-271691D01*
X-310659Y-271640D01*
X-310714Y-271620D01*
X-310764Y-271590D01*
X-310846Y-271569D01*
X-310925Y-271539D01*
X-310983Y-271534D01*
X-311040Y-271520D01*
X-311124Y-271523D01*
X-311208Y-271516D01*
X-311266Y-271527D01*
X-311324Y-271529D01*
X-311404Y-271555D01*
X-311487Y-271571D01*
X-311539Y-271598D01*
X-311595Y-271616D01*
X-311651Y-271657D01*
X-311739Y-271702D01*
X-311812Y-271771D01*
X-311868Y-271811D01*
X-312389Y-272332D01*
X-312424Y-272379D01*
X-312466Y-272419D01*
X-312509Y-272492D01*
X-312560Y-272559D01*
X-312580Y-272614D01*
X-312610Y-272664D01*
X-312631Y-272746D01*
X-312661Y-272825D01*
X-312666Y-272883D01*
X-312680Y-272940D01*
X-312677Y-273024D01*
X-312684Y-273108D01*
X-312673Y-273166D01*
X-312671Y-273224D01*
X-312645Y-273304D01*
X-312629Y-273387D01*
X-312602Y-273439D01*
X-312584Y-273495D01*
X-312543Y-273551D01*
X-312498Y-273639D01*
X-312429Y-273712D01*
X-312389Y-273768D01*
X-311060Y-275097D01*
X-309903Y-277889D01*
X-309903Y-280911D01*
X-311060Y-283703D01*
X-313197Y-285840D01*
X-315989Y-286997D01*
X-319011Y-286997D01*
X-321803Y-285840D01*
X-323132Y-284511D01*
X-323179Y-284476D01*
X-323219Y-284434D01*
X-323292Y-284391D01*
X-323359Y-284340D01*
X-323414Y-284320D01*
X-323464Y-284290D01*
X-323546Y-284269D01*
X-323625Y-284239D01*
X-323683Y-284234D01*
X-323740Y-284220D01*
X-323824Y-284223D01*
X-323908Y-284216D01*
X-323966Y-284227D01*
X-324024Y-284229D01*
X-324104Y-284255D01*
X-324187Y-284271D01*
X-324239Y-284298D01*
X-324295Y-284316D01*
X-324351Y-284357D01*
X-324439Y-284402D01*
X-324512Y-284471D01*
X-324568Y-284511D01*
X-325897Y-285840D01*
X-328689Y-286997D01*
X-331711Y-286997D01*
G37*
%LPD*%
%LPC*%
G36*
X74639Y-109447D02*
X74639Y-109447D01*
X71755Y-108252D01*
X69548Y-106045D01*
X68353Y-103161D01*
X68353Y-100039D01*
X69548Y-97155D01*
X71755Y-94948D01*
X74296Y-93895D01*
X74371Y-93851D01*
X74451Y-93815D01*
X74493Y-93779D01*
X74541Y-93751D01*
X74601Y-93687D01*
X74667Y-93631D01*
X74693Y-93590D01*
X74736Y-93544D01*
X74804Y-93413D01*
X74845Y-93346D01*
X75898Y-90805D01*
X78105Y-88598D01*
X80646Y-87545D01*
X80721Y-87501D01*
X80801Y-87465D01*
X80843Y-87429D01*
X80891Y-87401D01*
X80951Y-87337D01*
X81017Y-87281D01*
X81043Y-87240D01*
X81086Y-87194D01*
X81154Y-87063D01*
X81195Y-86996D01*
X82248Y-84455D01*
X84455Y-82248D01*
X87339Y-81053D01*
X90461Y-81053D01*
X93345Y-82248D01*
X95552Y-84455D01*
X96747Y-87339D01*
X96747Y-90461D01*
X95552Y-93345D01*
X93345Y-95552D01*
X90804Y-96605D01*
X90729Y-96649D01*
X90649Y-96685D01*
X90607Y-96721D01*
X90559Y-96749D01*
X90499Y-96813D01*
X90433Y-96869D01*
X90407Y-96910D01*
X90364Y-96956D01*
X90296Y-97087D01*
X90255Y-97154D01*
X89202Y-99695D01*
X86995Y-101902D01*
X84454Y-102955D01*
X84379Y-102999D01*
X84299Y-103035D01*
X84257Y-103071D01*
X84209Y-103099D01*
X84149Y-103163D01*
X84083Y-103219D01*
X84057Y-103260D01*
X84014Y-103306D01*
X83946Y-103437D01*
X83905Y-103504D01*
X82852Y-106045D01*
X80645Y-108252D01*
X77761Y-109447D01*
X74639Y-109447D01*
G37*
%LPD*%
%LPC*%
G36*
X93157Y364475D02*
X93157Y364475D01*
X89288Y366078D01*
X86328Y369038D01*
X84725Y372907D01*
X84725Y377093D01*
X86328Y380962D01*
X89288Y383922D01*
X93157Y385525D01*
X97343Y385525D01*
X101212Y383922D01*
X104172Y380962D01*
X105775Y377093D01*
X105775Y372907D01*
X104172Y369038D01*
X101212Y366078D01*
X97343Y364475D01*
X93157Y364475D01*
G37*
%LPD*%
%LPC*%
G36*
X16957Y364475D02*
X16957Y364475D01*
X13088Y366078D01*
X10128Y369038D01*
X8525Y372907D01*
X8525Y377093D01*
X10128Y380962D01*
X13088Y383922D01*
X16957Y385525D01*
X21143Y385525D01*
X25012Y383922D01*
X27972Y380962D01*
X29575Y377093D01*
X29575Y372907D01*
X27972Y369038D01*
X25012Y366078D01*
X21143Y364475D01*
X16957Y364475D01*
G37*
%LPD*%
%LPC*%
G36*
X-135443Y364475D02*
X-135443Y364475D01*
X-139312Y366078D01*
X-142272Y369038D01*
X-143875Y372907D01*
X-143875Y377093D01*
X-142272Y380962D01*
X-139312Y383922D01*
X-135443Y385525D01*
X-131257Y385525D01*
X-127388Y383922D01*
X-124428Y380962D01*
X-122825Y377093D01*
X-122825Y372907D01*
X-124428Y369038D01*
X-127388Y366078D01*
X-131257Y364475D01*
X-135443Y364475D01*
G37*
%LPD*%
%LPC*%
G36*
X131257Y364475D02*
X131257Y364475D01*
X127388Y366078D01*
X124428Y369038D01*
X122825Y372907D01*
X122825Y377093D01*
X124428Y380962D01*
X127388Y383922D01*
X131257Y385525D01*
X135443Y385525D01*
X139312Y383922D01*
X142272Y380962D01*
X143875Y377093D01*
X143875Y372907D01*
X142272Y369038D01*
X139312Y366078D01*
X135443Y364475D01*
X131257Y364475D01*
G37*
%LPD*%
%LPC*%
G36*
X55057Y364475D02*
X55057Y364475D01*
X51188Y366078D01*
X48228Y369038D01*
X46625Y372907D01*
X46625Y377093D01*
X48228Y380962D01*
X51188Y383922D01*
X55057Y385525D01*
X59243Y385525D01*
X63112Y383922D01*
X66072Y380962D01*
X67675Y377093D01*
X67675Y372907D01*
X66072Y369038D01*
X63112Y366078D01*
X59243Y364475D01*
X55057Y364475D01*
G37*
%LPD*%
%LPC*%
G36*
X-21143Y364475D02*
X-21143Y364475D01*
X-25012Y366078D01*
X-27972Y369038D01*
X-29575Y372907D01*
X-29575Y377093D01*
X-27972Y380962D01*
X-25012Y383922D01*
X-21143Y385525D01*
X-16957Y385525D01*
X-13088Y383922D01*
X-10128Y380962D01*
X-8525Y377093D01*
X-8525Y372907D01*
X-10128Y369038D01*
X-13088Y366078D01*
X-16957Y364475D01*
X-21143Y364475D01*
G37*
%LPD*%
%LPC*%
G36*
X-59243Y364475D02*
X-59243Y364475D01*
X-63112Y366078D01*
X-66072Y369038D01*
X-67675Y372907D01*
X-67675Y377093D01*
X-66072Y380962D01*
X-63112Y383922D01*
X-59243Y385525D01*
X-55057Y385525D01*
X-51188Y383922D01*
X-48228Y380962D01*
X-46625Y377093D01*
X-46625Y372907D01*
X-48228Y369038D01*
X-51188Y366078D01*
X-55057Y364475D01*
X-59243Y364475D01*
G37*
%LPD*%
%LPC*%
G36*
X-97343Y364475D02*
X-97343Y364475D01*
X-101212Y366078D01*
X-104172Y369038D01*
X-105775Y372907D01*
X-105775Y377093D01*
X-104172Y380962D01*
X-101212Y383922D01*
X-97343Y385525D01*
X-93157Y385525D01*
X-89288Y383922D01*
X-86328Y380962D01*
X-84725Y377093D01*
X-84725Y372907D01*
X-86328Y369038D01*
X-89288Y366078D01*
X-93157Y364475D01*
X-97343Y364475D01*
G37*
%LPD*%
%LPC*%
G36*
X-51856Y-259307D02*
X-51856Y-259307D01*
X-53806Y-258499D01*
X-55299Y-257006D01*
X-55878Y-255608D01*
X-55927Y-255520D01*
X-55967Y-255428D01*
X-56011Y-255368D01*
X-56047Y-255303D01*
X-56115Y-255229D01*
X-56175Y-255148D01*
X-56231Y-255100D01*
X-56281Y-255045D01*
X-56364Y-254988D01*
X-56441Y-254923D01*
X-56507Y-254889D01*
X-56568Y-254847D01*
X-56661Y-254810D01*
X-56751Y-254764D01*
X-56823Y-254746D01*
X-56892Y-254719D01*
X-56992Y-254704D01*
X-57089Y-254680D01*
X-57163Y-254679D01*
X-57237Y-254668D01*
X-57337Y-254677D01*
X-57438Y-254675D01*
X-57510Y-254691D01*
X-57584Y-254697D01*
X-57680Y-254728D01*
X-57778Y-254749D01*
X-57845Y-254781D01*
X-57916Y-254804D01*
X-58002Y-254856D01*
X-58093Y-254899D01*
X-58151Y-254945D01*
X-58215Y-254984D01*
X-58287Y-255054D01*
X-58365Y-255116D01*
X-58411Y-255175D01*
X-58465Y-255227D01*
X-58519Y-255311D01*
X-58581Y-255390D01*
X-58627Y-255479D01*
X-58653Y-255520D01*
X-58665Y-255554D01*
X-58693Y-255608D01*
X-59213Y-256864D01*
X-60636Y-258287D01*
X-62494Y-259057D01*
X-64506Y-259057D01*
X-66364Y-258287D01*
X-67787Y-256864D01*
X-68557Y-255006D01*
X-68557Y-252994D01*
X-67787Y-251136D01*
X-66364Y-249713D01*
X-65108Y-249193D01*
X-65020Y-249144D01*
X-64928Y-249104D01*
X-64868Y-249059D01*
X-64803Y-249023D01*
X-64729Y-248956D01*
X-64648Y-248896D01*
X-64600Y-248839D01*
X-64545Y-248789D01*
X-64488Y-248706D01*
X-64423Y-248630D01*
X-64389Y-248564D01*
X-64347Y-248502D01*
X-64310Y-248409D01*
X-64264Y-248320D01*
X-64246Y-248247D01*
X-64219Y-248178D01*
X-64204Y-248079D01*
X-64180Y-247981D01*
X-64179Y-247907D01*
X-64168Y-247833D01*
X-64177Y-247733D01*
X-64175Y-247633D01*
X-64191Y-247560D01*
X-64197Y-247486D01*
X-64228Y-247390D01*
X-64249Y-247292D01*
X-64281Y-247225D01*
X-64304Y-247154D01*
X-64356Y-247068D01*
X-64399Y-246978D01*
X-64445Y-246920D01*
X-64484Y-246856D01*
X-64554Y-246784D01*
X-64616Y-246705D01*
X-64675Y-246659D01*
X-64727Y-246606D01*
X-64811Y-246552D01*
X-64890Y-246489D01*
X-64979Y-246444D01*
X-65020Y-246418D01*
X-65054Y-246406D01*
X-65108Y-246378D01*
X-66506Y-245799D01*
X-67999Y-244306D01*
X-68807Y-242356D01*
X-68807Y-240244D01*
X-67999Y-238294D01*
X-66506Y-236801D01*
X-64556Y-235993D01*
X-62444Y-235993D01*
X-60494Y-236801D01*
X-59001Y-238294D01*
X-58193Y-240244D01*
X-58193Y-242356D01*
X-59001Y-244306D01*
X-60494Y-245799D01*
X-61892Y-246378D01*
X-61980Y-246427D01*
X-62072Y-246467D01*
X-62132Y-246511D01*
X-62197Y-246547D01*
X-62271Y-246615D01*
X-62352Y-246675D01*
X-62400Y-246731D01*
X-62455Y-246781D01*
X-62512Y-246864D01*
X-62577Y-246941D01*
X-62611Y-247007D01*
X-62653Y-247068D01*
X-62690Y-247161D01*
X-62736Y-247251D01*
X-62754Y-247323D01*
X-62781Y-247392D01*
X-62796Y-247492D01*
X-62820Y-247589D01*
X-62821Y-247663D01*
X-62832Y-247737D01*
X-62823Y-247837D01*
X-62825Y-247938D01*
X-62809Y-248010D01*
X-62803Y-248084D01*
X-62772Y-248180D01*
X-62751Y-248278D01*
X-62719Y-248345D01*
X-62696Y-248416D01*
X-62644Y-248502D01*
X-62601Y-248593D01*
X-62555Y-248651D01*
X-62516Y-248715D01*
X-62446Y-248787D01*
X-62384Y-248865D01*
X-62325Y-248911D01*
X-62273Y-248965D01*
X-62189Y-249019D01*
X-62110Y-249081D01*
X-62021Y-249127D01*
X-61980Y-249153D01*
X-61946Y-249165D01*
X-61892Y-249193D01*
X-60636Y-249713D01*
X-59213Y-251136D01*
X-58693Y-252392D01*
X-58644Y-252480D01*
X-58604Y-252572D01*
X-58559Y-252632D01*
X-58523Y-252697D01*
X-58456Y-252771D01*
X-58396Y-252852D01*
X-58339Y-252900D01*
X-58289Y-252955D01*
X-58206Y-253012D01*
X-58130Y-253077D01*
X-58064Y-253111D01*
X-58002Y-253153D01*
X-57909Y-253190D01*
X-57820Y-253236D01*
X-57747Y-253254D01*
X-57678Y-253281D01*
X-57579Y-253296D01*
X-57481Y-253320D01*
X-57407Y-253321D01*
X-57333Y-253332D01*
X-57233Y-253323D01*
X-57133Y-253325D01*
X-57060Y-253309D01*
X-56986Y-253303D01*
X-56890Y-253272D01*
X-56792Y-253251D01*
X-56725Y-253219D01*
X-56654Y-253196D01*
X-56568Y-253144D01*
X-56478Y-253101D01*
X-56420Y-253055D01*
X-56356Y-253016D01*
X-56284Y-252946D01*
X-56205Y-252884D01*
X-56159Y-252825D01*
X-56106Y-252773D01*
X-56052Y-252689D01*
X-55989Y-252610D01*
X-55944Y-252521D01*
X-55918Y-252480D01*
X-55906Y-252446D01*
X-55878Y-252392D01*
X-55299Y-250994D01*
X-53806Y-249501D01*
X-51856Y-248693D01*
X-49744Y-248693D01*
X-47794Y-249501D01*
X-46301Y-250994D01*
X-45493Y-252944D01*
X-45493Y-255056D01*
X-46301Y-257006D01*
X-47794Y-258499D01*
X-49744Y-259307D01*
X-51856Y-259307D01*
G37*
%LPD*%
%LPC*%
G36*
X-141525Y92425D02*
X-141525Y92425D01*
X-144897Y93822D01*
X-147478Y96403D01*
X-148875Y99775D01*
X-148875Y103425D01*
X-147478Y106797D01*
X-144897Y109378D01*
X-141525Y110775D01*
X-137875Y110775D01*
X-134503Y109378D01*
X-131922Y106797D01*
X-130525Y103425D01*
X-130525Y99775D01*
X-131922Y96403D01*
X-134503Y93822D01*
X-137875Y92425D01*
X-141525Y92425D01*
G37*
%LPD*%
%LPC*%
G36*
X-65325Y67025D02*
X-65325Y67025D01*
X-68697Y68422D01*
X-71278Y71003D01*
X-72675Y74375D01*
X-72675Y78025D01*
X-71278Y81397D01*
X-68697Y83978D01*
X-65325Y85375D01*
X-61675Y85375D01*
X-58303Y83978D01*
X-55722Y81397D01*
X-54325Y78025D01*
X-54325Y74375D01*
X-55722Y71003D01*
X-58303Y68422D01*
X-61675Y67025D01*
X-65325Y67025D01*
G37*
%LPD*%
%LPC*%
G36*
X23575Y67025D02*
X23575Y67025D01*
X20203Y68422D01*
X17622Y71003D01*
X16225Y74375D01*
X16225Y78025D01*
X17622Y81397D01*
X20203Y83978D01*
X23575Y85375D01*
X27225Y85375D01*
X30597Y83978D01*
X33178Y81397D01*
X34575Y78025D01*
X34575Y74375D01*
X33178Y71003D01*
X30597Y68422D01*
X27225Y67025D01*
X23575Y67025D01*
G37*
%LPD*%
%LPC*%
G36*
X48975Y67025D02*
X48975Y67025D01*
X45603Y68422D01*
X43022Y71003D01*
X41625Y74375D01*
X41625Y78025D01*
X43022Y81397D01*
X45603Y83978D01*
X48975Y85375D01*
X52625Y85375D01*
X55997Y83978D01*
X58578Y81397D01*
X59975Y78025D01*
X59975Y74375D01*
X58578Y71003D01*
X55997Y68422D01*
X52625Y67025D01*
X48975Y67025D01*
G37*
%LPD*%
%LPC*%
G36*
X-27225Y67025D02*
X-27225Y67025D01*
X-30597Y68422D01*
X-33178Y71003D01*
X-34575Y74375D01*
X-34575Y78025D01*
X-33178Y81397D01*
X-30597Y83978D01*
X-27225Y85375D01*
X-23575Y85375D01*
X-20203Y83978D01*
X-17622Y81397D01*
X-16225Y78025D01*
X-16225Y74375D01*
X-17622Y71003D01*
X-20203Y68422D01*
X-23575Y67025D01*
X-27225Y67025D01*
G37*
%LPD*%
%LPC*%
G36*
X-141525Y67025D02*
X-141525Y67025D01*
X-144897Y68422D01*
X-147478Y71003D01*
X-148875Y74375D01*
X-148875Y78025D01*
X-147478Y81397D01*
X-144897Y83978D01*
X-141525Y85375D01*
X-137875Y85375D01*
X-134503Y83978D01*
X-131922Y81397D01*
X-130525Y78025D01*
X-130525Y74375D01*
X-131922Y71003D01*
X-134503Y68422D01*
X-137875Y67025D01*
X-141525Y67025D01*
G37*
%LPD*%
%LPC*%
G36*
X-116125Y67025D02*
X-116125Y67025D01*
X-119497Y68422D01*
X-122078Y71003D01*
X-123475Y74375D01*
X-123475Y78025D01*
X-122078Y81397D01*
X-119497Y83978D01*
X-116125Y85375D01*
X-112475Y85375D01*
X-109103Y83978D01*
X-106522Y81397D01*
X-105125Y78025D01*
X-105125Y74375D01*
X-106522Y71003D01*
X-109103Y68422D01*
X-112475Y67025D01*
X-116125Y67025D01*
G37*
%LPD*%
%LPC*%
G36*
X-90725Y67025D02*
X-90725Y67025D01*
X-94097Y68422D01*
X-96678Y71003D01*
X-98075Y74375D01*
X-98075Y78025D01*
X-96678Y81397D01*
X-94097Y83978D01*
X-90725Y85375D01*
X-87075Y85375D01*
X-83703Y83978D01*
X-81122Y81397D01*
X-79725Y78025D01*
X-79725Y74375D01*
X-81122Y71003D01*
X-83703Y68422D01*
X-87075Y67025D01*
X-90725Y67025D01*
G37*
%LPD*%
%LPC*%
G36*
X-90725Y92425D02*
X-90725Y92425D01*
X-94097Y93822D01*
X-96678Y96403D01*
X-98075Y99775D01*
X-98075Y103425D01*
X-96678Y106797D01*
X-94097Y109378D01*
X-90725Y110775D01*
X-87075Y110775D01*
X-83703Y109378D01*
X-81122Y106797D01*
X-79725Y103425D01*
X-79725Y99775D01*
X-81122Y96403D01*
X-83703Y93822D01*
X-87075Y92425D01*
X-90725Y92425D01*
G37*
%LPD*%
%LPC*%
G36*
X48975Y92425D02*
X48975Y92425D01*
X45603Y93822D01*
X43022Y96403D01*
X41625Y99775D01*
X41625Y103425D01*
X43022Y106797D01*
X45603Y109378D01*
X48975Y110775D01*
X52625Y110775D01*
X55997Y109378D01*
X58578Y106797D01*
X59975Y103425D01*
X59975Y99775D01*
X58578Y96403D01*
X55997Y93822D01*
X52625Y92425D01*
X48975Y92425D01*
G37*
%LPD*%
%LPC*%
G36*
X23575Y92425D02*
X23575Y92425D01*
X20203Y93822D01*
X17622Y96403D01*
X16225Y99775D01*
X16225Y103425D01*
X17622Y106797D01*
X20203Y109378D01*
X23575Y110775D01*
X27225Y110775D01*
X30597Y109378D01*
X33178Y106797D01*
X34575Y103425D01*
X34575Y99775D01*
X33178Y96403D01*
X30597Y93822D01*
X27225Y92425D01*
X23575Y92425D01*
G37*
%LPD*%
%LPC*%
G36*
X-27225Y92425D02*
X-27225Y92425D01*
X-30597Y93822D01*
X-33178Y96403D01*
X-34575Y99775D01*
X-34575Y103425D01*
X-33178Y106797D01*
X-30597Y109378D01*
X-27225Y110775D01*
X-23575Y110775D01*
X-20203Y109378D01*
X-17622Y106797D01*
X-16225Y103425D01*
X-16225Y99775D01*
X-17622Y96403D01*
X-20203Y93822D01*
X-23575Y92425D01*
X-27225Y92425D01*
G37*
%LPD*%
%LPC*%
G36*
X-65325Y92425D02*
X-65325Y92425D01*
X-68697Y93822D01*
X-71278Y96403D01*
X-72675Y99775D01*
X-72675Y103425D01*
X-71278Y106797D01*
X-68697Y109378D01*
X-65325Y110775D01*
X-61675Y110775D01*
X-58303Y109378D01*
X-55722Y106797D01*
X-54325Y103425D01*
X-54325Y99775D01*
X-55722Y96403D01*
X-58303Y93822D01*
X-61675Y92425D01*
X-65325Y92425D01*
G37*
%LPD*%
%LPC*%
G36*
X-116125Y92425D02*
X-116125Y92425D01*
X-119497Y93822D01*
X-122078Y96403D01*
X-123475Y99775D01*
X-123475Y103425D01*
X-122078Y106797D01*
X-119497Y109378D01*
X-116125Y110775D01*
X-112475Y110775D01*
X-109103Y109378D01*
X-106522Y106797D01*
X-105125Y103425D01*
X-105125Y99775D01*
X-106522Y96403D01*
X-109103Y93822D01*
X-112475Y92425D01*
X-116125Y92425D01*
G37*
%LPD*%
%LPC*%
G36*
X-1825Y67025D02*
X-1825Y67025D01*
X-5197Y68422D01*
X-7778Y71003D01*
X-9175Y74375D01*
X-9175Y78025D01*
X-7778Y81397D01*
X-5197Y83978D01*
X-1825Y85375D01*
X1825Y85375D01*
X5197Y83978D01*
X7778Y81397D01*
X9175Y78025D01*
X9175Y74375D01*
X7778Y71003D01*
X5197Y68422D01*
X1825Y67025D01*
X-1825Y67025D01*
G37*
%LPD*%
%LPC*%
G36*
X-1825Y92425D02*
X-1825Y92425D01*
X-5197Y93822D01*
X-7778Y96403D01*
X-9175Y99775D01*
X-9175Y103425D01*
X-7778Y106797D01*
X-5197Y109378D01*
X-1825Y110775D01*
X1825Y110775D01*
X5197Y109378D01*
X7778Y106797D01*
X9175Y103425D01*
X9175Y99775D01*
X7778Y96403D01*
X5197Y93822D01*
X1825Y92425D01*
X-1825Y92425D01*
G37*
%LPD*%
%LPC*%
G36*
X-369861Y163603D02*
X-369861Y163603D01*
X-372745Y164798D01*
X-374952Y167005D01*
X-376147Y169889D01*
X-376147Y173011D01*
X-374952Y175895D01*
X-372745Y178102D01*
X-369861Y179297D01*
X-366739Y179297D01*
X-363855Y178102D01*
X-361648Y175895D01*
X-360453Y173011D01*
X-360453Y169889D01*
X-361648Y167005D01*
X-363855Y164798D01*
X-366739Y163603D01*
X-369861Y163603D01*
G37*
%LPD*%
%LPC*%
G36*
X233389Y-109447D02*
X233389Y-109447D01*
X230505Y-108252D01*
X228298Y-106045D01*
X227103Y-103161D01*
X227103Y-100039D01*
X228298Y-97155D01*
X230505Y-94948D01*
X233389Y-93753D01*
X236511Y-93753D01*
X239395Y-94948D01*
X241602Y-97155D01*
X242797Y-100039D01*
X242797Y-103161D01*
X241602Y-106045D01*
X239395Y-108252D01*
X236511Y-109447D01*
X233389Y-109447D01*
G37*
%LPD*%
%LPC*%
G36*
X-369861Y42953D02*
X-369861Y42953D01*
X-372745Y44148D01*
X-374952Y46355D01*
X-376147Y49239D01*
X-376147Y52361D01*
X-374952Y55245D01*
X-372745Y57452D01*
X-369861Y58647D01*
X-366739Y58647D01*
X-363855Y57452D01*
X-361648Y55245D01*
X-360453Y52361D01*
X-360453Y49239D01*
X-361648Y46355D01*
X-363855Y44148D01*
X-366739Y42953D01*
X-369861Y42953D01*
G37*
%LPD*%
%LPC*%
G36*
X-369861Y227103D02*
X-369861Y227103D01*
X-372745Y228298D01*
X-374952Y230505D01*
X-376147Y233389D01*
X-376147Y236511D01*
X-374952Y239395D01*
X-372745Y241602D01*
X-369861Y242797D01*
X-366739Y242797D01*
X-363855Y241602D01*
X-361648Y239395D01*
X-360453Y236511D01*
X-360453Y233389D01*
X-361648Y230505D01*
X-363855Y228298D01*
X-366739Y227103D01*
X-369861Y227103D01*
G37*
%LPD*%
%LPC*%
G36*
X138139Y-191997D02*
X138139Y-191997D01*
X135255Y-190802D01*
X133048Y-188595D01*
X131853Y-185711D01*
X131853Y-182589D01*
X133048Y-179705D01*
X135255Y-177498D01*
X138139Y-176303D01*
X141261Y-176303D01*
X144145Y-177498D01*
X146352Y-179705D01*
X147547Y-182589D01*
X147547Y-185711D01*
X146352Y-188595D01*
X144145Y-190802D01*
X141261Y-191997D01*
X138139Y-191997D01*
G37*
%LPD*%
%LPC*%
G36*
X135599Y-227557D02*
X135599Y-227557D01*
X132715Y-226362D01*
X130508Y-224155D01*
X129313Y-221271D01*
X129313Y-218149D01*
X130508Y-215265D01*
X132715Y-213058D01*
X135599Y-211863D01*
X138721Y-211863D01*
X141605Y-213058D01*
X143812Y-215265D01*
X145007Y-218149D01*
X145007Y-221271D01*
X143812Y-224155D01*
X141605Y-226362D01*
X138721Y-227557D01*
X135599Y-227557D01*
G37*
%LPD*%
%LPC*%
G36*
X-369861Y106453D02*
X-369861Y106453D01*
X-372745Y107648D01*
X-374952Y109855D01*
X-376147Y112739D01*
X-376147Y115861D01*
X-374952Y118745D01*
X-372745Y120952D01*
X-369861Y122147D01*
X-366739Y122147D01*
X-363855Y120952D01*
X-361648Y118745D01*
X-360453Y115861D01*
X-360453Y112739D01*
X-361648Y109855D01*
X-363855Y107648D01*
X-366739Y106453D01*
X-369861Y106453D01*
G37*
%LPD*%
%LPC*%
G36*
X233389Y-45947D02*
X233389Y-45947D01*
X230505Y-44752D01*
X228298Y-42545D01*
X227103Y-39661D01*
X227103Y-36539D01*
X228298Y-33655D01*
X230505Y-31448D01*
X233389Y-30253D01*
X236511Y-30253D01*
X239395Y-31448D01*
X241602Y-33655D01*
X242797Y-36539D01*
X242797Y-39661D01*
X241602Y-42545D01*
X239395Y-44752D01*
X236511Y-45947D01*
X233389Y-45947D01*
G37*
%LPD*%
%LPC*%
G36*
X87339Y-58647D02*
X87339Y-58647D01*
X84455Y-57452D01*
X82248Y-55245D01*
X81053Y-52361D01*
X81053Y-49239D01*
X82248Y-46355D01*
X84455Y-44148D01*
X87339Y-42953D01*
X90461Y-42953D01*
X93345Y-44148D01*
X95552Y-46355D01*
X96747Y-49239D01*
X96747Y-52361D01*
X95552Y-55245D01*
X93345Y-57452D01*
X90461Y-58647D01*
X87339Y-58647D01*
G37*
%LPD*%
%LPC*%
G36*
X119089Y-64997D02*
X119089Y-64997D01*
X116205Y-63802D01*
X113998Y-61595D01*
X112803Y-58711D01*
X112803Y-55589D01*
X113998Y-52705D01*
X116205Y-50498D01*
X119089Y-49303D01*
X122211Y-49303D01*
X125095Y-50498D01*
X127302Y-52705D01*
X128497Y-55589D01*
X128497Y-58711D01*
X127302Y-61595D01*
X125095Y-63802D01*
X122211Y-64997D01*
X119089Y-64997D01*
G37*
%LPD*%
%LPC*%
G36*
X220689Y-64997D02*
X220689Y-64997D01*
X217805Y-63802D01*
X215598Y-61595D01*
X214403Y-58711D01*
X214403Y-55589D01*
X215598Y-52705D01*
X217805Y-50498D01*
X220689Y-49303D01*
X223811Y-49303D01*
X226695Y-50498D01*
X228902Y-52705D01*
X230097Y-55589D01*
X230097Y-58711D01*
X228902Y-61595D01*
X226695Y-63802D01*
X223811Y-64997D01*
X220689Y-64997D01*
G37*
%LPD*%
%LPC*%
G36*
X220689Y-90397D02*
X220689Y-90397D01*
X217805Y-89202D01*
X215598Y-86995D01*
X214403Y-84111D01*
X214403Y-80989D01*
X215598Y-78105D01*
X217805Y-75898D01*
X220689Y-74703D01*
X223811Y-74703D01*
X226695Y-75898D01*
X228902Y-78105D01*
X230097Y-80989D01*
X230097Y-84111D01*
X228902Y-86995D01*
X226695Y-89202D01*
X223811Y-90397D01*
X220689Y-90397D01*
G37*
%LPD*%
%LPC*%
G36*
X115329Y-257787D02*
X115329Y-257787D01*
X112537Y-256630D01*
X110400Y-254493D01*
X109243Y-251701D01*
X109243Y-248679D01*
X110400Y-245887D01*
X112537Y-243750D01*
X115329Y-242593D01*
X118351Y-242593D01*
X121143Y-243750D01*
X123280Y-245887D01*
X124437Y-248679D01*
X124437Y-251701D01*
X123280Y-254493D01*
X121143Y-256630D01*
X118351Y-257787D01*
X115329Y-257787D01*
G37*
%LPD*%
%LPC*%
G36*
X145809Y-278107D02*
X145809Y-278107D01*
X143017Y-276950D01*
X140880Y-274813D01*
X139723Y-272021D01*
X139723Y-268999D01*
X140880Y-266207D01*
X143017Y-264070D01*
X145809Y-262913D01*
X148831Y-262913D01*
X151623Y-264070D01*
X153760Y-266207D01*
X154917Y-268999D01*
X154917Y-272021D01*
X153760Y-274813D01*
X151623Y-276950D01*
X148831Y-278107D01*
X145809Y-278107D01*
G37*
%LPD*%
%LPC*%
G36*
X-109006Y216943D02*
X-109006Y216943D01*
X-110956Y217751D01*
X-112449Y219244D01*
X-113257Y221194D01*
X-113257Y223306D01*
X-112449Y225256D01*
X-110956Y226749D01*
X-109006Y227557D01*
X-106894Y227557D01*
X-104944Y226749D01*
X-103451Y225256D01*
X-102643Y223306D01*
X-102643Y221194D01*
X-103451Y219244D01*
X-104944Y217751D01*
X-106894Y216943D01*
X-109006Y216943D01*
G37*
%LPD*%
%LPC*%
G36*
X24344Y235993D02*
X24344Y235993D01*
X22394Y236801D01*
X20901Y238294D01*
X20093Y240244D01*
X20093Y242356D01*
X20901Y244306D01*
X22394Y245799D01*
X24344Y246607D01*
X26456Y246607D01*
X28406Y245799D01*
X29899Y244306D01*
X30707Y242356D01*
X30707Y240244D01*
X29899Y238294D01*
X28406Y236801D01*
X26456Y235993D01*
X24344Y235993D01*
G37*
%LPD*%
%LPC*%
G36*
X-70906Y235993D02*
X-70906Y235993D01*
X-72856Y236801D01*
X-74349Y238294D01*
X-75157Y240244D01*
X-75157Y242356D01*
X-74349Y244306D01*
X-72856Y245799D01*
X-70906Y246607D01*
X-68794Y246607D01*
X-66844Y245799D01*
X-65351Y244306D01*
X-64543Y242356D01*
X-64543Y240244D01*
X-65351Y238294D01*
X-66844Y236801D01*
X-68794Y235993D01*
X-70906Y235993D01*
G37*
%LPD*%
%LPC*%
G36*
X-26456Y216943D02*
X-26456Y216943D01*
X-28406Y217751D01*
X-29899Y219244D01*
X-30707Y221194D01*
X-30707Y223306D01*
X-29899Y225256D01*
X-28406Y226749D01*
X-26456Y227557D01*
X-24344Y227557D01*
X-22394Y226749D01*
X-20901Y225256D01*
X-20093Y223306D01*
X-20093Y221194D01*
X-20901Y219244D01*
X-22394Y217751D01*
X-24344Y216943D01*
X-26456Y216943D01*
G37*
%LPD*%
%LPC*%
G36*
X49744Y216943D02*
X49744Y216943D01*
X47794Y217751D01*
X46301Y219244D01*
X45493Y221194D01*
X45493Y223306D01*
X46301Y225256D01*
X47794Y226749D01*
X49744Y227557D01*
X51856Y227557D01*
X53806Y226749D01*
X55299Y225256D01*
X56107Y223306D01*
X56107Y221194D01*
X55299Y219244D01*
X53806Y217751D01*
X51856Y216943D01*
X49744Y216943D01*
G37*
%LPD*%
%LPC*%
G36*
X-64556Y216943D02*
X-64556Y216943D01*
X-66506Y217751D01*
X-67999Y219244D01*
X-68807Y221194D01*
X-68807Y223306D01*
X-67999Y225256D01*
X-66506Y226749D01*
X-64556Y227557D01*
X-62444Y227557D01*
X-60494Y226749D01*
X-59001Y225256D01*
X-58193Y223306D01*
X-58193Y221194D01*
X-59001Y219244D01*
X-60494Y217751D01*
X-62444Y216943D01*
X-64556Y216943D01*
G37*
%LPD*%
%LPC*%
G36*
X-13756Y-48487D02*
X-13756Y-48487D01*
X-15706Y-47679D01*
X-17199Y-46186D01*
X-18007Y-44236D01*
X-18007Y-42124D01*
X-17199Y-40174D01*
X-15706Y-38681D01*
X-13756Y-37873D01*
X-11644Y-37873D01*
X-9694Y-38681D01*
X-8201Y-40174D01*
X-7393Y-42124D01*
X-7393Y-44236D01*
X-8201Y-46186D01*
X-9694Y-47679D01*
X-11644Y-48487D01*
X-13756Y-48487D01*
G37*
%LPD*%
%LPC*%
G36*
X30694Y216943D02*
X30694Y216943D01*
X28744Y217751D01*
X27251Y219244D01*
X26443Y221194D01*
X26443Y223306D01*
X27251Y225256D01*
X28744Y226749D01*
X30694Y227557D01*
X32806Y227557D01*
X34756Y226749D01*
X36249Y225256D01*
X37057Y223306D01*
X37057Y221194D01*
X36249Y219244D01*
X34756Y217751D01*
X32806Y216943D01*
X30694Y216943D01*
G37*
%LPD*%
%LPC*%
G36*
X-128056Y216943D02*
X-128056Y216943D01*
X-130006Y217751D01*
X-131499Y219244D01*
X-132307Y221194D01*
X-132307Y223306D01*
X-131499Y225256D01*
X-130006Y226749D01*
X-128056Y227557D01*
X-125944Y227557D01*
X-123994Y226749D01*
X-122501Y225256D01*
X-121693Y223306D01*
X-121693Y221194D01*
X-122501Y219244D01*
X-123994Y217751D01*
X-125944Y216943D01*
X-128056Y216943D01*
G37*
%LPD*%
%LPC*%
G36*
X62444Y178843D02*
X62444Y178843D01*
X60494Y179651D01*
X59001Y181144D01*
X58193Y183094D01*
X58193Y185206D01*
X59001Y187156D01*
X60494Y188649D01*
X62444Y189457D01*
X64556Y189457D01*
X66506Y188649D01*
X67999Y187156D01*
X68807Y185206D01*
X68807Y183094D01*
X67999Y181144D01*
X66506Y179651D01*
X64556Y178843D01*
X62444Y178843D01*
G37*
%LPD*%
%LPC*%
G36*
X-147106Y172493D02*
X-147106Y172493D01*
X-149056Y173301D01*
X-150549Y174794D01*
X-151357Y176744D01*
X-151357Y178856D01*
X-150549Y180806D01*
X-149056Y182299D01*
X-147106Y183107D01*
X-144994Y183107D01*
X-143044Y182299D01*
X-141551Y180806D01*
X-140743Y178856D01*
X-140743Y176744D01*
X-141551Y174794D01*
X-143044Y173301D01*
X-144994Y172493D01*
X-147106Y172493D01*
G37*
%LPD*%
%LPC*%
G36*
X-96306Y235993D02*
X-96306Y235993D01*
X-98256Y236801D01*
X-99749Y238294D01*
X-100557Y240244D01*
X-100557Y242356D01*
X-99749Y244306D01*
X-98256Y245799D01*
X-96306Y246607D01*
X-94194Y246607D01*
X-92244Y245799D01*
X-90751Y244306D01*
X-89943Y242356D01*
X-89943Y240244D01*
X-90751Y238294D01*
X-92244Y236801D01*
X-94194Y235993D01*
X-96306Y235993D01*
G37*
%LPD*%
%LPC*%
G36*
X-112816Y-20547D02*
X-112816Y-20547D01*
X-114766Y-19739D01*
X-116259Y-18246D01*
X-117067Y-16296D01*
X-117067Y-14184D01*
X-116259Y-12234D01*
X-114766Y-10741D01*
X-112816Y-9933D01*
X-110704Y-9933D01*
X-108754Y-10741D01*
X-107261Y-12234D01*
X-106453Y-14184D01*
X-106453Y-16296D01*
X-107261Y-18246D01*
X-108754Y-19739D01*
X-110704Y-20547D01*
X-112816Y-20547D01*
G37*
%LPD*%
%LPC*%
G36*
X17994Y-68807D02*
X17994Y-68807D01*
X16044Y-67999D01*
X14551Y-66506D01*
X13743Y-64556D01*
X13743Y-62444D01*
X14551Y-60494D01*
X16044Y-59001D01*
X17994Y-58193D01*
X20106Y-58193D01*
X22056Y-59001D01*
X23549Y-60494D01*
X24357Y-62444D01*
X24357Y-64556D01*
X23549Y-66506D01*
X22056Y-67999D01*
X20106Y-68807D01*
X17994Y-68807D01*
G37*
%LPD*%
%LPC*%
G36*
X-26456Y-81507D02*
X-26456Y-81507D01*
X-28406Y-80699D01*
X-29899Y-79206D01*
X-30707Y-77256D01*
X-30707Y-75144D01*
X-29899Y-73194D01*
X-28406Y-71701D01*
X-26456Y-70893D01*
X-24344Y-70893D01*
X-22394Y-71701D01*
X-20901Y-73194D01*
X-20093Y-75144D01*
X-20093Y-77256D01*
X-20901Y-79206D01*
X-22394Y-80699D01*
X-24344Y-81507D01*
X-26456Y-81507D01*
G37*
%LPD*%
%LPC*%
G36*
X-77256Y-49757D02*
X-77256Y-49757D01*
X-79206Y-48949D01*
X-80699Y-47456D01*
X-81507Y-45506D01*
X-81507Y-43394D01*
X-80699Y-41444D01*
X-79206Y-39951D01*
X-77256Y-39143D01*
X-75144Y-39143D01*
X-73194Y-39951D01*
X-71701Y-41444D01*
X-70893Y-43394D01*
X-70893Y-45506D01*
X-71701Y-47456D01*
X-73194Y-48949D01*
X-75144Y-49757D01*
X-77256Y-49757D01*
G37*
%LPD*%
%LPC*%
G36*
X11644Y-48487D02*
X11644Y-48487D01*
X9694Y-47679D01*
X8201Y-46186D01*
X7393Y-44236D01*
X7393Y-42124D01*
X8201Y-40174D01*
X9694Y-38681D01*
X11644Y-37873D01*
X13756Y-37873D01*
X15706Y-38681D01*
X17199Y-40174D01*
X18007Y-42124D01*
X18007Y-44236D01*
X17199Y-46186D01*
X15706Y-47679D01*
X13756Y-48487D01*
X11644Y-48487D01*
G37*
%LPD*%
%LPC*%
G36*
X-89956Y-94207D02*
X-89956Y-94207D01*
X-91906Y-93399D01*
X-93399Y-91906D01*
X-94207Y-89956D01*
X-94207Y-87844D01*
X-93399Y-85894D01*
X-91906Y-84401D01*
X-89956Y-83593D01*
X-87844Y-83593D01*
X-85894Y-84401D01*
X-84401Y-85894D01*
X-83593Y-87844D01*
X-83593Y-89956D01*
X-84401Y-91906D01*
X-85894Y-93399D01*
X-87844Y-94207D01*
X-89956Y-94207D01*
G37*
%LPD*%
%LPC*%
G36*
X-68366Y-33247D02*
X-68366Y-33247D01*
X-70316Y-32439D01*
X-71809Y-30946D01*
X-72617Y-28996D01*
X-72617Y-26884D01*
X-71809Y-24934D01*
X-70316Y-23441D01*
X-68366Y-22633D01*
X-66254Y-22633D01*
X-64304Y-23441D01*
X-62811Y-24934D01*
X-62003Y-26884D01*
X-62003Y-28996D01*
X-62811Y-30946D01*
X-64304Y-32439D01*
X-66254Y-33247D01*
X-68366Y-33247D01*
G37*
%LPD*%
%LPC*%
G36*
X-7406Y261393D02*
X-7406Y261393D01*
X-9356Y262201D01*
X-10849Y263694D01*
X-11657Y265644D01*
X-11657Y267756D01*
X-10849Y269706D01*
X-9356Y271199D01*
X-7406Y272007D01*
X-5294Y272007D01*
X-3344Y271199D01*
X-1851Y269706D01*
X-1043Y267756D01*
X-1043Y265644D01*
X-1851Y263694D01*
X-3344Y262201D01*
X-5294Y261393D01*
X-7406Y261393D01*
G37*
%LPD*%
%LPC*%
G36*
X-253652Y-386257D02*
X-253652Y-386257D01*
X-255380Y-385695D01*
X-256999Y-384870D01*
X-258468Y-383803D01*
X-259753Y-382518D01*
X-260820Y-381049D01*
X-261645Y-379430D01*
X-262207Y-377702D01*
X-262313Y-377031D01*
X-252981Y-377031D01*
X-252981Y-386363D01*
X-253652Y-386257D01*
G37*
%LPD*%
%LPC*%
G36*
X-215552Y-386257D02*
X-215552Y-386257D01*
X-217280Y-385695D01*
X-218899Y-384870D01*
X-220368Y-383803D01*
X-221653Y-382518D01*
X-222720Y-381049D01*
X-223545Y-379430D01*
X-224107Y-377702D01*
X-224213Y-377031D01*
X-214881Y-377031D01*
X-214881Y-386363D01*
X-215552Y-386257D01*
G37*
%LPD*%
%LPC*%
G36*
X-224213Y-372969D02*
X-224213Y-372969D01*
X-224107Y-372298D01*
X-223545Y-370570D01*
X-222720Y-368951D01*
X-221653Y-367482D01*
X-220368Y-366197D01*
X-218899Y-365130D01*
X-217280Y-364305D01*
X-215552Y-363743D01*
X-214881Y-363637D01*
X-214881Y-372969D01*
X-224213Y-372969D01*
G37*
%LPD*%
%LPC*%
G36*
X-262313Y-372969D02*
X-262313Y-372969D01*
X-262207Y-372298D01*
X-261645Y-370570D01*
X-260820Y-368951D01*
X-259753Y-367482D01*
X-258468Y-366197D01*
X-256999Y-365130D01*
X-255380Y-364305D01*
X-253652Y-363743D01*
X-252981Y-363637D01*
X-252981Y-372969D01*
X-262313Y-372969D01*
G37*
%LPD*%
%LPC*%
G36*
X-210819Y-377031D02*
X-210819Y-377031D01*
X-201487Y-377031D01*
X-201593Y-377702D01*
X-202155Y-379430D01*
X-202980Y-381049D01*
X-204047Y-382518D01*
X-205332Y-383803D01*
X-206801Y-384870D01*
X-208420Y-385695D01*
X-210148Y-386257D01*
X-210819Y-386363D01*
X-210819Y-377031D01*
G37*
%LPD*%
%LPC*%
G36*
X-248919Y-377031D02*
X-248919Y-377031D01*
X-239587Y-377031D01*
X-239693Y-377702D01*
X-240255Y-379430D01*
X-241080Y-381049D01*
X-242147Y-382518D01*
X-243432Y-383803D01*
X-244901Y-384870D01*
X-246520Y-385695D01*
X-248248Y-386257D01*
X-248919Y-386363D01*
X-248919Y-377031D01*
G37*
%LPD*%
%LPC*%
G36*
X-210819Y-372969D02*
X-210819Y-372969D01*
X-210819Y-363637D01*
X-210148Y-363743D01*
X-208420Y-364305D01*
X-206801Y-365130D01*
X-205332Y-366197D01*
X-204047Y-367482D01*
X-202980Y-368951D01*
X-202155Y-370570D01*
X-201593Y-372298D01*
X-201487Y-372969D01*
X-210819Y-372969D01*
G37*
%LPD*%
%LPC*%
G36*
X-248919Y-372969D02*
X-248919Y-372969D01*
X-248919Y-363637D01*
X-248248Y-363743D01*
X-246520Y-364305D01*
X-244901Y-365130D01*
X-243432Y-366197D01*
X-242147Y-367482D01*
X-241080Y-368951D01*
X-240255Y-370570D01*
X-239693Y-372298D01*
X-239587Y-372969D01*
X-248919Y-372969D01*
G37*
%LPD*%
%LPC*%
G36*
X-234436Y-18340D02*
X-234436Y-18340D01*
X-235962Y-17844D01*
X-237391Y-17116D01*
X-238689Y-16173D01*
X-239823Y-15039D01*
X-240766Y-13741D01*
X-241494Y-12312D01*
X-241990Y-10786D01*
X-242046Y-10431D01*
X-234081Y-10431D01*
X-234081Y-18396D01*
X-234436Y-18340D01*
G37*
%LPD*%
%LPC*%
G36*
X419981Y-109631D02*
X419981Y-109631D01*
X427946Y-109631D01*
X427890Y-109986D01*
X427394Y-111512D01*
X426666Y-112941D01*
X425723Y-114239D01*
X424589Y-115373D01*
X423291Y-116316D01*
X421862Y-117044D01*
X420336Y-117540D01*
X419981Y-117596D01*
X419981Y-109631D01*
G37*
%LPD*%
%LPC*%
G36*
X419981Y-262031D02*
X419981Y-262031D01*
X427946Y-262031D01*
X427890Y-262386D01*
X427394Y-263912D01*
X426666Y-265341D01*
X425723Y-266639D01*
X424589Y-267773D01*
X423291Y-268716D01*
X421862Y-269444D01*
X420336Y-269940D01*
X419981Y-269996D01*
X419981Y-262031D01*
G37*
%LPD*%
%LPC*%
G36*
X419981Y-287431D02*
X419981Y-287431D01*
X427946Y-287431D01*
X427890Y-287786D01*
X427394Y-289312D01*
X426666Y-290741D01*
X425723Y-292039D01*
X424589Y-293173D01*
X423291Y-294116D01*
X421862Y-294844D01*
X420336Y-295340D01*
X419981Y-295396D01*
X419981Y-287431D01*
G37*
%LPD*%
%LPC*%
G36*
X419981Y-185831D02*
X419981Y-185831D01*
X427946Y-185831D01*
X427890Y-186186D01*
X427394Y-187712D01*
X426666Y-189141D01*
X425723Y-190439D01*
X424589Y-191573D01*
X423291Y-192516D01*
X421862Y-193244D01*
X420336Y-193740D01*
X419981Y-193796D01*
X419981Y-185831D01*
G37*
%LPD*%
%LPC*%
G36*
X415564Y-193740D02*
X415564Y-193740D01*
X414038Y-193244D01*
X412609Y-192516D01*
X411311Y-191573D01*
X410177Y-190439D01*
X409234Y-189141D01*
X408506Y-187712D01*
X408010Y-186186D01*
X407954Y-185831D01*
X415919Y-185831D01*
X415919Y-193796D01*
X415564Y-193740D01*
G37*
%LPD*%
%LPC*%
G36*
X419981Y-181769D02*
X419981Y-181769D01*
X419981Y-173804D01*
X420336Y-173860D01*
X421862Y-174356D01*
X423291Y-175084D01*
X424589Y-176027D01*
X425723Y-177161D01*
X426666Y-178459D01*
X427394Y-179888D01*
X427890Y-181414D01*
X427946Y-181769D01*
X419981Y-181769D01*
G37*
%LPD*%
%LPC*%
G36*
X-230019Y-10431D02*
X-230019Y-10431D01*
X-222054Y-10431D01*
X-222110Y-10786D01*
X-222606Y-12312D01*
X-223334Y-13741D01*
X-224277Y-15039D01*
X-225411Y-16173D01*
X-226709Y-17116D01*
X-228138Y-17844D01*
X-229664Y-18340D01*
X-230019Y-18396D01*
X-230019Y-10431D01*
G37*
%LPD*%
%LPC*%
G36*
X419981Y-105569D02*
X419981Y-105569D01*
X419981Y-97604D01*
X420336Y-97660D01*
X421862Y-98156D01*
X423291Y-98884D01*
X424589Y-99827D01*
X425723Y-100961D01*
X426666Y-102259D01*
X427394Y-103688D01*
X427890Y-105214D01*
X427946Y-105569D01*
X419981Y-105569D01*
G37*
%LPD*%
%LPC*%
G36*
X415564Y-269940D02*
X415564Y-269940D01*
X414038Y-269444D01*
X412609Y-268716D01*
X411311Y-267773D01*
X410177Y-266639D01*
X409234Y-265341D01*
X408506Y-263912D01*
X408010Y-262386D01*
X407954Y-262031D01*
X415919Y-262031D01*
X415919Y-269996D01*
X415564Y-269940D01*
G37*
%LPD*%
%LPC*%
G36*
X415564Y-117540D02*
X415564Y-117540D01*
X414038Y-117044D01*
X412609Y-116316D01*
X411311Y-115373D01*
X410177Y-114239D01*
X409234Y-112941D01*
X408506Y-111512D01*
X408010Y-109986D01*
X407954Y-109631D01*
X415919Y-109631D01*
X415919Y-117596D01*
X415564Y-117540D01*
G37*
%LPD*%
%LPC*%
G36*
X419981Y-283369D02*
X419981Y-283369D01*
X419981Y-275404D01*
X420336Y-275460D01*
X421862Y-275956D01*
X423291Y-276684D01*
X424589Y-277627D01*
X425723Y-278761D01*
X426666Y-280059D01*
X427394Y-281488D01*
X427890Y-283014D01*
X427946Y-283369D01*
X419981Y-283369D01*
G37*
%LPD*%
%LPC*%
G36*
X415564Y-295340D02*
X415564Y-295340D01*
X414038Y-294844D01*
X412609Y-294116D01*
X411311Y-293173D01*
X410177Y-292039D01*
X409234Y-290741D01*
X408506Y-289312D01*
X408010Y-287786D01*
X407954Y-287431D01*
X415919Y-287431D01*
X415919Y-295396D01*
X415564Y-295340D01*
G37*
%LPD*%
%LPC*%
G36*
X-242046Y-6369D02*
X-242046Y-6369D01*
X-241990Y-6014D01*
X-241494Y-4488D01*
X-240766Y-3059D01*
X-239823Y-1761D01*
X-238689Y-627D01*
X-237391Y316D01*
X-235962Y1044D01*
X-234436Y1540D01*
X-234081Y1596D01*
X-234081Y-6369D01*
X-242046Y-6369D01*
G37*
%LPD*%
%LPC*%
G36*
X407954Y-105569D02*
X407954Y-105569D01*
X408010Y-105214D01*
X408506Y-103688D01*
X409234Y-102259D01*
X410177Y-100961D01*
X411311Y-99827D01*
X412609Y-98884D01*
X414038Y-98156D01*
X415564Y-97660D01*
X415919Y-97604D01*
X415919Y-105569D01*
X407954Y-105569D01*
G37*
%LPD*%
%LPC*%
G36*
X407954Y-181769D02*
X407954Y-181769D01*
X408010Y-181414D01*
X408506Y-179888D01*
X409234Y-178459D01*
X410177Y-177161D01*
X411311Y-176027D01*
X412609Y-175084D01*
X414038Y-174356D01*
X415564Y-173860D01*
X415919Y-173804D01*
X415919Y-181769D01*
X407954Y-181769D01*
G37*
%LPD*%
%LPC*%
G36*
X407954Y-283369D02*
X407954Y-283369D01*
X408010Y-283014D01*
X408506Y-281488D01*
X409234Y-280059D01*
X410177Y-278761D01*
X411311Y-277627D01*
X412609Y-276684D01*
X414038Y-275956D01*
X415564Y-275460D01*
X415919Y-275404D01*
X415919Y-283369D01*
X407954Y-283369D01*
G37*
%LPD*%
%LPC*%
G36*
X-230019Y-6369D02*
X-230019Y-6369D01*
X-230019Y1596D01*
X-229664Y1540D01*
X-228138Y1044D01*
X-226709Y316D01*
X-225411Y-627D01*
X-224277Y-1761D01*
X-223334Y-3059D01*
X-222606Y-4488D01*
X-222110Y-6014D01*
X-222054Y-6369D01*
X-230019Y-6369D01*
G37*
%LPD*%
%LPC*%
G36*
X417949Y-107601D02*
X417949Y-107601D01*
X417949Y-107599D01*
X417951Y-107599D01*
X417951Y-107601D01*
X417949Y-107601D01*
G37*
%LPD*%
%LPC*%
G36*
X417949Y-183801D02*
X417949Y-183801D01*
X417949Y-183799D01*
X417951Y-183799D01*
X417951Y-183801D01*
X417949Y-183801D01*
G37*
%LPD*%
%LPC*%
G36*
X-232051Y-8401D02*
X-232051Y-8401D01*
X-232051Y-8399D01*
X-232049Y-8399D01*
X-232049Y-8401D01*
X-232051Y-8401D01*
G37*
%LPD*%
%LPC*%
G36*
X-250951Y-375001D02*
X-250951Y-375001D01*
X-250951Y-374999D01*
X-250949Y-374999D01*
X-250949Y-375001D01*
X-250951Y-375001D01*
G37*
%LPD*%
%LPC*%
G36*
X-212851Y-375001D02*
X-212851Y-375001D01*
X-212851Y-374999D01*
X-212849Y-374999D01*
X-212849Y-375001D01*
X-212851Y-375001D01*
G37*
%LPD*%
%LPC*%
G36*
X417949Y-285401D02*
X417949Y-285401D01*
X417949Y-285399D01*
X417951Y-285399D01*
X417951Y-285401D01*
X417949Y-285401D01*
G37*
%LPD*%
D10*
X133350Y375000D03*
X95250Y375000D03*
X57150Y375000D03*
X19050Y375000D03*
X-19050Y375000D03*
X-57150Y375000D03*
X-95250Y375000D03*
X-133350Y375000D03*
X-327150Y-375000D03*
X-289050Y-375000D03*
X-250950Y-375000D03*
X-212850Y-375000D03*
D11*
X417950Y-285400D03*
X392550Y-285400D03*
X417950Y-260000D03*
X392550Y-260000D03*
X417950Y-234600D03*
X392550Y-234600D03*
X417950Y-209200D03*
X392550Y-209200D03*
X417950Y-183800D03*
X392550Y-183800D03*
X417950Y-158400D03*
X392550Y-158400D03*
X417950Y-133000D03*
X392550Y-133000D03*
X417950Y-107600D03*
X392550Y-107600D03*
X417950Y-82200D03*
X392550Y-82200D03*
X417950Y-56800D03*
X392550Y-56800D03*
X-257450Y93200D03*
X-232050Y93200D03*
X-257450Y67800D03*
X-232050Y67800D03*
X-257450Y42400D03*
X-232050Y42400D03*
X-257450Y17000D03*
X-232050Y17000D03*
X-257450Y-8400D03*
X-232050Y-8400D03*
X-257450Y-33800D03*
X-232050Y-33800D03*
X-257450Y-59200D03*
X-232050Y-59200D03*
X-257450Y-84600D03*
X-232050Y-84600D03*
X-257450Y-110000D03*
X-232050Y-110000D03*
X-257450Y-135400D03*
X-232050Y-135400D03*
X-139700Y76200D03*
X-114300Y76200D03*
X-88900Y76200D03*
X-139700Y101600D03*
X-114300Y101600D03*
X-88900Y101600D03*
X-63500Y76200D03*
X-63500Y101600D03*
X-25400Y76200D03*
X0Y76200D03*
X25400Y76200D03*
X-25400Y101600D03*
X0Y101600D03*
X25400Y101600D03*
X50800Y76200D03*
X50800Y101600D03*
D12*
X69850Y-50800D03*
D13*
X106680Y-59690D03*
D12*
X222250Y-57150D03*
X222250Y-82550D03*
X234950Y-101600D03*
X234950Y-38100D03*
X76200Y-101600D03*
X120650Y-57150D03*
X88900Y-50800D03*
X82550Y-95250D03*
X88900Y-88900D03*
D13*
X-330200Y-266700D03*
X-317500Y-266700D03*
X-330200Y-279400D03*
X-317500Y-279400D03*
X-304800Y-266700D03*
X-292100Y-266700D03*
X-279400Y-266700D03*
X-304800Y-342900D03*
X-304800Y-355600D03*
X-317500Y-342900D03*
D12*
X-368300Y50800D03*
X-368300Y114300D03*
X-368300Y171450D03*
X-368300Y234950D03*
X-63500Y-241300D03*
X-50800Y-254000D03*
X50800Y-266700D03*
X-76200Y-44450D03*
X-67310Y-27940D03*
X-111760Y-15240D03*
X12700Y-43180D03*
X25400Y241300D03*
X-95250Y241300D03*
X-12700Y-43180D03*
X63500Y184150D03*
X-69850Y241300D03*
X-6350Y266700D03*
D13*
X-63500Y-254000D03*
X90170Y-223520D03*
X116840Y-250190D03*
D12*
X139700Y-184150D03*
X-146050Y177800D03*
X76200Y63500D03*
X-107950Y222250D03*
X-63500Y222250D03*
X-25400Y222250D03*
X31750Y222250D03*
X-127000Y222250D03*
X-88900Y-88900D03*
X50800Y222250D03*
X19050Y-63500D03*
X-25400Y-76200D03*
X137160Y-219710D03*
D13*
X147320Y-270510D03*
X100330Y-223520D03*
D12*
X-31750Y-107950D03*
X-19050Y-107950D03*
X-25400Y-101600D03*
X-25400Y-114300D03*
X-38100Y-101600D03*
X-50800Y-101600D03*
X-38100Y-114300D03*
X38100Y-222250D03*
X31750Y-177800D03*
D13*
X-31750Y-255270D03*
X64770Y-215900D03*
M02*
