G04 EAGLE Gerber RS-274X export*
G75*
%MOMM*%
%FSLAX34Y34*%
%LPD*%
%INBottom Copper*%
%IPPOS*%
%AMOC8*
5,1,8,0,0,1.08239X$1,22.5*%
G01*
%ADD10C,1.800000*%
%ADD11R,1.530000X1.530000*%
%ADD12C,1.530000*%
%ADD13C,0.756400*%
%ADD14C,0.706400*%
%ADD15C,0.203200*%

G36*
X82576Y-268220D02*
X82576Y-268220D01*
X82602Y-268222D01*
X82749Y-268200D01*
X82896Y-268183D01*
X82921Y-268175D01*
X82947Y-268171D01*
X83085Y-268116D01*
X83224Y-268066D01*
X83246Y-268052D01*
X83271Y-268042D01*
X83392Y-267957D01*
X83517Y-267877D01*
X83535Y-267858D01*
X83557Y-267843D01*
X83656Y-267733D01*
X83759Y-267626D01*
X83773Y-267604D01*
X83790Y-267584D01*
X83862Y-267454D01*
X83938Y-267327D01*
X83946Y-267302D01*
X83959Y-267279D01*
X83999Y-267136D01*
X84044Y-266995D01*
X84046Y-266969D01*
X84054Y-266944D01*
X84073Y-266700D01*
X84073Y-239427D01*
X84059Y-239302D01*
X84052Y-239176D01*
X84039Y-239129D01*
X84033Y-239081D01*
X83991Y-238962D01*
X83956Y-238841D01*
X83932Y-238798D01*
X83916Y-238753D01*
X83847Y-238647D01*
X83786Y-238536D01*
X83746Y-238490D01*
X83727Y-238460D01*
X83692Y-238427D01*
X83627Y-238350D01*
X79150Y-233873D01*
X79051Y-233794D01*
X78957Y-233710D01*
X78915Y-233686D01*
X78877Y-233656D01*
X78763Y-233602D01*
X78652Y-233541D01*
X78605Y-233528D01*
X78562Y-233507D01*
X78438Y-233481D01*
X78316Y-233446D01*
X78256Y-233442D01*
X78221Y-233434D01*
X78173Y-233435D01*
X78073Y-233427D01*
X52323Y-233427D01*
X52323Y55627D01*
X73683Y55627D01*
X73733Y55633D01*
X73783Y55630D01*
X73905Y55652D01*
X74029Y55667D01*
X74076Y55684D01*
X74126Y55693D01*
X74240Y55742D01*
X74357Y55784D01*
X74399Y55811D01*
X74445Y55832D01*
X74545Y55906D01*
X74650Y55973D01*
X74685Y56009D01*
X74725Y56039D01*
X74806Y56134D01*
X74892Y56224D01*
X74918Y56267D01*
X74950Y56305D01*
X75007Y56416D01*
X75071Y56523D01*
X75086Y56571D01*
X75109Y56616D01*
X75139Y56737D01*
X75177Y56855D01*
X75181Y56905D01*
X75193Y56954D01*
X75195Y57078D01*
X75205Y57202D01*
X75198Y57252D01*
X75198Y57302D01*
X75172Y57424D01*
X75153Y57547D01*
X75135Y57594D01*
X75124Y57643D01*
X75071Y57755D01*
X75025Y57871D01*
X74996Y57912D01*
X74974Y57958D01*
X74897Y58055D01*
X74826Y58157D01*
X74788Y58191D01*
X74757Y58230D01*
X74659Y58307D01*
X74567Y58390D01*
X74523Y58415D01*
X74483Y58446D01*
X74266Y58557D01*
X73194Y59001D01*
X71701Y60494D01*
X70893Y62444D01*
X70893Y64556D01*
X71701Y66506D01*
X73194Y67999D01*
X75144Y68807D01*
X77256Y68807D01*
X79206Y67999D01*
X80699Y66506D01*
X81507Y64556D01*
X81507Y62444D01*
X80699Y60494D01*
X79206Y59001D01*
X78134Y58557D01*
X78090Y58533D01*
X78043Y58516D01*
X77939Y58449D01*
X77830Y58388D01*
X77792Y58354D01*
X77750Y58327D01*
X77664Y58237D01*
X77572Y58154D01*
X77543Y58113D01*
X77508Y58076D01*
X77444Y57969D01*
X77373Y57867D01*
X77355Y57820D01*
X77329Y57777D01*
X77291Y57659D01*
X77246Y57543D01*
X77238Y57493D01*
X77223Y57445D01*
X77213Y57321D01*
X77195Y57198D01*
X77199Y57148D01*
X77195Y57098D01*
X77213Y56975D01*
X77224Y56851D01*
X77239Y56803D01*
X77247Y56753D01*
X77293Y56637D01*
X77331Y56519D01*
X77357Y56476D01*
X77375Y56429D01*
X77446Y56327D01*
X77510Y56221D01*
X77546Y56184D01*
X77574Y56143D01*
X77667Y56060D01*
X77753Y55971D01*
X77796Y55943D01*
X77833Y55910D01*
X77942Y55850D01*
X78047Y55782D01*
X78094Y55766D01*
X78138Y55741D01*
X78258Y55707D01*
X78375Y55666D01*
X78425Y55660D01*
X78474Y55646D01*
X78717Y55627D01*
X437554Y55627D01*
X437580Y55630D01*
X437606Y55628D01*
X437753Y55650D01*
X437900Y55667D01*
X437925Y55675D01*
X437951Y55679D01*
X438089Y55734D01*
X438228Y55784D01*
X438250Y55798D01*
X438275Y55808D01*
X438396Y55893D01*
X438521Y55973D01*
X438539Y55992D01*
X438561Y56007D01*
X438660Y56117D01*
X438763Y56224D01*
X438777Y56246D01*
X438794Y56266D01*
X438866Y56396D01*
X438942Y56523D01*
X438950Y56548D01*
X438963Y56571D01*
X439003Y56714D01*
X439048Y56855D01*
X439050Y56881D01*
X439058Y56906D01*
X439077Y57150D01*
X439077Y305275D01*
X439073Y305309D01*
X439076Y305343D01*
X439053Y305482D01*
X439037Y305622D01*
X439026Y305654D01*
X439021Y305687D01*
X438967Y305817D01*
X438920Y305950D01*
X438901Y305978D01*
X438889Y306010D01*
X438807Y306124D01*
X438731Y306242D01*
X438706Y306266D01*
X438687Y306294D01*
X438581Y306387D01*
X438480Y306485D01*
X438451Y306502D01*
X438425Y306525D01*
X438302Y306591D01*
X438181Y306663D01*
X438149Y306674D01*
X438119Y306690D01*
X437983Y306727D01*
X437849Y306770D01*
X437815Y306772D01*
X437782Y306781D01*
X437642Y306786D01*
X437502Y306798D01*
X437468Y306793D01*
X437434Y306794D01*
X437296Y306767D01*
X437157Y306746D01*
X437126Y306733D01*
X437092Y306727D01*
X436964Y306669D01*
X436833Y306617D01*
X436805Y306598D01*
X436774Y306584D01*
X436575Y306442D01*
X434647Y304824D01*
X425348Y301440D01*
X415452Y301440D01*
X406153Y304824D01*
X398573Y311185D01*
X393625Y319755D01*
X391907Y329500D01*
X393625Y339245D01*
X398573Y347815D01*
X406153Y354176D01*
X415452Y357560D01*
X425348Y357560D01*
X434647Y354176D01*
X436575Y352558D01*
X436603Y352539D01*
X436628Y352515D01*
X436748Y352443D01*
X436866Y352366D01*
X436898Y352354D01*
X436927Y352337D01*
X437061Y352294D01*
X437193Y352245D01*
X437226Y352241D01*
X437259Y352230D01*
X437399Y352219D01*
X437538Y352202D01*
X437572Y352205D01*
X437606Y352202D01*
X437745Y352223D01*
X437885Y352238D01*
X437917Y352249D01*
X437951Y352254D01*
X438081Y352306D01*
X438214Y352352D01*
X438243Y352370D01*
X438275Y352383D01*
X438390Y352463D01*
X438509Y352538D01*
X438533Y352562D01*
X438561Y352582D01*
X438655Y352686D01*
X438754Y352786D01*
X438772Y352815D01*
X438794Y352840D01*
X438862Y352964D01*
X438936Y353083D01*
X438946Y353116D01*
X438963Y353146D01*
X439001Y353281D01*
X439045Y353414D01*
X439048Y353448D01*
X439058Y353481D01*
X439077Y353725D01*
X439077Y382554D01*
X439074Y382580D01*
X439076Y382606D01*
X439054Y382753D01*
X439037Y382900D01*
X439029Y382925D01*
X439025Y382951D01*
X438970Y383089D01*
X438920Y383228D01*
X438906Y383250D01*
X438896Y383275D01*
X438811Y383396D01*
X438731Y383521D01*
X438712Y383539D01*
X438697Y383561D01*
X438587Y383660D01*
X438480Y383763D01*
X438458Y383777D01*
X438438Y383794D01*
X438308Y383866D01*
X438181Y383942D01*
X438156Y383950D01*
X438133Y383963D01*
X437990Y384003D01*
X437849Y384048D01*
X437823Y384050D01*
X437798Y384058D01*
X437554Y384077D01*
X387827Y384077D01*
X383813Y385740D01*
X380740Y388813D01*
X379077Y392827D01*
X379077Y412554D01*
X379074Y412580D01*
X379076Y412606D01*
X379054Y412753D01*
X379037Y412900D01*
X379029Y412925D01*
X379025Y412951D01*
X378970Y413089D01*
X378920Y413228D01*
X378906Y413250D01*
X378896Y413275D01*
X378811Y413396D01*
X378731Y413521D01*
X378712Y413539D01*
X378697Y413561D01*
X378587Y413660D01*
X378480Y413763D01*
X378458Y413777D01*
X378438Y413794D01*
X378308Y413866D01*
X378181Y413942D01*
X378156Y413950D01*
X378133Y413963D01*
X377990Y414003D01*
X377849Y414048D01*
X377823Y414050D01*
X377798Y414058D01*
X377554Y414077D01*
X-184150Y414077D01*
X-184176Y414074D01*
X-184202Y414076D01*
X-184349Y414054D01*
X-184496Y414037D01*
X-184521Y414029D01*
X-184547Y414025D01*
X-184685Y413970D01*
X-184824Y413920D01*
X-184846Y413906D01*
X-184871Y413896D01*
X-184992Y413811D01*
X-185117Y413731D01*
X-185135Y413712D01*
X-185157Y413697D01*
X-185256Y413587D01*
X-185359Y413480D01*
X-185373Y413458D01*
X-185390Y413438D01*
X-185462Y413308D01*
X-185538Y413181D01*
X-185546Y413156D01*
X-185559Y413133D01*
X-185599Y412990D01*
X-185644Y412849D01*
X-185646Y412823D01*
X-185654Y412798D01*
X-185673Y412554D01*
X-185673Y31750D01*
X-185670Y31724D01*
X-185672Y31698D01*
X-185650Y31551D01*
X-185633Y31404D01*
X-185625Y31379D01*
X-185621Y31353D01*
X-185566Y31215D01*
X-185516Y31076D01*
X-185502Y31054D01*
X-185492Y31029D01*
X-185407Y30908D01*
X-185327Y30783D01*
X-185308Y30765D01*
X-185293Y30743D01*
X-185183Y30644D01*
X-185076Y30541D01*
X-185054Y30527D01*
X-185034Y30510D01*
X-184904Y30438D01*
X-184777Y30362D01*
X-184752Y30354D01*
X-184729Y30341D01*
X-184586Y30301D01*
X-184445Y30256D01*
X-184419Y30254D01*
X-184394Y30246D01*
X-184150Y30227D01*
X-166623Y30227D01*
X-166623Y-203200D01*
X-166620Y-203226D01*
X-166622Y-203252D01*
X-166600Y-203399D01*
X-166583Y-203546D01*
X-166575Y-203571D01*
X-166571Y-203597D01*
X-166516Y-203735D01*
X-166466Y-203874D01*
X-166452Y-203896D01*
X-166442Y-203921D01*
X-166357Y-204042D01*
X-166277Y-204167D01*
X-166258Y-204185D01*
X-166243Y-204207D01*
X-166133Y-204306D01*
X-166026Y-204409D01*
X-166004Y-204423D01*
X-165984Y-204440D01*
X-165854Y-204512D01*
X-165727Y-204588D01*
X-165702Y-204596D01*
X-165679Y-204609D01*
X-165536Y-204649D01*
X-165395Y-204694D01*
X-165369Y-204696D01*
X-165344Y-204704D01*
X-165100Y-204723D01*
X-77723Y-204723D01*
X-77723Y-266700D01*
X-77720Y-266726D01*
X-77722Y-266752D01*
X-77700Y-266899D01*
X-77683Y-267046D01*
X-77675Y-267071D01*
X-77671Y-267097D01*
X-77616Y-267235D01*
X-77566Y-267374D01*
X-77552Y-267396D01*
X-77542Y-267421D01*
X-77457Y-267542D01*
X-77377Y-267667D01*
X-77358Y-267685D01*
X-77343Y-267707D01*
X-77233Y-267806D01*
X-77126Y-267909D01*
X-77104Y-267923D01*
X-77084Y-267940D01*
X-76954Y-268012D01*
X-76827Y-268088D01*
X-76802Y-268096D01*
X-76779Y-268109D01*
X-76636Y-268149D01*
X-76495Y-268194D01*
X-76469Y-268196D01*
X-76444Y-268204D01*
X-76200Y-268223D01*
X82550Y-268223D01*
X82576Y-268220D01*
G37*
G36*
X431858Y-409947D02*
X431858Y-409947D01*
X431916Y-409949D01*
X431998Y-409927D01*
X432082Y-409915D01*
X432135Y-409892D01*
X432191Y-409877D01*
X432264Y-409834D01*
X432341Y-409799D01*
X432386Y-409761D01*
X432436Y-409732D01*
X432494Y-409670D01*
X432558Y-409616D01*
X432590Y-409567D01*
X432630Y-409524D01*
X432669Y-409449D01*
X432716Y-409379D01*
X432733Y-409323D01*
X432760Y-409271D01*
X432771Y-409203D01*
X432801Y-409108D01*
X432804Y-409008D01*
X432815Y-408940D01*
X432815Y-359430D01*
X432802Y-359338D01*
X432798Y-359245D01*
X432782Y-359198D01*
X432775Y-359149D01*
X432737Y-359064D01*
X432708Y-358976D01*
X432680Y-358935D01*
X432659Y-358889D01*
X432599Y-358818D01*
X432546Y-358742D01*
X432508Y-358710D01*
X432476Y-358672D01*
X432398Y-358621D01*
X432326Y-358562D01*
X432281Y-358542D01*
X432239Y-358515D01*
X432150Y-358487D01*
X432065Y-358450D01*
X432015Y-358444D01*
X431968Y-358429D01*
X431875Y-358426D01*
X431783Y-358415D01*
X431740Y-358423D01*
X431684Y-358422D01*
X431528Y-358462D01*
X431453Y-358476D01*
X425702Y-360569D01*
X415098Y-360569D01*
X405133Y-356942D01*
X397010Y-350126D01*
X391708Y-340943D01*
X389867Y-330500D01*
X391708Y-320057D01*
X397010Y-310874D01*
X405133Y-304058D01*
X415098Y-300431D01*
X425702Y-300431D01*
X431453Y-302524D01*
X431544Y-302543D01*
X431632Y-302571D01*
X431682Y-302572D01*
X431731Y-302583D01*
X431824Y-302576D01*
X431916Y-302578D01*
X431965Y-302566D01*
X432014Y-302562D01*
X432102Y-302530D01*
X432191Y-302507D01*
X432234Y-302481D01*
X432281Y-302464D01*
X432356Y-302409D01*
X432436Y-302361D01*
X432470Y-302325D01*
X432510Y-302295D01*
X432567Y-302222D01*
X432630Y-302154D01*
X432653Y-302110D01*
X432684Y-302070D01*
X432718Y-301984D01*
X432760Y-301901D01*
X432767Y-301858D01*
X432788Y-301806D01*
X432803Y-301645D01*
X432815Y-301570D01*
X432815Y-248920D01*
X432807Y-248862D01*
X432809Y-248804D01*
X432787Y-248722D01*
X432775Y-248639D01*
X432752Y-248585D01*
X432737Y-248529D01*
X432694Y-248456D01*
X432659Y-248379D01*
X432621Y-248334D01*
X432592Y-248284D01*
X432530Y-248226D01*
X432476Y-248162D01*
X432427Y-248130D01*
X432384Y-248090D01*
X432309Y-248051D01*
X432239Y-248005D01*
X432183Y-247987D01*
X432131Y-247960D01*
X432063Y-247949D01*
X431968Y-247919D01*
X431868Y-247916D01*
X431800Y-247905D01*
X419627Y-247905D01*
X419565Y-247914D01*
X419502Y-247913D01*
X419425Y-247933D01*
X419346Y-247945D01*
X419288Y-247970D01*
X419227Y-247987D01*
X419159Y-248028D01*
X419086Y-248061D01*
X419038Y-248102D01*
X418984Y-248134D01*
X418930Y-248193D01*
X418869Y-248245D01*
X418834Y-248297D01*
X418792Y-248343D01*
X418756Y-248415D01*
X418712Y-248481D01*
X418693Y-248541D01*
X418665Y-248598D01*
X418650Y-248676D01*
X418626Y-248752D01*
X418624Y-248815D01*
X418613Y-248877D01*
X418621Y-248957D01*
X418619Y-249036D01*
X418635Y-249097D01*
X418641Y-249160D01*
X418670Y-249234D01*
X418691Y-249311D01*
X418723Y-249366D01*
X418746Y-249424D01*
X418795Y-249487D01*
X418836Y-249556D01*
X418882Y-249599D01*
X418920Y-249649D01*
X418985Y-249696D01*
X419043Y-249750D01*
X419099Y-249779D01*
X419150Y-249816D01*
X419213Y-249837D01*
X419296Y-249880D01*
X419384Y-249894D01*
X419469Y-249923D01*
X420336Y-250060D01*
X421862Y-250556D01*
X423291Y-251284D01*
X424589Y-252227D01*
X425723Y-253361D01*
X426666Y-254659D01*
X427394Y-256088D01*
X427890Y-257614D01*
X427946Y-257969D01*
X418966Y-257969D01*
X418908Y-257977D01*
X418850Y-257975D01*
X418768Y-257997D01*
X418685Y-258009D01*
X418631Y-258033D01*
X418575Y-258047D01*
X418502Y-258090D01*
X418425Y-258125D01*
X418381Y-258163D01*
X418330Y-258193D01*
X418273Y-258254D01*
X418208Y-258309D01*
X418176Y-258357D01*
X418136Y-258400D01*
X418097Y-258475D01*
X418051Y-258545D01*
X418033Y-258601D01*
X418006Y-258653D01*
X417995Y-258721D01*
X417965Y-258816D01*
X417962Y-258916D01*
X417951Y-258984D01*
X417951Y-260001D01*
X417949Y-260001D01*
X417949Y-258984D01*
X417941Y-258926D01*
X417942Y-258868D01*
X417921Y-258786D01*
X417909Y-258703D01*
X417885Y-258649D01*
X417871Y-258593D01*
X417828Y-258520D01*
X417793Y-258443D01*
X417755Y-258398D01*
X417725Y-258348D01*
X417664Y-258290D01*
X417609Y-258226D01*
X417561Y-258194D01*
X417518Y-258154D01*
X417443Y-258115D01*
X417373Y-258069D01*
X417317Y-258051D01*
X417265Y-258024D01*
X417197Y-258013D01*
X417102Y-257983D01*
X417002Y-257980D01*
X416934Y-257969D01*
X407954Y-257969D01*
X408010Y-257614D01*
X408506Y-256088D01*
X409234Y-254659D01*
X410177Y-253361D01*
X411311Y-252227D01*
X412609Y-251284D01*
X414038Y-250556D01*
X415564Y-250060D01*
X416431Y-249923D01*
X416492Y-249904D01*
X416554Y-249895D01*
X416627Y-249863D01*
X416703Y-249839D01*
X416756Y-249805D01*
X416814Y-249779D01*
X416875Y-249728D01*
X416941Y-249684D01*
X416982Y-249636D01*
X417031Y-249596D01*
X417075Y-249529D01*
X417127Y-249469D01*
X417153Y-249411D01*
X417188Y-249359D01*
X417212Y-249283D01*
X417246Y-249210D01*
X417255Y-249148D01*
X417274Y-249088D01*
X417276Y-249008D01*
X417288Y-248929D01*
X417280Y-248867D01*
X417281Y-248804D01*
X417261Y-248726D01*
X417251Y-248647D01*
X417225Y-248590D01*
X417209Y-248529D01*
X417169Y-248460D01*
X417137Y-248387D01*
X417096Y-248338D01*
X417064Y-248284D01*
X417006Y-248230D01*
X416955Y-248168D01*
X416903Y-248133D01*
X416857Y-248090D01*
X416786Y-248053D01*
X416720Y-248009D01*
X416660Y-247989D01*
X416604Y-247960D01*
X416538Y-247949D01*
X416450Y-247920D01*
X416361Y-247919D01*
X416273Y-247905D01*
X400050Y-247905D01*
X399992Y-247913D01*
X399934Y-247911D01*
X399852Y-247933D01*
X399769Y-247945D01*
X399715Y-247969D01*
X399659Y-247983D01*
X399586Y-248026D01*
X399509Y-248061D01*
X399464Y-248099D01*
X399414Y-248129D01*
X399356Y-248190D01*
X399292Y-248245D01*
X399260Y-248293D01*
X399220Y-248336D01*
X399181Y-248411D01*
X399135Y-248481D01*
X399117Y-248537D01*
X399090Y-248589D01*
X399079Y-248657D01*
X399049Y-248752D01*
X399046Y-248852D01*
X399035Y-248920D01*
X399035Y-252371D01*
X399047Y-252457D01*
X399050Y-252545D01*
X399067Y-252597D01*
X399075Y-252652D01*
X399110Y-252732D01*
X399137Y-252815D01*
X399165Y-252855D01*
X399191Y-252912D01*
X399287Y-253025D01*
X399332Y-253089D01*
X400759Y-254515D01*
X402233Y-258074D01*
X402233Y-261926D01*
X400759Y-265485D01*
X399332Y-266911D01*
X399280Y-266981D01*
X399220Y-267045D01*
X399194Y-267094D01*
X399161Y-267139D01*
X399130Y-267220D01*
X399090Y-267298D01*
X399082Y-267346D01*
X399060Y-267404D01*
X399048Y-267552D01*
X399035Y-267629D01*
X399035Y-277771D01*
X399047Y-277857D01*
X399050Y-277945D01*
X399067Y-277997D01*
X399075Y-278052D01*
X399110Y-278132D01*
X399137Y-278215D01*
X399165Y-278255D01*
X399191Y-278312D01*
X399287Y-278425D01*
X399332Y-278489D01*
X400759Y-279915D01*
X402233Y-283474D01*
X402233Y-287326D01*
X400759Y-290885D01*
X398035Y-293609D01*
X394476Y-295083D01*
X390624Y-295083D01*
X387065Y-293609D01*
X384839Y-291382D01*
X384769Y-291330D01*
X384705Y-291270D01*
X384656Y-291244D01*
X384611Y-291211D01*
X384530Y-291180D01*
X384452Y-291140D01*
X384404Y-291132D01*
X384346Y-291110D01*
X384198Y-291098D01*
X384121Y-291085D01*
X369570Y-291085D01*
X369512Y-291093D01*
X369454Y-291091D01*
X369372Y-291113D01*
X369289Y-291125D01*
X369235Y-291149D01*
X369179Y-291163D01*
X369106Y-291206D01*
X369029Y-291241D01*
X368984Y-291279D01*
X368934Y-291309D01*
X368876Y-291370D01*
X368812Y-291425D01*
X368780Y-291473D01*
X368740Y-291516D01*
X368701Y-291591D01*
X368655Y-291661D01*
X368637Y-291717D01*
X368610Y-291769D01*
X368599Y-291837D01*
X368569Y-291932D01*
X368566Y-292032D01*
X368555Y-292100D01*
X368555Y-341885D01*
X-269240Y-341885D01*
X-269298Y-341893D01*
X-269356Y-341891D01*
X-269438Y-341913D01*
X-269522Y-341925D01*
X-269575Y-341949D01*
X-269631Y-341963D01*
X-269704Y-342006D01*
X-269781Y-342041D01*
X-269826Y-342079D01*
X-269876Y-342109D01*
X-269934Y-342170D01*
X-269998Y-342225D01*
X-270030Y-342273D01*
X-270070Y-342316D01*
X-270109Y-342391D01*
X-270156Y-342461D01*
X-270173Y-342517D01*
X-270200Y-342569D01*
X-270211Y-342637D01*
X-270241Y-342732D01*
X-270244Y-342832D01*
X-270255Y-342900D01*
X-270255Y-408940D01*
X-270247Y-408998D01*
X-270249Y-409056D01*
X-270227Y-409138D01*
X-270215Y-409222D01*
X-270192Y-409275D01*
X-270177Y-409331D01*
X-270134Y-409404D01*
X-270099Y-409481D01*
X-270061Y-409526D01*
X-270032Y-409576D01*
X-269970Y-409634D01*
X-269916Y-409698D01*
X-269867Y-409730D01*
X-269824Y-409770D01*
X-269749Y-409809D01*
X-269679Y-409856D01*
X-269623Y-409873D01*
X-269571Y-409900D01*
X-269503Y-409911D01*
X-269408Y-409941D01*
X-269308Y-409944D01*
X-269240Y-409955D01*
X431800Y-409955D01*
X431858Y-409947D01*
G37*
%LPC*%
G36*
X-39156Y-119607D02*
X-39156Y-119607D01*
X-41106Y-118799D01*
X-42599Y-117306D01*
X-43407Y-115356D01*
X-43407Y-113244D01*
X-42599Y-111294D01*
X-41106Y-109801D01*
X-40034Y-109357D01*
X-39946Y-109308D01*
X-39854Y-109268D01*
X-39795Y-109224D01*
X-39730Y-109188D01*
X-39655Y-109120D01*
X-39575Y-109061D01*
X-39527Y-109004D01*
X-39472Y-108954D01*
X-39415Y-108871D01*
X-39350Y-108795D01*
X-39316Y-108728D01*
X-39273Y-108667D01*
X-39237Y-108574D01*
X-39191Y-108484D01*
X-39173Y-108412D01*
X-39146Y-108343D01*
X-39131Y-108243D01*
X-39107Y-108146D01*
X-39106Y-108072D01*
X-39095Y-107998D01*
X-39103Y-107898D01*
X-39102Y-107798D01*
X-39118Y-107725D01*
X-39124Y-107651D01*
X-39155Y-107555D01*
X-39176Y-107457D01*
X-39208Y-107390D01*
X-39231Y-107319D01*
X-39283Y-107233D01*
X-39326Y-107142D01*
X-39372Y-107084D01*
X-39410Y-107021D01*
X-39480Y-106949D01*
X-39543Y-106870D01*
X-39602Y-106824D01*
X-39653Y-106771D01*
X-39738Y-106716D01*
X-39817Y-106654D01*
X-39906Y-106608D01*
X-39947Y-106582D01*
X-39980Y-106570D01*
X-40034Y-106543D01*
X-41106Y-106099D01*
X-42599Y-104606D01*
X-43043Y-103534D01*
X-43091Y-103447D01*
X-43131Y-103354D01*
X-43176Y-103295D01*
X-43212Y-103230D01*
X-43279Y-103155D01*
X-43339Y-103075D01*
X-43396Y-103027D01*
X-43446Y-102972D01*
X-43529Y-102915D01*
X-43605Y-102850D01*
X-43672Y-102816D01*
X-43733Y-102773D01*
X-43826Y-102737D01*
X-43916Y-102691D01*
X-43988Y-102673D01*
X-44057Y-102646D01*
X-44157Y-102631D01*
X-44254Y-102607D01*
X-44328Y-102606D01*
X-44402Y-102595D01*
X-44502Y-102603D01*
X-44602Y-102602D01*
X-44675Y-102618D01*
X-44749Y-102624D01*
X-44845Y-102655D01*
X-44943Y-102676D01*
X-45010Y-102708D01*
X-45081Y-102731D01*
X-45167Y-102783D01*
X-45258Y-102826D01*
X-45316Y-102872D01*
X-45379Y-102910D01*
X-45451Y-102980D01*
X-45530Y-103043D01*
X-45576Y-103101D01*
X-45629Y-103153D01*
X-45684Y-103238D01*
X-45746Y-103317D01*
X-45792Y-103406D01*
X-45818Y-103447D01*
X-45830Y-103480D01*
X-45857Y-103534D01*
X-46301Y-104606D01*
X-47794Y-106099D01*
X-49744Y-106907D01*
X-51856Y-106907D01*
X-53806Y-106099D01*
X-55299Y-104606D01*
X-56107Y-102656D01*
X-56107Y-100544D01*
X-55299Y-98594D01*
X-53806Y-97101D01*
X-51856Y-96293D01*
X-49744Y-96293D01*
X-47794Y-97101D01*
X-46301Y-98594D01*
X-45857Y-99666D01*
X-45808Y-99754D01*
X-45768Y-99846D01*
X-45724Y-99905D01*
X-45688Y-99970D01*
X-45620Y-100045D01*
X-45561Y-100125D01*
X-45504Y-100173D01*
X-45454Y-100228D01*
X-45371Y-100285D01*
X-45295Y-100350D01*
X-45228Y-100384D01*
X-45167Y-100427D01*
X-45074Y-100463D01*
X-44984Y-100509D01*
X-44912Y-100527D01*
X-44843Y-100554D01*
X-44743Y-100569D01*
X-44646Y-100593D01*
X-44572Y-100594D01*
X-44498Y-100605D01*
X-44398Y-100597D01*
X-44298Y-100598D01*
X-44225Y-100582D01*
X-44151Y-100576D01*
X-44055Y-100545D01*
X-43957Y-100524D01*
X-43890Y-100492D01*
X-43819Y-100469D01*
X-43733Y-100417D01*
X-43642Y-100374D01*
X-43584Y-100328D01*
X-43521Y-100290D01*
X-43449Y-100220D01*
X-43370Y-100157D01*
X-43324Y-100098D01*
X-43271Y-100047D01*
X-43216Y-99962D01*
X-43154Y-99883D01*
X-43108Y-99794D01*
X-43082Y-99753D01*
X-43070Y-99720D01*
X-43043Y-99666D01*
X-42599Y-98594D01*
X-41106Y-97101D01*
X-39156Y-96293D01*
X-37044Y-96293D01*
X-35094Y-97101D01*
X-33601Y-98594D01*
X-33157Y-99666D01*
X-33108Y-99754D01*
X-33068Y-99846D01*
X-33024Y-99905D01*
X-32988Y-99970D01*
X-32920Y-100045D01*
X-32861Y-100125D01*
X-32804Y-100173D01*
X-32754Y-100228D01*
X-32671Y-100285D01*
X-32595Y-100350D01*
X-32528Y-100384D01*
X-32467Y-100427D01*
X-32374Y-100463D01*
X-32284Y-100509D01*
X-32212Y-100527D01*
X-32143Y-100554D01*
X-32043Y-100569D01*
X-31946Y-100593D01*
X-31872Y-100594D01*
X-31798Y-100605D01*
X-31698Y-100597D01*
X-31598Y-100598D01*
X-31525Y-100582D01*
X-31451Y-100576D01*
X-31355Y-100545D01*
X-31257Y-100524D01*
X-31190Y-100492D01*
X-31119Y-100469D01*
X-31033Y-100417D01*
X-30942Y-100374D01*
X-30884Y-100328D01*
X-30821Y-100290D01*
X-30749Y-100220D01*
X-30670Y-100157D01*
X-30624Y-100098D01*
X-30571Y-100047D01*
X-30516Y-99962D01*
X-30454Y-99883D01*
X-30408Y-99794D01*
X-30382Y-99753D01*
X-30370Y-99720D01*
X-30343Y-99666D01*
X-29899Y-98594D01*
X-28406Y-97101D01*
X-26456Y-96293D01*
X-24344Y-96293D01*
X-22394Y-97101D01*
X-20901Y-98594D01*
X-20093Y-100544D01*
X-20093Y-101120D01*
X-20090Y-101146D01*
X-20092Y-101172D01*
X-20070Y-101319D01*
X-20053Y-101466D01*
X-20045Y-101491D01*
X-20041Y-101517D01*
X-19986Y-101655D01*
X-19936Y-101794D01*
X-19922Y-101816D01*
X-19912Y-101841D01*
X-19827Y-101962D01*
X-19747Y-102087D01*
X-19728Y-102105D01*
X-19713Y-102127D01*
X-19603Y-102226D01*
X-19496Y-102329D01*
X-19474Y-102343D01*
X-19454Y-102360D01*
X-19324Y-102432D01*
X-19197Y-102508D01*
X-19172Y-102516D01*
X-19149Y-102529D01*
X-19006Y-102569D01*
X-18865Y-102614D01*
X-18839Y-102616D01*
X-18814Y-102624D01*
X-18570Y-102643D01*
X-17994Y-102643D01*
X-16044Y-103451D01*
X-14551Y-104944D01*
X-13743Y-106894D01*
X-13743Y-109006D01*
X-14551Y-110956D01*
X-16044Y-112449D01*
X-17994Y-113257D01*
X-18570Y-113257D01*
X-18596Y-113260D01*
X-18622Y-113258D01*
X-18769Y-113280D01*
X-18916Y-113297D01*
X-18941Y-113305D01*
X-18967Y-113309D01*
X-19105Y-113364D01*
X-19244Y-113414D01*
X-19266Y-113428D01*
X-19291Y-113438D01*
X-19412Y-113523D01*
X-19537Y-113603D01*
X-19555Y-113622D01*
X-19577Y-113637D01*
X-19676Y-113747D01*
X-19779Y-113854D01*
X-19793Y-113876D01*
X-19810Y-113896D01*
X-19882Y-114026D01*
X-19958Y-114153D01*
X-19966Y-114178D01*
X-19979Y-114201D01*
X-20019Y-114344D01*
X-20064Y-114485D01*
X-20066Y-114511D01*
X-20074Y-114536D01*
X-20093Y-114780D01*
X-20093Y-115356D01*
X-20901Y-117306D01*
X-22394Y-118799D01*
X-24344Y-119607D01*
X-26456Y-119607D01*
X-28406Y-118799D01*
X-29899Y-117306D01*
X-30343Y-116234D01*
X-30391Y-116147D01*
X-30431Y-116054D01*
X-30476Y-115995D01*
X-30512Y-115930D01*
X-30579Y-115855D01*
X-30639Y-115775D01*
X-30696Y-115727D01*
X-30746Y-115672D01*
X-30829Y-115615D01*
X-30905Y-115550D01*
X-30972Y-115516D01*
X-31033Y-115473D01*
X-31126Y-115437D01*
X-31216Y-115391D01*
X-31288Y-115373D01*
X-31357Y-115346D01*
X-31457Y-115331D01*
X-31554Y-115307D01*
X-31628Y-115306D01*
X-31702Y-115295D01*
X-31802Y-115303D01*
X-31902Y-115302D01*
X-31975Y-115318D01*
X-32049Y-115324D01*
X-32145Y-115355D01*
X-32243Y-115376D01*
X-32310Y-115408D01*
X-32381Y-115431D01*
X-32467Y-115483D01*
X-32558Y-115526D01*
X-32616Y-115572D01*
X-32679Y-115610D01*
X-32751Y-115680D01*
X-32830Y-115743D01*
X-32876Y-115801D01*
X-32929Y-115853D01*
X-32984Y-115938D01*
X-33046Y-116017D01*
X-33092Y-116106D01*
X-33118Y-116147D01*
X-33130Y-116180D01*
X-33157Y-116234D01*
X-33601Y-117306D01*
X-35094Y-118799D01*
X-37044Y-119607D01*
X-39156Y-119607D01*
G37*
%LPD*%
%LPC*%
G36*
X131257Y364475D02*
X131257Y364475D01*
X127388Y366078D01*
X124428Y369038D01*
X122825Y372907D01*
X122825Y377093D01*
X124428Y380962D01*
X127388Y383922D01*
X131257Y385525D01*
X135443Y385525D01*
X139312Y383922D01*
X142272Y380962D01*
X143875Y377093D01*
X143875Y372907D01*
X142272Y369038D01*
X139312Y366078D01*
X135443Y364475D01*
X131257Y364475D01*
G37*
%LPD*%
%LPC*%
G36*
X55057Y364475D02*
X55057Y364475D01*
X51188Y366078D01*
X48228Y369038D01*
X46625Y372907D01*
X46625Y377093D01*
X48228Y380962D01*
X51188Y383922D01*
X55057Y385525D01*
X59243Y385525D01*
X63112Y383922D01*
X66072Y380962D01*
X67675Y377093D01*
X67675Y372907D01*
X66072Y369038D01*
X63112Y366078D01*
X59243Y364475D01*
X55057Y364475D01*
G37*
%LPD*%
%LPC*%
G36*
X-59243Y364475D02*
X-59243Y364475D01*
X-63112Y366078D01*
X-66072Y369038D01*
X-67675Y372907D01*
X-67675Y377093D01*
X-66072Y380962D01*
X-63112Y383922D01*
X-59243Y385525D01*
X-55057Y385525D01*
X-51188Y383922D01*
X-48228Y380962D01*
X-46625Y377093D01*
X-46625Y372907D01*
X-48228Y369038D01*
X-51188Y366078D01*
X-55057Y364475D01*
X-59243Y364475D01*
G37*
%LPD*%
%LPC*%
G36*
X-21143Y364475D02*
X-21143Y364475D01*
X-25012Y366078D01*
X-27972Y369038D01*
X-29575Y372907D01*
X-29575Y377093D01*
X-27972Y380962D01*
X-25012Y383922D01*
X-21143Y385525D01*
X-16957Y385525D01*
X-13088Y383922D01*
X-10128Y380962D01*
X-8525Y377093D01*
X-8525Y372907D01*
X-10128Y369038D01*
X-13088Y366078D01*
X-16957Y364475D01*
X-21143Y364475D01*
G37*
%LPD*%
%LPC*%
G36*
X-97343Y364475D02*
X-97343Y364475D01*
X-101212Y366078D01*
X-104172Y369038D01*
X-105775Y372907D01*
X-105775Y377093D01*
X-104172Y380962D01*
X-101212Y383922D01*
X-97343Y385525D01*
X-93157Y385525D01*
X-89288Y383922D01*
X-86328Y380962D01*
X-84725Y377093D01*
X-84725Y372907D01*
X-86328Y369038D01*
X-89288Y366078D01*
X-93157Y364475D01*
X-97343Y364475D01*
G37*
%LPD*%
%LPC*%
G36*
X-135443Y364475D02*
X-135443Y364475D01*
X-139312Y366078D01*
X-142272Y369038D01*
X-143875Y372907D01*
X-143875Y377093D01*
X-142272Y380962D01*
X-139312Y383922D01*
X-135443Y385525D01*
X-131257Y385525D01*
X-127388Y383922D01*
X-124428Y380962D01*
X-122825Y377093D01*
X-122825Y372907D01*
X-124428Y369038D01*
X-127388Y366078D01*
X-131257Y364475D01*
X-135443Y364475D01*
G37*
%LPD*%
%LPC*%
G36*
X93157Y364475D02*
X93157Y364475D01*
X89288Y366078D01*
X86328Y369038D01*
X84725Y372907D01*
X84725Y377093D01*
X86328Y380962D01*
X89288Y383922D01*
X93157Y385525D01*
X97343Y385525D01*
X101212Y383922D01*
X104172Y380962D01*
X105775Y377093D01*
X105775Y372907D01*
X104172Y369038D01*
X101212Y366078D01*
X97343Y364475D01*
X93157Y364475D01*
G37*
%LPD*%
%LPC*%
G36*
X16957Y364475D02*
X16957Y364475D01*
X13088Y366078D01*
X10128Y369038D01*
X8525Y372907D01*
X8525Y377093D01*
X10128Y380962D01*
X13088Y383922D01*
X16957Y385525D01*
X21143Y385525D01*
X25012Y383922D01*
X27972Y380962D01*
X29575Y377093D01*
X29575Y372907D01*
X27972Y369038D01*
X25012Y366078D01*
X21143Y364475D01*
X16957Y364475D01*
G37*
%LPD*%
%LPC*%
G36*
X-141525Y67025D02*
X-141525Y67025D01*
X-144897Y68422D01*
X-147478Y71003D01*
X-148875Y74375D01*
X-148875Y78025D01*
X-147478Y81397D01*
X-144897Y83978D01*
X-141525Y85375D01*
X-137875Y85375D01*
X-134503Y83978D01*
X-131922Y81397D01*
X-130525Y78025D01*
X-130525Y74375D01*
X-131922Y71003D01*
X-134503Y68422D01*
X-137875Y67025D01*
X-141525Y67025D01*
G37*
%LPD*%
%LPC*%
G36*
X-116125Y67025D02*
X-116125Y67025D01*
X-119497Y68422D01*
X-122078Y71003D01*
X-123475Y74375D01*
X-123475Y78025D01*
X-122078Y81397D01*
X-119497Y83978D01*
X-116125Y85375D01*
X-112475Y85375D01*
X-109103Y83978D01*
X-106522Y81397D01*
X-105125Y78025D01*
X-105125Y74375D01*
X-106522Y71003D01*
X-109103Y68422D01*
X-112475Y67025D01*
X-116125Y67025D01*
G37*
%LPD*%
%LPC*%
G36*
X-65325Y67025D02*
X-65325Y67025D01*
X-68697Y68422D01*
X-71278Y71003D01*
X-72675Y74375D01*
X-72675Y78025D01*
X-71278Y81397D01*
X-68697Y83978D01*
X-65325Y85375D01*
X-61675Y85375D01*
X-58303Y83978D01*
X-55722Y81397D01*
X-54325Y78025D01*
X-54325Y74375D01*
X-55722Y71003D01*
X-58303Y68422D01*
X-61675Y67025D01*
X-65325Y67025D01*
G37*
%LPD*%
%LPC*%
G36*
X48975Y92425D02*
X48975Y92425D01*
X45603Y93822D01*
X43022Y96403D01*
X41625Y99775D01*
X41625Y103425D01*
X43022Y106797D01*
X45603Y109378D01*
X48975Y110775D01*
X52625Y110775D01*
X55997Y109378D01*
X58578Y106797D01*
X59975Y103425D01*
X59975Y99775D01*
X58578Y96403D01*
X55997Y93822D01*
X52625Y92425D01*
X48975Y92425D01*
G37*
%LPD*%
%LPC*%
G36*
X23575Y67025D02*
X23575Y67025D01*
X20203Y68422D01*
X17622Y71003D01*
X16225Y74375D01*
X16225Y78025D01*
X17622Y81397D01*
X20203Y83978D01*
X23575Y85375D01*
X27225Y85375D01*
X30597Y83978D01*
X33178Y81397D01*
X34575Y78025D01*
X34575Y74375D01*
X33178Y71003D01*
X30597Y68422D01*
X27225Y67025D01*
X23575Y67025D01*
G37*
%LPD*%
%LPC*%
G36*
X48975Y67025D02*
X48975Y67025D01*
X45603Y68422D01*
X43022Y71003D01*
X41625Y74375D01*
X41625Y78025D01*
X43022Y81397D01*
X45603Y83978D01*
X48975Y85375D01*
X52625Y85375D01*
X55997Y83978D01*
X58578Y81397D01*
X59975Y78025D01*
X59975Y74375D01*
X58578Y71003D01*
X55997Y68422D01*
X52625Y67025D01*
X48975Y67025D01*
G37*
%LPD*%
%LPC*%
G36*
X-27225Y67025D02*
X-27225Y67025D01*
X-30597Y68422D01*
X-33178Y71003D01*
X-34575Y74375D01*
X-34575Y78025D01*
X-33178Y81397D01*
X-30597Y83978D01*
X-27225Y85375D01*
X-23575Y85375D01*
X-20203Y83978D01*
X-17622Y81397D01*
X-16225Y78025D01*
X-16225Y74375D01*
X-17622Y71003D01*
X-20203Y68422D01*
X-23575Y67025D01*
X-27225Y67025D01*
G37*
%LPD*%
%LPC*%
G36*
X-27225Y92425D02*
X-27225Y92425D01*
X-30597Y93822D01*
X-33178Y96403D01*
X-34575Y99775D01*
X-34575Y103425D01*
X-33178Y106797D01*
X-30597Y109378D01*
X-27225Y110775D01*
X-23575Y110775D01*
X-20203Y109378D01*
X-17622Y106797D01*
X-16225Y103425D01*
X-16225Y99775D01*
X-17622Y96403D01*
X-20203Y93822D01*
X-23575Y92425D01*
X-27225Y92425D01*
G37*
%LPD*%
%LPC*%
G36*
X-90725Y92425D02*
X-90725Y92425D01*
X-94097Y93822D01*
X-96678Y96403D01*
X-98075Y99775D01*
X-98075Y103425D01*
X-96678Y106797D01*
X-94097Y109378D01*
X-90725Y110775D01*
X-87075Y110775D01*
X-83703Y109378D01*
X-81122Y106797D01*
X-79725Y103425D01*
X-79725Y99775D01*
X-81122Y96403D01*
X-83703Y93822D01*
X-87075Y92425D01*
X-90725Y92425D01*
G37*
%LPD*%
%LPC*%
G36*
X-65325Y92425D02*
X-65325Y92425D01*
X-68697Y93822D01*
X-71278Y96403D01*
X-72675Y99775D01*
X-72675Y103425D01*
X-71278Y106797D01*
X-68697Y109378D01*
X-65325Y110775D01*
X-61675Y110775D01*
X-58303Y109378D01*
X-55722Y106797D01*
X-54325Y103425D01*
X-54325Y99775D01*
X-55722Y96403D01*
X-58303Y93822D01*
X-61675Y92425D01*
X-65325Y92425D01*
G37*
%LPD*%
%LPC*%
G36*
X-116125Y92425D02*
X-116125Y92425D01*
X-119497Y93822D01*
X-122078Y96403D01*
X-123475Y99775D01*
X-123475Y103425D01*
X-122078Y106797D01*
X-119497Y109378D01*
X-116125Y110775D01*
X-112475Y110775D01*
X-109103Y109378D01*
X-106522Y106797D01*
X-105125Y103425D01*
X-105125Y99775D01*
X-106522Y96403D01*
X-109103Y93822D01*
X-112475Y92425D01*
X-116125Y92425D01*
G37*
%LPD*%
%LPC*%
G36*
X-141525Y92425D02*
X-141525Y92425D01*
X-144897Y93822D01*
X-147478Y96403D01*
X-148875Y99775D01*
X-148875Y103425D01*
X-147478Y106797D01*
X-144897Y109378D01*
X-141525Y110775D01*
X-137875Y110775D01*
X-134503Y109378D01*
X-131922Y106797D01*
X-130525Y103425D01*
X-130525Y99775D01*
X-131922Y96403D01*
X-134503Y93822D01*
X-137875Y92425D01*
X-141525Y92425D01*
G37*
%LPD*%
%LPC*%
G36*
X23575Y92425D02*
X23575Y92425D01*
X20203Y93822D01*
X17622Y96403D01*
X16225Y99775D01*
X16225Y103425D01*
X17622Y106797D01*
X20203Y109378D01*
X23575Y110775D01*
X27225Y110775D01*
X30597Y109378D01*
X33178Y106797D01*
X34575Y103425D01*
X34575Y99775D01*
X33178Y96403D01*
X30597Y93822D01*
X27225Y92425D01*
X23575Y92425D01*
G37*
%LPD*%
%LPC*%
G36*
X-90725Y67025D02*
X-90725Y67025D01*
X-94097Y68422D01*
X-96678Y71003D01*
X-98075Y74375D01*
X-98075Y78025D01*
X-96678Y81397D01*
X-94097Y83978D01*
X-90725Y85375D01*
X-87075Y85375D01*
X-83703Y83978D01*
X-81122Y81397D01*
X-79725Y78025D01*
X-79725Y74375D01*
X-81122Y71003D01*
X-83703Y68422D01*
X-87075Y67025D01*
X-90725Y67025D01*
G37*
%LPD*%
%LPC*%
G36*
X-1825Y67025D02*
X-1825Y67025D01*
X-5197Y68422D01*
X-7778Y71003D01*
X-9175Y74375D01*
X-9175Y78025D01*
X-7778Y81397D01*
X-5197Y83978D01*
X-1825Y85375D01*
X1825Y85375D01*
X5197Y83978D01*
X7778Y81397D01*
X9175Y78025D01*
X9175Y74375D01*
X7778Y71003D01*
X5197Y68422D01*
X1825Y67025D01*
X-1825Y67025D01*
G37*
%LPD*%
%LPC*%
G36*
X-1825Y92425D02*
X-1825Y92425D01*
X-5197Y93822D01*
X-7778Y96403D01*
X-9175Y99775D01*
X-9175Y103425D01*
X-7778Y106797D01*
X-5197Y109378D01*
X-1825Y110775D01*
X1825Y110775D01*
X5197Y109378D01*
X7778Y106797D01*
X9175Y103425D01*
X9175Y99775D01*
X7778Y96403D01*
X5197Y93822D01*
X1825Y92425D01*
X-1825Y92425D01*
G37*
%LPD*%
%LPC*%
G36*
X-64556Y216943D02*
X-64556Y216943D01*
X-66506Y217751D01*
X-67999Y219244D01*
X-68807Y221194D01*
X-68807Y223306D01*
X-67999Y225256D01*
X-66506Y226749D01*
X-64556Y227557D01*
X-62444Y227557D01*
X-60494Y226749D01*
X-59001Y225256D01*
X-58193Y223306D01*
X-58193Y221194D01*
X-59001Y219244D01*
X-60494Y217751D01*
X-62444Y216943D01*
X-64556Y216943D01*
G37*
%LPD*%
%LPC*%
G36*
X-26456Y216943D02*
X-26456Y216943D01*
X-28406Y217751D01*
X-29899Y219244D01*
X-30707Y221194D01*
X-30707Y223306D01*
X-29899Y225256D01*
X-28406Y226749D01*
X-26456Y227557D01*
X-24344Y227557D01*
X-22394Y226749D01*
X-20901Y225256D01*
X-20093Y223306D01*
X-20093Y221194D01*
X-20901Y219244D01*
X-22394Y217751D01*
X-24344Y216943D01*
X-26456Y216943D01*
G37*
%LPD*%
%LPC*%
G36*
X30694Y216943D02*
X30694Y216943D01*
X28744Y217751D01*
X27251Y219244D01*
X26443Y221194D01*
X26443Y223306D01*
X27251Y225256D01*
X28744Y226749D01*
X30694Y227557D01*
X32806Y227557D01*
X34756Y226749D01*
X36249Y225256D01*
X37057Y223306D01*
X37057Y221194D01*
X36249Y219244D01*
X34756Y217751D01*
X32806Y216943D01*
X30694Y216943D01*
G37*
%LPD*%
%LPC*%
G36*
X49744Y216943D02*
X49744Y216943D01*
X47794Y217751D01*
X46301Y219244D01*
X45493Y221194D01*
X45493Y223306D01*
X46301Y225256D01*
X47794Y226749D01*
X49744Y227557D01*
X51856Y227557D01*
X53806Y226749D01*
X55299Y225256D01*
X56107Y223306D01*
X56107Y221194D01*
X55299Y219244D01*
X53806Y217751D01*
X51856Y216943D01*
X49744Y216943D01*
G37*
%LPD*%
%LPC*%
G36*
X-128056Y216943D02*
X-128056Y216943D01*
X-130006Y217751D01*
X-131499Y219244D01*
X-132307Y221194D01*
X-132307Y223306D01*
X-131499Y225256D01*
X-130006Y226749D01*
X-128056Y227557D01*
X-125944Y227557D01*
X-123994Y226749D01*
X-122501Y225256D01*
X-121693Y223306D01*
X-121693Y221194D01*
X-122501Y219244D01*
X-123994Y217751D01*
X-125944Y216943D01*
X-128056Y216943D01*
G37*
%LPD*%
%LPC*%
G36*
X-109006Y216943D02*
X-109006Y216943D01*
X-110956Y217751D01*
X-112449Y219244D01*
X-113257Y221194D01*
X-113257Y223306D01*
X-112449Y225256D01*
X-110956Y226749D01*
X-109006Y227557D01*
X-106894Y227557D01*
X-104944Y226749D01*
X-103451Y225256D01*
X-102643Y223306D01*
X-102643Y221194D01*
X-103451Y219244D01*
X-104944Y217751D01*
X-106894Y216943D01*
X-109006Y216943D01*
G37*
%LPD*%
%LPC*%
G36*
X-147106Y172493D02*
X-147106Y172493D01*
X-149056Y173301D01*
X-150549Y174794D01*
X-151357Y176744D01*
X-151357Y178856D01*
X-150549Y180806D01*
X-149056Y182299D01*
X-147106Y183107D01*
X-144994Y183107D01*
X-143044Y182299D01*
X-141551Y180806D01*
X-140743Y178856D01*
X-140743Y176744D01*
X-141551Y174794D01*
X-143044Y173301D01*
X-144994Y172493D01*
X-147106Y172493D01*
G37*
%LPD*%
%LPC*%
G36*
X17994Y-68807D02*
X17994Y-68807D01*
X16044Y-67999D01*
X14551Y-66506D01*
X13743Y-64556D01*
X13743Y-62444D01*
X14551Y-60494D01*
X16044Y-59001D01*
X17994Y-58193D01*
X20106Y-58193D01*
X22056Y-59001D01*
X23549Y-60494D01*
X24357Y-62444D01*
X24357Y-64556D01*
X23549Y-66506D01*
X22056Y-67999D01*
X20106Y-68807D01*
X17994Y-68807D01*
G37*
%LPD*%
%LPC*%
G36*
X-26456Y-81507D02*
X-26456Y-81507D01*
X-28406Y-80699D01*
X-29899Y-79206D01*
X-30707Y-77256D01*
X-30707Y-75144D01*
X-29899Y-73194D01*
X-28406Y-71701D01*
X-26456Y-70893D01*
X-24344Y-70893D01*
X-22394Y-71701D01*
X-20901Y-73194D01*
X-20093Y-75144D01*
X-20093Y-77256D01*
X-20901Y-79206D01*
X-22394Y-80699D01*
X-24344Y-81507D01*
X-26456Y-81507D01*
G37*
%LPD*%
%LPC*%
G36*
X-89956Y-94207D02*
X-89956Y-94207D01*
X-91906Y-93399D01*
X-93399Y-91906D01*
X-94207Y-89956D01*
X-94207Y-87844D01*
X-93399Y-85894D01*
X-91906Y-84401D01*
X-89956Y-83593D01*
X-87844Y-83593D01*
X-85894Y-84401D01*
X-84401Y-85894D01*
X-83593Y-87844D01*
X-83593Y-89956D01*
X-84401Y-91906D01*
X-85894Y-93399D01*
X-87844Y-94207D01*
X-89956Y-94207D01*
G37*
%LPD*%
%LPC*%
G36*
X30694Y-183107D02*
X30694Y-183107D01*
X28744Y-182299D01*
X27251Y-180806D01*
X26443Y-178856D01*
X26443Y-176744D01*
X27251Y-174794D01*
X28744Y-173301D01*
X30694Y-172493D01*
X32806Y-172493D01*
X34756Y-173301D01*
X36249Y-174794D01*
X37057Y-176744D01*
X37057Y-178856D01*
X36249Y-180806D01*
X34756Y-182299D01*
X32806Y-183107D01*
X30694Y-183107D01*
G37*
%LPD*%
%LPC*%
G36*
X37044Y-227557D02*
X37044Y-227557D01*
X35094Y-226749D01*
X33601Y-225256D01*
X32793Y-223306D01*
X32793Y-221194D01*
X33601Y-219244D01*
X35094Y-217751D01*
X37044Y-216943D01*
X39156Y-216943D01*
X41106Y-217751D01*
X42599Y-219244D01*
X43407Y-221194D01*
X43407Y-223306D01*
X42599Y-225256D01*
X41106Y-226749D01*
X39156Y-227557D01*
X37044Y-227557D01*
G37*
%LPD*%
%LPC*%
G36*
X-32756Y-260327D02*
X-32756Y-260327D01*
X-34614Y-259557D01*
X-36037Y-258134D01*
X-36807Y-256276D01*
X-36807Y-254264D01*
X-36037Y-252406D01*
X-34614Y-250983D01*
X-32756Y-250213D01*
X-30744Y-250213D01*
X-28886Y-250983D01*
X-27463Y-252406D01*
X-26693Y-254264D01*
X-26693Y-256276D01*
X-27463Y-258134D01*
X-28886Y-259557D01*
X-30744Y-260327D01*
X-32756Y-260327D01*
G37*
%LPD*%
%LPC*%
G36*
X419981Y-295591D02*
X419981Y-295591D01*
X419981Y-287431D01*
X428141Y-287431D01*
X428141Y-293384D01*
X427968Y-294031D01*
X427633Y-294610D01*
X427160Y-295083D01*
X426581Y-295418D01*
X425934Y-295591D01*
X419981Y-295591D01*
G37*
%LPD*%
%LPC*%
G36*
X419981Y-283369D02*
X419981Y-283369D01*
X419981Y-275209D01*
X425934Y-275209D01*
X426581Y-275382D01*
X427160Y-275717D01*
X427633Y-276190D01*
X427968Y-276769D01*
X428141Y-277416D01*
X428141Y-283369D01*
X419981Y-283369D01*
G37*
%LPD*%
%LPC*%
G36*
X409966Y-295591D02*
X409966Y-295591D01*
X409319Y-295418D01*
X408740Y-295083D01*
X408267Y-294610D01*
X407932Y-294031D01*
X407759Y-293384D01*
X407759Y-287431D01*
X415919Y-287431D01*
X415919Y-295591D01*
X409966Y-295591D01*
G37*
%LPD*%
%LPC*%
G36*
X407759Y-283369D02*
X407759Y-283369D01*
X407759Y-277416D01*
X407932Y-276769D01*
X408267Y-276190D01*
X408740Y-275717D01*
X409319Y-275382D01*
X409966Y-275209D01*
X415919Y-275209D01*
X415919Y-283369D01*
X407759Y-283369D01*
G37*
%LPD*%
%LPC*%
G36*
X-253652Y-386257D02*
X-253652Y-386257D01*
X-255380Y-385695D01*
X-256999Y-384870D01*
X-258468Y-383803D01*
X-259753Y-382518D01*
X-260820Y-381049D01*
X-261645Y-379430D01*
X-262207Y-377702D01*
X-262313Y-377031D01*
X-252981Y-377031D01*
X-252981Y-386363D01*
X-253652Y-386257D01*
G37*
%LPD*%
%LPC*%
G36*
X-215552Y-386257D02*
X-215552Y-386257D01*
X-217280Y-385695D01*
X-218899Y-384870D01*
X-220368Y-383803D01*
X-221653Y-382518D01*
X-222720Y-381049D01*
X-223545Y-379430D01*
X-224107Y-377702D01*
X-224213Y-377031D01*
X-214881Y-377031D01*
X-214881Y-386363D01*
X-215552Y-386257D01*
G37*
%LPD*%
%LPC*%
G36*
X-262313Y-372969D02*
X-262313Y-372969D01*
X-262207Y-372298D01*
X-261645Y-370570D01*
X-260820Y-368951D01*
X-259753Y-367482D01*
X-258468Y-366197D01*
X-256999Y-365130D01*
X-255380Y-364305D01*
X-253652Y-363743D01*
X-252981Y-363637D01*
X-252981Y-372969D01*
X-262313Y-372969D01*
G37*
%LPD*%
%LPC*%
G36*
X-224213Y-372969D02*
X-224213Y-372969D01*
X-224107Y-372298D01*
X-223545Y-370570D01*
X-222720Y-368951D01*
X-221653Y-367482D01*
X-220368Y-366197D01*
X-218899Y-365130D01*
X-217280Y-364305D01*
X-215552Y-363743D01*
X-214881Y-363637D01*
X-214881Y-372969D01*
X-224213Y-372969D01*
G37*
%LPD*%
%LPC*%
G36*
X-248919Y-377031D02*
X-248919Y-377031D01*
X-239587Y-377031D01*
X-239693Y-377702D01*
X-240255Y-379430D01*
X-241080Y-381049D01*
X-242147Y-382518D01*
X-243432Y-383803D01*
X-244901Y-384870D01*
X-246520Y-385695D01*
X-248248Y-386257D01*
X-248919Y-386363D01*
X-248919Y-377031D01*
G37*
%LPD*%
%LPC*%
G36*
X-210819Y-377031D02*
X-210819Y-377031D01*
X-201487Y-377031D01*
X-201593Y-377702D01*
X-202155Y-379430D01*
X-202980Y-381049D01*
X-204047Y-382518D01*
X-205332Y-383803D01*
X-206801Y-384870D01*
X-208420Y-385695D01*
X-210148Y-386257D01*
X-210819Y-386363D01*
X-210819Y-377031D01*
G37*
%LPD*%
%LPC*%
G36*
X-210819Y-372969D02*
X-210819Y-372969D01*
X-210819Y-363637D01*
X-210148Y-363743D01*
X-208420Y-364305D01*
X-206801Y-365130D01*
X-205332Y-366197D01*
X-204047Y-367482D01*
X-202980Y-368951D01*
X-202155Y-370570D01*
X-201593Y-372298D01*
X-201487Y-372969D01*
X-210819Y-372969D01*
G37*
%LPD*%
%LPC*%
G36*
X-248919Y-372969D02*
X-248919Y-372969D01*
X-248919Y-363637D01*
X-248248Y-363743D01*
X-246520Y-364305D01*
X-244901Y-365130D01*
X-243432Y-366197D01*
X-242147Y-367482D01*
X-241080Y-368951D01*
X-240255Y-370570D01*
X-239693Y-372298D01*
X-239587Y-372969D01*
X-248919Y-372969D01*
G37*
%LPD*%
%LPC*%
G36*
X419981Y-262031D02*
X419981Y-262031D01*
X427946Y-262031D01*
X427890Y-262386D01*
X427394Y-263912D01*
X426666Y-265341D01*
X425723Y-266639D01*
X424589Y-267773D01*
X423291Y-268716D01*
X421862Y-269444D01*
X420336Y-269940D01*
X419981Y-269996D01*
X419981Y-262031D01*
G37*
%LPD*%
%LPC*%
G36*
X415564Y-269940D02*
X415564Y-269940D01*
X414038Y-269444D01*
X412609Y-268716D01*
X411311Y-267773D01*
X410177Y-266639D01*
X409234Y-265341D01*
X408506Y-263912D01*
X408010Y-262386D01*
X407954Y-262031D01*
X415919Y-262031D01*
X415919Y-269996D01*
X415564Y-269940D01*
G37*
%LPD*%
%LPC*%
G36*
X417949Y-285401D02*
X417949Y-285401D01*
X417949Y-285399D01*
X417951Y-285399D01*
X417951Y-285401D01*
X417949Y-285401D01*
G37*
%LPD*%
%LPC*%
G36*
X-250951Y-375001D02*
X-250951Y-375001D01*
X-250951Y-374999D01*
X-250949Y-374999D01*
X-250949Y-375001D01*
X-250951Y-375001D01*
G37*
%LPD*%
%LPC*%
G36*
X-212851Y-375001D02*
X-212851Y-375001D01*
X-212851Y-374999D01*
X-212849Y-374999D01*
X-212849Y-375001D01*
X-212851Y-375001D01*
G37*
%LPD*%
D10*
X133350Y375000D03*
X95250Y375000D03*
X57150Y375000D03*
X19050Y375000D03*
X-19050Y375000D03*
X-57150Y375000D03*
X-95250Y375000D03*
X-133350Y375000D03*
X-327150Y-375000D03*
X-289050Y-375000D03*
X-250950Y-375000D03*
X-212850Y-375000D03*
D11*
X417950Y-285400D03*
D12*
X392550Y-285400D03*
X417950Y-260000D03*
X392550Y-260000D03*
X417950Y-234600D03*
X392550Y-234600D03*
X417950Y-209200D03*
X392550Y-209200D03*
X417950Y-183800D03*
X392550Y-183800D03*
X417950Y-158400D03*
X392550Y-158400D03*
X417950Y-133000D03*
X392550Y-133000D03*
X417950Y-107600D03*
X392550Y-107600D03*
X417950Y-82200D03*
X392550Y-82200D03*
X417950Y-56800D03*
X392550Y-56800D03*
D11*
X-257450Y93200D03*
D12*
X-232050Y93200D03*
X-257450Y67800D03*
X-232050Y67800D03*
X-257450Y42400D03*
X-232050Y42400D03*
X-257450Y17000D03*
X-232050Y17000D03*
X-257450Y-8400D03*
X-232050Y-8400D03*
X-257450Y-33800D03*
X-232050Y-33800D03*
X-257450Y-59200D03*
X-232050Y-59200D03*
X-257450Y-84600D03*
X-232050Y-84600D03*
X-257450Y-110000D03*
X-232050Y-110000D03*
X-257450Y-135400D03*
X-232050Y-135400D03*
X-139700Y76200D03*
X-114300Y76200D03*
X-88900Y76200D03*
X-139700Y101600D03*
X-114300Y101600D03*
X-88900Y101600D03*
X-63500Y76200D03*
X-63500Y101600D03*
X-25400Y76200D03*
X0Y76200D03*
X25400Y76200D03*
X-25400Y101600D03*
X0Y101600D03*
X25400Y101600D03*
X50800Y76200D03*
X50800Y101600D03*
D13*
X69850Y-50800D03*
D14*
X106680Y-59690D03*
D13*
X222250Y-57150D03*
X222250Y-82550D03*
X234950Y-101600D03*
X234950Y-38100D03*
X76200Y-101600D03*
X120650Y-57150D03*
X88900Y-50800D03*
X82550Y-95250D03*
X88900Y-88900D03*
D14*
X-330200Y-266700D03*
X-317500Y-266700D03*
X-330200Y-279400D03*
X-317500Y-279400D03*
X-304800Y-266700D03*
X-292100Y-266700D03*
X-279400Y-266700D03*
X-304800Y-342900D03*
X-304800Y-355600D03*
X-317500Y-342900D03*
D13*
X-368300Y50800D03*
X-368300Y114300D03*
X-368300Y171450D03*
X-368300Y234950D03*
X-63500Y-241300D03*
X-50800Y-254000D03*
X50800Y-266700D03*
X-76200Y-44450D03*
X-67310Y-27940D03*
X-111760Y-15240D03*
X12700Y-43180D03*
X25400Y241300D03*
X-95250Y241300D03*
X-12700Y-43180D03*
X63500Y184150D03*
X-69850Y241300D03*
X-6350Y266700D03*
D14*
X-63500Y-254000D03*
X90170Y-223520D03*
D15*
X116840Y-250190D01*
D14*
X116840Y-250190D03*
D13*
X139700Y-184150D03*
X-146050Y177800D03*
X76200Y63500D03*
X-107950Y222250D03*
X-63500Y222250D03*
X-25400Y222250D03*
X31750Y222250D03*
X-127000Y222250D03*
X-88900Y-88900D03*
X50800Y222250D03*
X19050Y-63500D03*
X-25400Y-76200D03*
X137160Y-219710D03*
D14*
X147320Y-270510D03*
X100330Y-223520D03*
D15*
X147320Y-270510D01*
D13*
X-31750Y-107950D03*
X-19050Y-107950D03*
X-25400Y-101600D03*
X-25400Y-114300D03*
X-38100Y-101600D03*
X-50800Y-101600D03*
X-38100Y-114300D03*
X38100Y-222250D03*
X31750Y-177800D03*
D14*
X-31750Y-255270D03*
X64770Y-215900D03*
D15*
X90170Y-241300D01*
X90170Y-270510D01*
X83820Y-276860D01*
X-115990Y-276860D02*
X-257450Y-135400D01*
X-115990Y-276860D02*
X83820Y-276860D01*
M02*
