G04 EAGLE Gerber RS-274X export*
G75*
%MOMM*%
%FSLAX34Y34*%
%LPD*%
%INSoldermask Bottom*%
%IPPOS*%
%AMOC8*
5,1,8,0,0,1.08239X$1,22.5*%
G01*
%ADD10C,2.703200*%
%ADD11C,2.003200*%
%ADD12R,1.733200X1.733200*%
%ADD13C,1.733200*%
%ADD14C,0.959600*%
%ADD15C,0.909600*%


D10*
X-420000Y330000D03*
X420000Y330000D03*
X-420000Y-330000D03*
X420000Y-330000D03*
X400000Y-5000D03*
D11*
X133350Y375000D03*
X95250Y375000D03*
X57150Y375000D03*
X19050Y375000D03*
X-19050Y375000D03*
X-57150Y375000D03*
X-95250Y375000D03*
X-133350Y375000D03*
X-327150Y-375000D03*
X-289050Y-375000D03*
X-250950Y-375000D03*
X-212850Y-375000D03*
D12*
X417950Y-285400D03*
D13*
X392550Y-285400D03*
X417950Y-260000D03*
X392550Y-260000D03*
X417950Y-234600D03*
X392550Y-234600D03*
X417950Y-209200D03*
X392550Y-209200D03*
X417950Y-183800D03*
X392550Y-183800D03*
X417950Y-158400D03*
X392550Y-158400D03*
X417950Y-133000D03*
X392550Y-133000D03*
X417950Y-107600D03*
X392550Y-107600D03*
X417950Y-82200D03*
X392550Y-82200D03*
X417950Y-56800D03*
X392550Y-56800D03*
D12*
X-257450Y93200D03*
D13*
X-232050Y93200D03*
X-257450Y67800D03*
X-232050Y67800D03*
X-257450Y42400D03*
X-232050Y42400D03*
X-257450Y17000D03*
X-232050Y17000D03*
X-257450Y-8400D03*
X-232050Y-8400D03*
X-257450Y-33800D03*
X-232050Y-33800D03*
X-257450Y-59200D03*
X-232050Y-59200D03*
X-257450Y-84600D03*
X-232050Y-84600D03*
X-257450Y-110000D03*
X-232050Y-110000D03*
X-257450Y-135400D03*
X-232050Y-135400D03*
X-139700Y76200D03*
X-114300Y76200D03*
X-88900Y76200D03*
X-139700Y101600D03*
X-114300Y101600D03*
X-88900Y101600D03*
X-63500Y76200D03*
X-63500Y101600D03*
X-25400Y76200D03*
X0Y76200D03*
X25400Y76200D03*
X-25400Y101600D03*
X0Y101600D03*
X25400Y101600D03*
X50800Y76200D03*
X50800Y101600D03*
D14*
X88900Y-88900D03*
D15*
X90170Y-223520D03*
D14*
X139700Y-184150D03*
X76200Y63500D03*
X-107950Y222250D03*
X-63500Y222250D03*
X-25400Y222250D03*
X31750Y222250D03*
X-127000Y222250D03*
X-88900Y-88900D03*
X50800Y222250D03*
X19050Y-63500D03*
X-25400Y-76200D03*
X137160Y-219710D03*
D15*
X100330Y-223520D03*
X64770Y-215900D03*
M02*
